<?xml version="1.0" standalone="no"?>
<!DOCTYPE svg PUBLIC "-//W3C//DTD SVG 20010904//EN"
 "http://www.w3.org/TR/2001/REC-SVG-20010904/DTD/svg10.dtd">
<svg version="1.0" xmlns="http://www.w3.org/2000/svg"
 width="469.000000pt" height="469.000000pt" viewBox="0 0 469.000000 469.000000"
 preserveAspectRatio="xMidYMid meet">
<metadata>
Created by potrace 1.14, written by Peter Selinger 2001-2017
</metadata>
<g transform="translate(0.000000,469.000000) scale(0.100000,-0.100000)"
fill="#000000" stroke="none">
<path d="M2070 4665 c-151 -19 -290 -50 -450 -100 -292 -93 -466 -186 -725
-390 -469 -369 -770 -895 -861 -1500 -25 -165 -25 -485 0 -650 91 -607 404
-1148 879 -1519 96 -75 325 -219 402 -253 196 -86 248 -107 349 -138 114 -34
244 -62 401 -86 122 -19 467 -17 605 5 152 23 366 77 487 122 135 50 359 163
473 238 333 219 615 534 798 894 76 148 110 235 155 392 108 375 127 741 56
1110 -24 126 -80 327 -121 430 -78 196 -229 448 -371 620 -199 241 -428 429
-697 573 -231 124 -579 228 -859 257 -136 13 -390 11 -521 -5z m480 -249 c0
-2 -8 -10 -17 -17 -16 -13 -17 -12 -4 4 13 16 21 21 21 13z m667 -175 c18 -9
19 -14 9 -45 -12 -39 -34 -49 -77 -34 -24 8 -28 14 -23 32 3 11 11 27 16 33 6
7 8 19 5 27 -5 11 0 13 22 6 16 -4 37 -13 48 -19z m133 -62 c103 -56 222 -136
305 -206 84 -70 111 -119 141 -248 6 -28 3 -27 -57 31 -124 118 -264 222 -425
318 l-82 47 16 50 c9 27 18 49 21 49 3 0 40 -19 81 -41z m-1970 -107 c3 -2 -7
-3 -22 0 -15 3 -25 1 -22 -3 11 -18 -26 -8 -61 15 -33 23 -37 46 -5 25 25 -15
35 -10 14 6 -10 9 6 4 36 -11 30 -14 57 -29 60 -32z m1730 18 c-18 -11 -22 -7
-14 14 5 13 10 14 18 6 8 -8 7 -13 -4 -20z m-1588 -29 c-11 -6 -8 -13 12 -29
30 -23 33 -37 10 -46 -31 -12 -70 -5 -98 18 -27 23 -28 24 -9 34 11 6 30 8 42
5 12 -3 21 -2 20 3 -3 18 1 24 19 24 13 0 14 -2 4 -9z m1761 -27 c123 -63 301
-200 428 -331 113 -115 118 -125 120 -206 1 -37 0 -69 -2 -72 -3 -2 -43 41
-89 96 -132 156 -268 271 -462 391 -92 56 -97 62 -92 86 9 37 23 62 35 62 5 0
33 -12 62 -26z m-1590 -78 c22 -17 22 -22 -2 -22 -11 0 -17 4 -15 8 3 4 0 8
-5 8 -17 0 -13 -18 5 -28 10 -5 12 -12 7 -15 -6 -4 -21 5 -34 19 -20 21 -21
27 -9 34 20 13 32 12 53 -4z m77 -35 c0 -8 42 -32 195 -114 50 -27 67 -48 58
-73 -5 -14 -42 -7 -64 13 -9 7 -26 16 -38 18 -12 2 -31 16 -42 30 -11 14 -25
25 -30 25 -5 0 -20 9 -31 20 -12 11 -29 18 -39 15 -12 -4 -22 5 -37 35 l-19
40 23 0 c13 0 24 -4 24 -9z m1496 -60 c46 -28 117 -75 157 -105 113 -84 284
-260 350 -359 24 -35 25 -40 12 -70 -7 -18 -16 -57 -20 -87 -4 -30 -16 -95
-26 -144 -18 -82 -18 -91 -4 -105 15 -15 18 -14 33 7 12 15 24 21 35 16 21 -8
21 -14 2 -41 -26 -36 -39 -121 -26 -164 31 -101 134 -234 254 -324 73 -55 97
-155 50 -207 -23 -26 -34 -22 -21 7 9 21 7 30 -12 59 -19 26 -35 36 -76 46
-47 11 -56 11 -79 -4 -15 -10 -33 -15 -41 -12 -7 3 -18 -3 -24 -14 -5 -10 -24
-22 -42 -25 -18 -4 -38 -12 -45 -17 -24 -19 -79 -26 -104 -13 -12 7 -29 11
-36 8 -8 -3 -13 2 -13 13 0 14 -2 16 -9 6 -7 -11 -9 -11 -14 1 -5 14 5 39 17
38 3 -1 5 2 4 5 -2 3 12 12 30 19 36 16 41 35 13 52 -69 43 -165 -96 -157
-230 2 -40 8 -52 37 -76 50 -43 178 -57 238 -27 28 14 40 12 83 -17 21 -14 28
-30 33 -65 3 -26 13 -85 22 -132 28 -144 8 -166 -110 -123 l-71 25 -106 -35
c-58 -20 -137 -43 -177 -51 -69 -14 -123 -39 -123 -57 0 -20 61 -40 98 -32 20
4 46 7 57 7 11 0 23 5 28 10 4 7 10 6 16 -3 8 -13 12 -13 27 -1 11 10 37 14
83 12 36 -2 88 2 115 8 66 15 96 -4 96 -60 0 -21 -7 -45 -15 -53 -8 -8 -12
-17 -10 -19 6 -5 -6 -44 -35 -118 -12 -30 -21 -74 -21 -97 1 -39 -5 -49 -85
-140 -84 -97 -227 -223 -251 -223 -7 0 -13 -4 -13 -10 0 -5 -4 -10 -10 -10
-13 0 -1 32 19 49 14 12 14 13 -6 8 -13 -3 -26 -1 -29 4 -3 5 -1 9 3 9 17 0
13 51 -4 57 -9 4 -25 15 -35 25 -15 15 -42 24 -51 16 -1 -2 -13 7 -27 19 -13
13 -35 23 -48 23 -17 0 -23 4 -18 15 4 11 -1 15 -19 15 -14 0 -25 5 -25 11 0
6 -5 9 -12 7 -6 -2 -20 3 -29 11 -43 38 -47 41 -52 28 -3 -7 -6 -2 -6 11 -1
15 -7 22 -21 22 -12 0 -20 7 -20 18 0 14 2 15 10 2 5 -8 12 -11 16 -7 11 10
-2 20 -28 21 -13 0 -23 6 -24 11 -1 9 -9 45 -21 88 -2 9 -8 15 -12 13 -4 -3
-8 7 -9 22 -1 14 -9 36 -17 49 -13 19 -13 23 -2 23 9 0 14 11 14 30 0 22 -4
29 -14 26 -8 -3 -12 -2 -9 2 3 5 7 32 10 62 3 29 11 57 17 61 7 4 9 14 6 22
-3 8 -3 18 1 22 11 11 11 75 0 75 -5 0 -8 6 -5 14 3 7 1 18 -4 23 -4 4 -10 34
-11 65 -1 31 -6 54 -10 52 -13 -8 -9 9 6 29 14 18 14 18 21 -2 3 -11 1 -31 -5
-43 -10 -21 -10 -21 3 -5 8 9 18 36 21 60 5 28 10 37 15 28 5 -7 6 -23 3 -35
-3 -11 -1 -17 4 -13 4 4 10 22 11 40 2 18 6 56 9 85 4 37 2 58 -6 65 -10 9
-11 6 -6 -15 5 -20 3 -28 -7 -28 -21 0 -16 70 7 105 10 16 20 47 21 69 1 23 0
30 -2 16 -3 -14 -11 -32 -18 -40 -7 -8 -17 -27 -20 -43 -9 -33 -25 -47 -18
-15 4 18 0 16 -16 -9 -32 -51 -54 -44 -27 8 7 15 14 45 14 68 0 22 3 45 6 50
6 10 -4 37 -29 81 -11 18 -15 20 -15 8 0 -9 -6 -21 -14 -25 -7 -4 -18 -18 -25
-30 -6 -13 -17 -23 -23 -23 -6 0 -8 3 -5 6 4 4 0 19 -7 33 -26 49 -50 106 -48
114 1 4 -8 2 -20 -5 -13 -7 -27 -12 -31 -13 -4 0 -12 -6 -16 -14 -13 -20 -24
20 -15 53 4 16 1 33 -7 43 -10 11 -10 14 -2 9 9 -5 11 -2 7 8 -8 20 -14 20
-30 -1 -12 -16 -13 -16 -8 -1 3 10 -2 20 -16 28 -11 6 -18 15 -15 20 7 11 -30
72 -38 63 -4 -4 -16 3 -27 14 -10 12 -16 24 -13 27 4 3 1 6 -6 6 -7 0 -9 5 -6
10 3 6 -1 10 -10 10 -9 0 -14 4 -11 9 7 10 -18 34 -26 26 -3 -3 -5 5 -4 17 0
14 -4 22 -11 21 -7 -2 -13 4 -13 12 0 8 -7 15 -15 15 -8 0 -15 5 -15 11 0 7
-10 21 -22 33 -14 13 -24 36 -26 58 -3 35 -2 37 28 33 21 -3 30 0 30 10 0 8 5
15 11 15 6 0 9 -7 6 -15 -8 -19 1 -24 47 -27 21 -1 39 -6 42 -10 3 -4 11 -5
19 -1 10 3 13 1 10 -9 -7 -19 10 -32 60 -48 22 -7 49 -18 60 -25 12 -7 37 -15
56 -18 19 -2 44 -9 55 -14 18 -10 29 -9 64 4 8 4 19 5 24 4 4 -1 14 3 20 8 7
6 22 9 34 6 12 -2 22 1 22 8 0 8 3 8 12 -1 8 -8 15 -7 27 6 9 9 24 18 34 20
61 10 53 20 -11 15 -86 -6 -179 4 -192 20 -62 77 -61 74 -44 91 8 9 20 16 26
16 5 0 23 9 39 21 16 11 29 17 29 13 0 -4 8 0 18 10 18 15 20 15 34 -1 8 -10
21 -33 28 -51 26 -67 91 -83 133 -32 20 23 26 26 31 14 3 -9 3 -26 0 -39 -6
-23 -4 -24 26 -15 18 5 35 9 39 8 22 -2 40 6 68 31 18 15 30 30 28 33 -3 3 1
5 8 6 6 0 29 3 49 5 28 3 38 0 41 -12 2 -9 3 -6 2 7 -1 12 1 25 6 27 4 3 7 19
7 36 -1 19 7 38 22 52 12 12 19 16 15 8 -5 -9 -4 -12 3 -7 8 4 8 15 2 31 -6
15 -6 27 1 30 15 10 0 25 -17 18 -13 -5 -14 -2 -7 13 6 10 8 25 5 33 -3 8 0
11 7 7 6 -4 11 -2 11 3 0 6 -4 11 -10 11 -24 0 6 30 35 36 43 8 62 49 49 102
-18 72 -140 101 -309 74 -82 -14 -269 -21 -304 -13 -23 6 -21 9 36 59 41 35
69 70 87 107 14 30 30 55 36 55 5 0 9 3 8 8 -5 16 94 182 109 182 8 0 53 -22
99 -49z m-1571 19 c3 -5 1 -10 -4 -10 -6 0 -11 5 -11 10 0 6 2 10 4 10 3 0 8
-4 11 -10z m12 -127 c-3 -10 -5 -4 -5 12 0 17 2 24 5 18 2 -7 2 -21 0 -30z
m372 -2 c8 -5 11 -16 6 -30 -5 -18 -9 -20 -21 -10 -10 8 -14 8 -14 0 0 -6 -4
-11 -10 -11 -5 0 -10 9 -10 21 0 11 4 17 10 14 6 -3 7 1 4 9 -7 18 12 21 35 7z
m49 -43 c15 -15 16 -54 2 -63 -10 -6 -14 1 -24 48 -7 29 2 35 22 15z m73 -10
c4 -70 -18 -123 -50 -125 -27 -2 -27 13 -1 27 21 11 28 40 10 40 -11 0 -14 63
-3 73 15 16 43 6 44 -15z m649 2 c-24 -19 -40 -25 -40 -15 0 5 51 34 60 34 3
0 -6 -8 -20 -19z m-1030 -85 c0 -8 -4 -15 -10 -15 -5 0 -7 7 -4 15 4 8 8 15
10 15 2 0 4 -7 4 -15z m300 -9 c0 -3 -4 -8 -10 -11 -5 -3 -10 -1 -10 4 0 6 5
11 10 11 6 0 10 -2 10 -4z m975 -248 c31 -31 -140 -92 -242 -87 -54 3 -123
-11 -152 -30 -14 -9 -22 -11 -18 -5 4 7 -2 10 -18 6 -14 -2 -25 -8 -25 -12 0
-12 -48 -30 -52 -19 -2 5 -14 -1 -28 -14 -14 -12 -32 -22 -40 -22 -8 0 -21 -5
-28 -12 -27 -26 -58 -11 -46 22 7 19 107 85 129 85 7 0 17 4 20 10 3 5 23 17
43 26 20 9 53 23 72 32 19 9 55 19 80 22 61 8 297 7 305 -2z m1125 -90 c21
-47 26 -118 10 -149 -8 -13 -7 -25 1 -40 6 -13 8 -35 3 -58 -6 -29 -8 -32 -14
-16 -3 11 -14 37 -23 58 -15 32 -16 55 -11 142 4 58 9 105 11 105 2 0 13 -19
23 -42z m-370 -102 c0 -8 -4 -18 -10 -21 -5 -3 -10 3 -10 14 0 12 5 21 10 21
6 0 10 -6 10 -14z m-1394 -36 c15 6 24 6 24 0 0 -6 -5 -10 -11 -10 -7 0 -18
-8 -26 -17 -8 -10 -11 -12 -7 -4 4 9 3 12 -4 8 -5 -4 -8 -16 -5 -26 6 -22 -9
-34 -31 -25 -21 8 -21 44 0 44 10 0 14 6 11 14 -7 18 4 29 16 17 6 -6 19 -6
33 -1z m559 -40 c3 -5 1 -10 -4 -10 -6 0 -11 5 -11 10 0 6 2 10 4 10 3 0 8 -4
11 -10z m30 -70 c6 0 16 5 23 12 9 9 12 9 12 1 0 -15 -40 -43 -61 -43 -9 0
-22 6 -28 14 -9 11 -8 14 6 12 13 -1 17 5 16 24 l-2 25 11 -22 c6 -13 16 -23
23 -23z m-635 -6 c0 -2 -7 -4 -15 -4 -8 0 -15 4 -15 10 0 5 7 7 15 4 8 -4 15
-8 15 -10z m1784 -125 c10 -33 14 -68 10 -77 -4 -9 -6 -28 -6 -42 2 -22 1 -23
-7 -5 -7 15 -10 6 -16 -40 -10 -79 -20 -99 -30 -56 -10 45 11 294 25 286 4 -2
15 -32 24 -66z m-1364 -566 c-1 -14 -27 -43 -39 -43 -8 0 -7 5 3 16 9 8 16 20
16 25 0 5 5 9 10 9 6 0 10 -3 10 -7z m76 -227 c-8 -20 -18 -36 -21 -36 -3 0 2
16 10 36 8 20 15 39 15 42 0 3 3 3 6 0 3 -3 -2 -22 -10 -42z m74 -1 c0 -8 -6
-15 -12 -15 -9 0 -8 -4 2 -10 10 -7 11 -10 2 -10 -7 0 -17 -12 -23 -26 -5 -15
-12 -25 -14 -22 -7 7 28 98 37 98 4 0 8 -7 8 -15z m-97 -87 c-4 -7 -6 -20 -5
-30 4 -20 -14 -33 -21 -15 -6 17 10 57 23 57 7 0 8 -5 3 -12z m-333 -113 c22
-30 40 -58 40 -64 0 -5 7 -12 16 -15 9 -3 14 -12 12 -18 -3 -7 3 -33 13 -58 9
-25 20 -54 24 -65 l7 -20 -17 20 c-18 22 -147 275 -140 275 2 0 23 -25 45 -55z
m134 -281 c3 -8 2 -12 -4 -9 -6 3 -10 10 -10 16 0 14 7 11 14 -7z m1516 -192
c0 -16 -6 -37 -14 -48 -13 -18 -15 -18 -21 -2 -4 10 0 24 9 33 9 9 16 23 16
31 0 8 2 14 5 14 3 0 5 -13 5 -28z m-445 -360 c-9 -35 -98 -125 -147 -150 -59
-29 -208 -67 -208 -53 0 3 21 19 46 35 69 44 146 118 231 224 l78 97 3 -65 c2
-35 0 -75 -3 -88z m-748 -42 c1 -11 29 -70 62 -132 43 -77 58 -115 51 -122
-17 -17 -41 5 -78 73 -22 39 -36 80 -38 109 -2 25 -8 50 -14 56 -5 5 -10 18
-10 28 0 24 25 13 27 -12z m173 -51 c-11 -8 -8 -10 13 -6 15 2 27 1 27 -3 0
-5 8 -6 18 -4 28 7 77 -11 75 -27 -2 -9 6 -15 18 -16 16 -2 20 3 16 18 -7 25
-1 24 13 -1 9 -18 5 -24 -37 -50 -54 -34 -121 -41 -148 -14 -17 18 -39 57 -49
91 -6 18 -4 21 12 18 10 -2 25 1 33 5 19 12 27 1 9 -11z m-50 -131 c0 -17 -10
-6 -25 25 l-16 32 20 -25 c11 -14 21 -28 21 -32z m45 -137 c3 -10 14 -26 25
-36 16 -15 17 -19 5 -31 -7 -8 -17 -14 -22 -14 -12 1 -45 78 -38 90 10 16 23
12 30 -9z m106 -173 c19 -27 19 -27 -2 -39 -23 -12 -25 -10 -54 43 -19 35 -19
37 8 47 17 7 23 5 26 -8 2 -9 12 -28 22 -43z m-88 -78 c-6 -6 -63 61 -63 75 0
5 16 -8 34 -30 19 -22 32 -42 29 -45z"/>
<path d="M3400 3125 c0 -8 5 -15 11 -15 5 0 8 4 4 9 -3 5 3 12 12 14 14 4 13
5 -4 6 -14 1 -23 -5 -23 -14z"/>
<path d="M3041 1914 c0 -11 3 -14 6 -6 3 7 2 16 -1 19 -3 4 -6 -2 -5 -13z"/>
<path d="M2931 1604 c0 -11 3 -14 6 -6 3 7 2 16 -1 19 -3 4 -6 -2 -5 -13z"/>
<path d="M3398 963 c7 -3 16 -2 19 1 4 3 -2 6 -13 5 -11 0 -14 -3 -6 -6z"/>
<path d="M4221 3054 c0 -11 3 -14 6 -6 3 7 2 16 -1 19 -3 4 -6 -2 -5 -13z"/>
</g>
</svg>
