<?xml version="1.0" standalone="no"?>
<!DOCTYPE svg PUBLIC "-//W3C//DTD SVG 20010904//EN"
 "http://www.w3.org/TR/2001/REC-SVG-20010904/DTD/svg10.dtd">
<svg version="1.0" xmlns="http://www.w3.org/2000/svg"
 width="700.000000pt" height="700.000000pt" viewBox="0 0 700.000000 700.000000"
 preserveAspectRatio="xMidYMid meet">
<metadata>
Created by potrace 1.14, written by Peter Selinger 2001-2017
</metadata>
<g transform="translate(0.000000,700.000000) scale(0.100000,-0.100000)"
fill="#000000" stroke="none">
<path d="M3269 6996 c-2 -2 -42 -6 -87 -10 -155 -12 -322 -39 -501 -82 -1125
-270 -2056 -1093 -2459 -2174 -88 -235 -157 -503 -188 -729 -3 -25 -8 -57 -10
-71 -19 -125 -26 -552 -12 -737 37 -472 201 -999 445 -1427 83 -145 257 -396
348 -501 96 -111 129 -148 205 -225 468 -474 1069 -809 1715 -954 61 -14 126
-28 145 -31 19 -3 46 -7 60 -10 14 -3 48 -7 75 -11 28 -3 59 -8 70 -10 95 -19
580 -26 743 -12 975 87 1894 601 2482 1388 35 47 88 109 117 138 29 29 53 57
53 62 0 6 6 10 13 10 7 0 21 15 30 34 14 31 14 35 0 40 -13 5 -12 11 7 44 52
86 153 287 199 395 91 212 195 555 226 747 3 19 7 46 10 60 7 38 14 94 29 230
13 119 15 618 3 680 -3 14 -8 50 -12 80 -11 91 -13 106 -31 207 -51 302 -172
665 -317 948 -454 890 -1244 1538 -2196 1800 -321 88 -572 121 -932 123 -125
1 -228 0 -230 -2z m421 -801 c-11 -13 -5 -15 41 -16 30 0 63 -2 74 -4 37 -7
180 -27 205 -30 14 -1 32 -6 41 -9 9 -4 28 -8 43 -10 14 -1 29 -6 33 -9 12
-12 34 -7 28 6 -4 6 0 4 9 -7 10 -12 23 -17 37 -13 11 3 18 3 15 0 -5 -5 104
-45 154 -57 14 -3 30 -9 102 -37 15 -6 32 -8 39 -3 7 4 10 3 5 -4 -6 -10 59
-39 77 -34 4 1 7 -2 7 -7 0 -10 54 -34 76 -34 8 0 14 -4 14 -7 0 -4 15 -13 33
-21 17 -7 34 -16 37 -20 10 -13 68 -38 74 -32 3 4 6 2 6 -4 0 -8 153 -108 177
-116 4 -1 17 -12 30 -25 13 -13 28 -20 36 -16 6 4 9 4 5 -1 -4 -4 12 -21 35
-38 23 -17 48 -37 55 -44 8 -7 18 -11 23 -7 5 3 8 0 7 -8 -2 -7 3 -12 9 -11 7
2 12 -1 10 -5 -1 -4 39 -44 88 -89 125 -113 292 -304 372 -424 14 -22 30 -39
34 -39 5 0 8 -3 7 -7 -5 -15 66 -122 76 -116 5 3 6 1 3 -4 -9 -14 47 -115 58
-106 4 5 5 3 2 -4 -9 -15 46 -126 58 -116 4 4 5 3 2 -4 -10 -16 3 -44 16 -36
5 3 7 1 3 -5 -3 -6 -2 -21 3 -34 5 -12 18 -46 29 -73 l20 -51 -23 1 c-30 0
-36 7 -64 80 -62 157 -190 389 -295 535 -123 170 -319 378 -476 504 -275 220
-638 405 -965 491 -49 13 -102 26 -118 29 -15 3 -35 7 -45 10 -9 3 -35 7 -57
11 -22 3 -67 10 -100 15 -173 27 -504 30 -680 5 -144 -20 -347 -66 -469 -106
-72 -23 -77 -23 -102 -3 -10 8 -13 13 -7 9 16 -7 123 25 123 37 0 5 3 7 8 4 4
-2 70 11 147 30 76 19 149 34 162 34 13 0 23 3 23 8 0 4 19 7 43 8 23 0 91 6
151 12 60 7 180 12 267 12 94 0 160 4 164 10 3 6 9 10 12 10 3 0 0 -7 -7 -15z
m80 -68 c14 -3 43 -8 65 -11 348 -44 700 -169 1014 -358 149 -90 321 -227 467
-373 189 -188 314 -351 432 -562 72 -129 171 -348 161 -357 -2 -2 -65 -6 -139
-10 -74 -4 -153 -9 -175 -11 -22 -2 -74 -6 -115 -10 -91 -7 -247 -24 -275 -30
-11 -2 -30 -4 -42 -4 -49 -2 -18 -28 75 -64 325 -126 300 -114 269 -126 -16
-6 -32 -11 -36 -11 -5 0 -98 -24 -207 -54 -110 -30 -244 -66 -299 -81 -113
-30 -157 -42 -449 -120 -115 -31 -212 -55 -217 -53 -4 2 -62 82 -128 178 -66
96 -168 245 -226 330 -371 541 -506 737 -571 828 l-74 104 77 -7 c43 -4 85 -9
93 -10 8 -2 44 -6 80 -10 223 -24 561 -97 697 -151 148 -59 254 -140 288 -220
58 -136 -29 -319 -247 -523 -32 -30 -58 -58 -58 -63 0 -6 222 -382 234 -395 1
-2 33 6 72 16 105 29 377 102 394 106 58 13 110 28 110 32 0 3 -30 61 -66 130
-36 68 -65 125 -63 126 37 24 168 136 213 182 204 208 259 398 168 583 -80
165 -330 337 -642 444 -188 64 -188 64 -780 73 -212 3 -416 8 -455 10 -38 2
-132 7 -208 10 -75 4 -148 10 -161 13 -14 4 -58 39 -98 77 -79 77 -166 151
-240 207 l-47 35 52 17 c162 54 367 96 542 112 39 3 72 8 74 10 5 5 412 -4
441 -9z m-2479 -164 c13 -16 12 -17 -3 -4 -10 7 -18 15 -18 17 0 8 8 3 21 -13z
m995 -157 c-3 -14 -19 -53 -35 -88 -16 -35 -43 -97 -61 -138 -18 -41 -59 -127
-92 -190 -34 -63 -84 -160 -113 -215 -29 -55 -87 -167 -130 -250 -43 -82 -99
-190 -125 -240 -26 -49 -80 -153 -120 -230 -83 -159 -163 -314 -249 -477 -69
-133 -139 -267 -264 -508 -49 -96 -94 -181 -100 -187 -15 -20 22 -16 120 12
48 14 88 26 88 28 2 3 82 154 165 312 35 66 84 161 110 210 26 50 76 144 110
210 70 135 144 276 200 380 21 39 70 133 110 210 74 142 142 272 210 400 20
39 72 138 115 220 101 192 113 214 155 272 39 55 54 40 22 -24 -32 -62 -36
-83 -17 -83 19 0 20 10 -21 -290 -13 -102 -27 -203 -30 -225 -3 -22 -7 -51 -9
-65 -6 -42 -14 -102 -20 -150 -2 -25 -9 -74 -14 -110 -6 -36 -17 -119 -26
-185 -29 -217 -55 -411 -60 -445 -2 -14 -9 -63 -15 -110 -6 -47 -13 -96 -15
-110 -2 -14 -7 -49 -10 -79 -4 -30 -8 -61 -10 -70 -2 -9 -7 -44 -11 -76 -4
-33 -8 -64 -9 -70 -1 -5 -3 -23 -4 -40 -3 -62 -7 -62 -161 1 -79 32 -150 57
-159 57 -16 -1 -514 -134 -744 -198 -64 -18 -119 -30 -121 -26 -18 31 -29 415
-15 531 4 36 10 94 14 130 19 184 95 462 182 665 88 207 250 473 384 635 74
89 263 279 335 338 l52 42 43 -15 c99 -35 161 -47 174 -33 7 7 45 77 85 156
66 130 101 179 86 118z m-426 -215 c0 -5 -21 -26 -47 -47 -78 -63 -253 -243
-334 -344 -185 -231 -332 -492 -429 -760 -62 -173 -120 -416 -134 -565 -4 -33
-9 -85 -12 -115 -12 -123 -6 -370 12 -501 4 -33 2 -37 -21 -41 -14 -3 -28 -2
-30 2 -3 4 -7 48 -10 96 -3 49 -8 105 -11 124 -6 34 -5 168 1 295 3 59 7 93
25 206 5 31 7 68 6 83 -2 14 0 24 3 21 9 -5 43 154 36 165 -3 5 0 10 5 12 6 2
12 14 14 28 2 14 9 38 15 54 6 16 9 31 6 34 -2 3 -1 10 3 16 5 6 16 34 26 61
50 142 160 377 223 478 13 20 21 37 18 37 -3 0 3 10 15 22 13 14 18 29 14 42
-4 15 -2 17 4 8 7 -10 13 -7 25 12 10 14 17 28 17 31 0 2 7 13 15 22 8 10 37
47 64 83 28 36 57 71 63 79 7 8 43 48 80 90 37 41 64 79 61 85 -3 5 -2 6 4 3
13 -8 56 37 46 48 -5 4 -2 5 5 1 8 -5 16 1 21 16 6 13 10 17 10 9 1 -9 15 -1
39 21 77 74 108 97 130 98 12 0 22 -4 22 -9z m-1090 -25 c0 -3 -4 -8 -10 -11
-5 -3 -10 -1 -10 4 0 6 5 11 10 11 6 0 10 -2 10 -4z m954 -12 c3 -8 2 -12 -4
-9 -6 3 -10 10 -10 16 0 14 7 11 14 -7z m3576 10 c0 -8 -19 -13 -24 -6 -3 5 1
9 9 9 8 0 15 -2 15 -3z m-2511 -223 c45 -54 125 -164 203 -276 137 -199 858
-1284 858 -1292 0 -4 -143 -46 -318 -92 -174 -46 -396 -105 -492 -131 -96 -26
-263 -71 -370 -99 -107 -29 -203 -55 -213 -58 -15 -4 -18 -1 -14 14 3 10 9 52
12 93 3 41 8 82 10 90 2 8 7 47 10 86 3 39 7 80 9 90 2 10 7 53 11 94 3 41 8
82 10 90 2 8 7 49 10 90 4 41 9 82 10 91 2 9 6 52 10 95 4 43 9 81 10 84 2 3
6 43 10 90 4 47 9 93 10 102 2 9 6 45 10 80 3 35 8 74 10 88 2 14 7 54 10 90
3 36 8 76 10 90 2 14 6 54 10 90 4 36 8 76 10 90 2 14 6 52 10 85 5 58 15 148
21 190 1 11 3 35 3 53 1 33 1 33 47 31 40 -3 49 -8 83 -48z m3360 -1581 c13
-162 16 -299 8 -320 -3 -8 -9 -58 -12 -110 -3 -52 -10 -122 -16 -154 -5 -33
-7 -66 -5 -73 3 -8 2 -12 -3 -9 -4 3 -14 -27 -21 -67 -17 -90 -13 -76 -45
-182 -15 -49 -28 -97 -29 -105 0 -8 -5 -18 -9 -21 -5 -4 -10 -18 -10 -33 -1
-14 -5 -26 -9 -26 -3 0 -12 -17 -19 -37 -6 -21 -31 -80 -55 -132 -24 -51 -41
-98 -37 -104 3 -5 2 -7 -4 -4 -12 8 -46 -61 -37 -75 4 -6 3 -8 -3 -5 -8 5 -43
-47 -104 -153 -13 -24 -17 -26 -33 -14 -17 12 -15 18 34 99 163 270 305 671
335 946 4 30 8 59 10 66 7 22 19 208 19 298 0 102 -12 324 -18 333 -2 4 -7 34
-11 66 -6 55 -5 61 17 77 l23 18 12 -72 c6 -40 16 -133 22 -207z m-688 80
c-72 -89 -131 -166 -131 -172 0 -23 106 23 470 203 160 80 237 113 242 105 3
-6 10 -38 13 -71 4 -33 9 -69 12 -80 12 -53 10 -438 -4 -550 -15 -127 -57
-332 -92 -451 -47 -165 -158 -418 -248 -569 -54 -90 -51 -88 -82 -64 -55 43
-171 151 -171 159 0 5 6 15 13 22 142 152 288 396 332 558 24 89 23 210 -2
276 -74 190 -270 305 -613 357 l-85 13 -3 134 c-2 74 -7 138 -10 141 -4 4
-106 -20 -227 -52 -121 -32 -248 -66 -282 -75 -52 -14 -62 -20 -61 -38 0 -11
0 -48 -1 -80 l-1 -59 -40 56 c-71 102 -81 88 103 137 89 23 191 50 227 60 36
10 153 42 260 70 107 29 265 72 350 95 85 23 157 41 159 39 1 -1 -56 -75 -128
-164z m-1261 -582 c291 -434 489 -710 592 -822 10 -11 18 -23 18 -26 0 -4 -28
-31 -61 -60 -34 -30 -67 -59 -73 -65 -53 -51 -334 -267 -531 -407 -66 -46
-208 -147 -315 -223 -179 -128 -307 -224 -354 -266 -17 -17 -16 -19 25 -49 90
-65 164 -90 271 -90 60 0 71 3 100 28 77 66 286 218 448 325 153 100 766 473
789 480 5 1 28 -16 52 -38 43 -39 153 -132 220 -187 l34 -27 -115 -113 c-332
-324 -719 -542 -1164 -654 -98 -25 -236 -54 -236 -49 0 1 7 17 17 35 9 18 17
54 17 78 1 49 -2 51 -83 67 -129 24 -307 78 -374 111 -56 29 -1177 776 -1173
783 2 3 7 44 11 91 3 47 8 92 10 100 2 8 6 42 10 75 3 33 9 98 15 145 12 112
31 277 35 315 2 17 6 62 9 100 4 39 9 84 11 100 2 17 7 55 10 85 4 30 7 56 8
57 2 2 77 22 532 144 105 28 228 61 275 74 47 13 173 46 280 75 107 29 256 69
330 90 74 21 137 38 140 39 3 0 102 -144 220 -321z m719 -155 c105 -61 160
-136 165 -226 8 -111 0 -107 -147 92 -76 100 -137 185 -137 187 0 7 71 -25
119 -53z m-3965 -104 c22 -20 -5 -19 -31 1 -28 22 -28 22 -3 15 14 -4 29 -11
34 -16z m258 -170 l210 -141 102 26 c55 14 181 48 280 75 169 46 180 51 221
91 l43 42 -8 -44 c-4 -23 -11 -70 -14 -103 -4 -33 -11 -87 -16 -120 -5 -33
-11 -78 -14 -100 -26 -189 -35 -247 -38 -250 -6 -6 -976 639 -982 653 -3 6 -3
12 0 12 4 0 101 -63 216 -141z m-181 -116 c13 -16 12 -17 -3 -4 -10 7 -18 15
-18 17 0 8 8 3 21 -13z m498 -327 c374 -248 421 -282 421 -305 0 -14 -7 -68
-15 -120 -17 -105 -60 -216 -110 -286 l-33 -48 -100 99 c-132 132 -237 258
-339 412 -88 132 -249 444 -238 462 3 5 14 10 23 10 12 0 4 11 -23 36 -22 19
-33 32 -24 27 9 -4 206 -134 438 -287z m-439 192 c0 -28 155 -323 228 -433
120 -184 210 -293 366 -447 72 -70 87 -91 78 -100 -10 -10 -45 20 -170 147
-86 88 -160 159 -164 157 -4 -1 -5 4 -3 11 3 6 -12 30 -33 52 -20 22 -39 45
-41 50 -1 6 -8 9 -15 7 -6 -2 -8 0 -4 3 11 11 -11 47 -24 39 -7 -4 -8 -3 -4 4
4 7 -6 31 -22 54 -16 24 -49 75 -72 113 -23 39 -48 73 -54 77 -6 4 -8 8 -4 8
4 0 -20 55 -52 123 -33 67 -60 128 -60 135 0 6 11 12 25 12 14 0 25 -5 25 -12z
m-595 -538 c-3 -5 -12 -10 -18 -10 -7 0 -6 4 3 10 19 12 23 12 15 0z m630
-168 c-3 -3 -11 0 -18 7 -9 10 -8 11 6 5 10 -3 15 -9 12 -12z m1292 -74 c18
-11 31 -24 28 -28 -10 -16 -43 2 -81 43 -35 36 -36 39 -10 23 16 -10 44 -27
63 -38z m3043 3 c0 -6 -5 -13 -10 -16 -6 -4 -7 -12 -4 -18 4 -7 3 -8 -1 -4 -5
4 -46 -29 -92 -75 -69 -69 -80 -84 -70 -97 11 -14 10 -14 -6 -2 -16 13 -21 11
-50 -15 -44 -41 -109 -91 -194 -151 -40 -28 -70 -52 -68 -55 3 -3 -1 -5 -7 -5
-7 0 -49 -22 -93 -48 -44 -27 -128 -71 -187 -100 -59 -29 -104 -56 -100 -60 4
-5 2 -5 -5 -1 -7 4 -43 -6 -80 -22 -37 -16 -80 -32 -95 -36 -16 -3 -28 -11
-28 -17 0 -6 -4 -8 -9 -5 -7 5 -41 -4 -151 -39 -3 -1 -24 -5 -48 -10 -23 -4
-45 -11 -48 -16 -2 -4 -11 -6 -19 -2 -8 3 -15 0 -15 -7 0 -6 -4 -9 -9 -6 -5 3
-31 1 -57 -4 -27 -6 -74 -13 -104 -16 -30 -3 -59 -9 -65 -14 -5 -4 -19 -4 -30
0 -18 6 -16 8 10 14 38 8 63 13 106 20 256 41 510 126 754 250 249 128 455
276 640 463 89 90 135 122 135 94z m-2470 -385 c456 -303 672 -462 582 -429
-9 4 -80 46 -156 95 l-140 89 -80 -80 -81 -80 -79 15 c-332 58 -666 194 -964
391 l-116 76 165 44 c90 24 236 64 324 87 l160 43 35 -20 c19 -12 177 -115
350 -231z m-941 -14 c292 -196 652 -344 961 -398 25 -4 48 -9 53 -10 4 -1 14
-2 23 -3 8 0 13 -5 10 -10 -3 -5 -39 -2 -82 6 -42 8 -83 12 -91 9 -8 -3 -11
-1 -8 4 6 9 -4 12 -52 14 -10 1 -20 4 -23 8 -3 3 -18 8 -35 11 -16 3 -49 12
-73 21 -24 8 -53 17 -65 19 -12 2 -33 9 -47 15 -14 6 -56 23 -95 38 -38 15
-112 46 -164 70 -51 24 -98 41 -104 37 -5 -3 -7 -1 -4 4 8 13 -20 26 -35 16
-7 -3 -8 -1 -4 5 7 11 -7 17 -29 12 -5 -1 -7 2 -3 6 11 10 -90 66 -104 58 -6
-4 -8 -3 -5 3 8 13 -40 46 -54 38 -5 -4 -8 -1 -7 7 2 7 -5 12 -14 12 -10 -1
-16 3 -15 10 1 6 -6 10 -15 10 -10 -1 -15 2 -13 7 3 4 -11 19 -32 33 -33 23
-35 26 -15 26 13 0 76 -35 141 -78z m4036 -1 c3 -5 2 -12 -3 -15 -5 -3 -9 1
-9 9 0 17 3 19 12 6z m-957 -326 c-3 -3 -9 2 -12 12 -6 14 -5 15 5 6 7 -7 10
-15 7 -18z m-2873 5 c-3 -5 -12 -10 -18 -10 -7 0 -6 4 3 10 19 12 23 12 15 0z
m1397 -127 c-12 -2 -20 -8 -17 -13 3 -4 -4 -6 -15 -3 -34 9 -22 23 18 22 23
-1 29 -3 14 -6z m91 0 c-13 -2 -33 -2 -45 0 -13 2 -3 4 22 4 25 0 35 -2 23 -4z"/>
<path d="M6640 1471 c0 -5 5 -13 10 -16 6 -3 10 -2 10 4 0 5 -4 13 -10 16 -5
3 -10 2 -10 -4z"/>
</g>
</svg>
