<?xml version="1.0" encoding="UTF-8" standalone="no"?>
<!-- Created with Inkscape (http://www.inkscape.org/) -->

<svg
   version="1.1"
   id="svg2"
   width="341.33334"
   height="341.33334"
   viewBox="0 0 341.33334 341.33334"
   sodipodi:docname="icon_commands.svg"
   inkscape:version="1.1.1 (3bf5ae0d25, 2021-09-20, custom)"
   xmlns:inkscape="http://www.inkscape.org/namespaces/inkscape"
   xmlns:sodipodi="http://sodipodi.sourceforge.net/DTD/sodipodi-0.dtd"
   xmlns="http://www.w3.org/2000/svg"
   xmlns:svg="http://www.w3.org/2000/svg">
  <defs
     id="defs6" />
  <sodipodi:namedview
     id="namedview4"
     pagecolor="#ffffff"
     bordercolor="#666666"
     borderopacity="1.0"
     inkscape:pageshadow="2"
     inkscape:pageopacity="0.0"
     inkscape:pagecheckerboard="0"
     showgrid="false"
     inkscape:zoom="1.2773437"
     inkscape:cx="96.293581"
     inkscape:cy="232.51377"
     inkscape:window-width="1920"
     inkscape:window-height="1080"
     inkscape:window-x="1920"
     inkscape:window-y="0"
     inkscape:window-maximized="1"
     inkscape:current-layer="g8" />
  <g
     inkscape:groupmode="layer"
     inkscape:label="Image"
     id="g8">
    <path
       style="fill:#FFFFFF;fill-opacity:0.5;stroke-width:1.33333"
       d="M 5.6019502,306.47174 1.7045143,302.57431 V 171.70251 40.830715 l 3.8974359,-3.897436 3.897436,-3.897436 H 172.37118 335.24298 l 3.89743,3.897436 3.89744,3.897436 v 130.871795 130.8718 l -3.89744,3.89743 -3.89743,3.89744 H 172.37118 9.4993862 Z M 321.70452,203.70251 V 118.36918 H 172.37118 23.037849 v 85.33333 85.33334 H 172.37118 321.70452 Z m -172.10257,70.76923 c -2.1436,-2.14359 -3.8804,-4.69359 -3.85958,-5.66667 0.0208,-0.97306 7.48541,-31.46923 16.58798,-67.76923 14.80812,-59.05308 16.91708,-66.31577 20.0365,-69 1.9175,-1.65 4.69906,-3 6.18125,-3 3.02989,0 10.51008,6.84482 10.45189,9.56411 -0.0208,0.97307 -7.48541,31.46923 -16.58798,67.76923 -14.80812,59.05308 -16.91708,66.31577 -20.0365,69 -4.67097,4.01935 -8.09752,3.77861 -12.77356,-0.89744 z M 90.736775,237.33692 C 67.652828,214.25298 60.371183,206.18747 60.371183,203.70251 c 0,-4.55156 59.264037,-64 63.801487,-64 3.94349,0 10.86518,6.89139 10.86518,10.81761 0,2.14038 -7.28422,10.34371 -24.95391,28.10256 l -24.953891,25.07983 24.953891,25.07983 c 17.66969,17.75885 24.95391,25.96218 24.95391,28.10256 0,3.92623 -6.92169,10.81761 -10.86518,10.81761 -2.22609,0 -11.41971,-8.3494 -33.435895,-30.36559 z m 122.865175,26.46815 c -2.1436,-2.14358 -3.89744,-5.25766 -3.89744,-6.92017 0,-2.14038 7.28422,-10.34371 24.95391,-28.10256 l 24.9539,-25.07983 -24.9539,-25.07983 c -17.66969,-17.75885 -24.95391,-25.96218 -24.95391,-28.10256 0,-3.92622 6.92168,-10.81761 10.86518,-10.81761 4.53745,0 63.80149,59.44844 63.80149,64 0,4.55156 -59.26404,64 -63.80149,64 -1.68867,0 -4.82415,-1.75384 -6.96774,-3.89744 z M 321.70452,75.702508 V 54.369176 H 172.37118 23.037849 v 21.333332 21.33334 H 172.37118 321.70452 Z m -273.435901,6.76923 c -2.14359,-2.14359 -3.897436,-5.18974 -3.897436,-6.76923 0,-3.71156 6.955104,-10.66667 10.666666,-10.66667 3.711563,0 10.666667,6.95511 10.666667,10.66667 0,1.57949 -1.753846,4.62564 -3.897436,6.76923 -2.143589,2.14359 -5.189744,3.89744 -6.769231,3.89744 -1.579486,0 -4.625641,-1.75385 -6.76923,-3.89744 z m 42.666667,0 c -2.143589,-2.14359 -3.897436,-5.18974 -3.897436,-6.76923 0,-3.71156 6.955104,-10.66667 10.666667,-10.66667 3.711563,0 10.666663,6.95511 10.666663,10.66667 0,3.71156 -6.9551,10.66667 -10.666663,10.66667 -1.579487,0 -4.625642,-1.75385 -6.769231,-3.89744 z m 42.666664,0 c -2.14359,-2.14359 -3.89744,-5.18974 -3.89744,-6.76923 0,-3.71156 6.95511,-10.66667 10.66667,-10.66667 3.71156,0 10.66667,6.95511 10.66667,10.66667 0,3.71156 -6.95511,10.66667 -10.66667,10.66667 -1.57949,0 -4.62564,-1.75385 -6.76923,-3.89744 z"
       id="path845" />
  </g>
</svg>
