<?xml version="1.0" encoding="UTF-8" standalone="no"?>
<!-- Created with Inkscape (http://www.inkscape.org/) -->

<svg
   version="1.1"
   id="svg2"
   width="341.33334"
   height="341.33334"
   viewBox="0 0 341.33334 341.33334"
   sodipodi:docname="icon_warning.svg"
   inkscape:version="1.1.1 (3bf5ae0d25, 2021-09-20, custom)"
   xmlns:inkscape="http://www.inkscape.org/namespaces/inkscape"
   xmlns:sodipodi="http://sodipodi.sourceforge.net/DTD/sodipodi-0.dtd"
   xmlns="http://www.w3.org/2000/svg"
   xmlns:svg="http://www.w3.org/2000/svg">
  <defs
     id="defs6" />
  <sodipodi:namedview
     id="namedview4"
     pagecolor="#ffffff"
     bordercolor="#666666"
     borderopacity="1.0"
     inkscape:pageshadow="2"
     inkscape:pageopacity="0.0"
     inkscape:pagecheckerboard="0"
     showgrid="false"
     inkscape:zoom="2.5546874"
     inkscape:cx="170.66667"
     inkscape:cy="170.66667"
     inkscape:window-width="1920"
     inkscape:window-height="1080"
     inkscape:window-x="1920"
     inkscape:window-y="0"
     inkscape:window-maximized="1"
     inkscape:current-layer="g8" />
  <g
     inkscape:groupmode="layer"
     inkscape:label="Image"
     id="g8">
    <g
       id="g827"
       transform="translate(-0.79548932,0.01306889)"
       style="fill:#FFFFFF">
      <path
         style="fill:#FFFFFF;fill-opacity:0.5;stroke-width:1.33333"
         d="m 154.49659,243 c -1.65849,-2.11474 -1.61133,-2.1619 0.50341,-0.50341 1.28334,1.00647 2.33334,2.05647 2.33334,2.33333 0,1.09739 -1.09492,0.39108 -2.83675,-1.82992 z M 184,244.82992 c 0,-0.27686 1.05,-1.32686 2.33334,-2.33333 2.11474,-1.65849 2.1619,-1.61133 0.50341,0.50341 C 185.09492,245.221 184,245.92731 184,244.82992 Z m -35.74006,-17.49658 c 0.0272,-2.2 0.326,-2.93859 0.66405,-1.6413 0.33805,1.2973 0.31583,3.0973 -0.0493,4 -0.36524,0.90271 -0.64183,-0.1587 -0.61466,-2.3587 z M 192.21052,228 c 0,-1.83333 0.30264,-2.58333 0.67252,-1.66666 0.36988,0.91666 0.36988,2.41666 0,3.33333 -0.36988,0.91667 -0.67252,0.16667 -0.67252,-1.66667 z M 150.66667,119.4966 c 0,-0.27688 1.05,-1.32688 2.33333,-2.33334 2.11475,-1.65849 2.16191,-1.61133 0.50342,0.50341 -1.74183,2.221 -2.83675,2.9273 -2.83675,1.82993 z m 37.16325,-1.82993 c -1.65849,-2.11474 -1.61133,-2.1619 0.50342,-0.50341 2.221,1.74183 2.9273,2.83674 1.82992,2.83674 -0.27687,0 -1.32687,-1.05 -2.33334,-2.33333 z M 168.33334,49.747566 c 1.28333,-0.335369 3.38333,-0.335369 4.66666,0 1.28334,0.335371 0.23334,0.609764 -2.33333,0.609764 -2.56667,0 -3.61667,-0.274393 -2.33333,-0.609764 z"
         id="path833" />
      <path
         style="fill:#FFFFFF;fill-opacity:0.5;stroke-width:1.33333"
         d="m 43.829928,283.00001 c -1.658495,-2.11475 -1.611335,-2.16191 0.503406,-0.50342 1.283334,1.00647 2.333334,2.05647 2.333334,2.33334 0,1.09738 -1.094915,0.39108 -2.83674,-1.82992 z m 250.836742,1.82992 c 0,-0.27687 1.05,-1.32687 2.33334,-2.33334 2.11474,-1.65849 2.1619,-1.61133 0.50341,0.50342 -1.74183,2.221 -2.83675,2.9273 -2.83675,1.82992 z M 30.77193,253.8889 c 0.06397,-1.55327 0.379921,-1.8692 0.805556,-0.80556 0.385161,0.96249 0.337792,2.11249 -0.105267,2.55556 -0.443056,0.44305 -0.758188,-0.34446 -0.700293,-1.75 z m 278.66668,-6.66667 c 0.064,-1.55327 0.37992,-1.8692 0.80554,-0.80556 0.38516,0.96249 0.3378,2.11249 -0.1052,2.55556 -0.44306,0.44305 -0.75818,-0.34445 -0.70029,-1.75 z M 169,109.78363 c 0.91667,-0.36989 2.41667,-0.36989 3.33334,0 0.91666,0.36988 0.16666,0.67251 -1.66667,0.67251 -1.83333,0 -2.58333,-0.30263 -1.66667,-0.67251 z"
         id="path831" />
      <path
         style="fill:#FFFFFF;fill-opacity:0.5;stroke-width:1.33333"
         d="M 73.390225,297.14865 C 57.890496,294.57913 42.882776,284.2669 36.600486,271.86941 30.30543,259.44671 30.051931,241.80272 35.97609,228.41018 37.360394,225.28074 58.719476,188.95822 83.440718,147.69347 132.14757,66.391911 135.35418,61.948997 150.42406,54.884705 c 6.53926,-3.065407 9.30922,-3.551371 20.24261,-3.551371 10.93339,0 13.70335,0.485964 20.24261,3.551371 15.06988,7.064292 18.2765,11.507206 66.98334,92.808765 24.72124,41.26475 46.10819,77.65024 47.52653,80.85665 3.49186,7.89391 5.07158,20.66423 3.66543,29.63107 -3.1876,20.32712 -19.54605,35.39526 -42.41791,39.0721 -10.75176,1.72844 -182.780895,1.6353 -193.276445,-0.10467 z M 183.6008,245.46923 c 5.56194,-4.02904 9.73254,-11.91751 9.73254,-18.40857 0,-1.95363 -1.25763,-6.14998 -2.79474,-9.3252 -7.89514,-16.30919 -31.84872,-16.30919 -39.74386,0 -3.3692,6.95982 -3.50359,11.10565 -0.59559,18.37346 3.33855,8.34384 10.89224,13.22442 20.46752,13.22442 6.26897,0 8.53405,-0.6767 12.93413,-3.86411 z M 173.85244,193 c 3.73467,-5.85394 21.22203,-51.08612 21.83079,-56.46666 1.27963,-11.31014 -7.15165,-22.54979 -19.34989,-25.79516 -15.60675,-4.15221 -32.46772,10.02268 -30.68323,25.79516 0.60876,5.38054 18.09612,50.61272 21.83079,56.46666 1.05265,1.65 2.48625,3 3.18577,3 0.69952,0 2.13312,-1.35 3.18577,-3 z"
         id="path829" />
    </g>
  </g>
</svg>
