<?xml version="1.0" encoding="UTF-8" standalone="no"?>
<!-- Created with Inkscape (http://www.inkscape.org/) -->

<svg
   version="1.1"
   id="svg2"
   width="341.33334"
   height="341.33334"
   viewBox="0 0 341.33334 341.33334"
   sodipodi:docname="icon_discord.svg"
   inkscape:version="1.1.1 (3bf5ae0d25, 2021-09-20, custom)"
   xmlns:inkscape="http://www.inkscape.org/namespaces/inkscape"
   xmlns:sodipodi="http://sodipodi.sourceforge.net/DTD/sodipodi-0.dtd"
   xmlns="http://www.w3.org/2000/svg"
   xmlns:svg="http://www.w3.org/2000/svg">
  <defs
     id="defs6" />
  <sodipodi:namedview
     id="namedview4"
     pagecolor="#ffffff"
     bordercolor="#666666"
     borderopacity="1.0"
     inkscape:pageshadow="2"
     inkscape:pageopacity="0.0"
     inkscape:pagecheckerboard="0"
     showgrid="false"
     inkscape:zoom="2.5546874"
     inkscape:cx="170.66667"
     inkscape:cy="170.66667"
     inkscape:window-width="1920"
     inkscape:window-height="1080"
     inkscape:window-x="1920"
     inkscape:window-y="0"
     inkscape:window-maximized="1"
     inkscape:current-layer="g8" />
  <g
     inkscape:groupmode="layer"
     inkscape:label="Image"
     id="g8">
    <g
       id="g827"
       transform="translate(0.36821476,0.26550551)"
       style="fill:#FFFFFF">
      <path
         style="fill:#FFFFFF;fill-opacity:0.5;stroke-width:1.33333"
         d="m 46.496594,288.33334 c -1.658494,-2.11475 -1.611334,-2.16191 0.503407,-0.50341 1.283333,1.00646 2.333333,2.05646 2.333333,2.33333 0,1.09739 -1.094914,0.39108 -2.83674,-1.82992 z"
         id="path837" />
      <path
         style="fill:#FFFFFF;fill-opacity:0.5;stroke-width:1.33333"
         d="m 289.33334,292.82993 c 0,-0.27687 1.05,-1.32687 2.33333,-2.33334 2.11475,-1.65849 2.16191,-1.61133 0.50342,0.50342 -1.74183,2.221 -2.83675,2.9273 -2.83675,1.82992 z M 75.829928,229.66667 c -1.658495,-2.11475 -1.611335,-2.16191 0.503407,-0.50341 1.283333,1.00646 2.333333,2.05646 2.333333,2.33333 0,1.09739 -1.094914,0.39108 -2.83674,-1.82992 z m 196.170082,-6.33333 c 2.4877,-2.56667 4.8231,-4.66667 5.18977,-4.66667 0.36667,0 -1.36873,2.1 -3.85644,4.66667 C 270.84563,225.9 268.51023,228 268.14357,228 c -0.36667,0 1.36873,-2.1 3.85644,-4.66666 z M 67.899087,223 l -3.232419,-3.66666 3.666667,3.23241 c 3.427052,3.02119 4.278117,4.10092 3.232418,4.10092 -0.238836,0 -1.888836,-1.65 -3.666666,-3.66667 z m 38.597513,0 c -1.6585,-2.11474 -1.61134,-2.1619 0.5034,-0.50341 1.28334,1.00647 2.33334,2.05647 2.33334,2.33333 0,1.09739 -1.09492,0.39108 -2.83674,-1.82992 z M 232,224.82992 c 0,-0.27686 1.05,-1.32686 2.33334,-2.33333 2.11474,-1.65849 2.1619,-1.61133 0.50341,0.50341 C 233.09492,225.221 232,225.92731 232,224.82992 Z m 8.47188,-7.03864 c 2.08355,-2.3148 3.72972,-4.5648 3.65819,-5 -0.0716,-0.4352 0.25285,-0.74004 0.72087,-0.6774 0.468,0.0627 1.35881,-0.68736 1.97957,-1.66666 0.62076,-0.97931 1.13785,-1.15232 1.14908,-0.38448 0.0107,0.76784 -2.52577,3.76784 -5.63777,6.66666 -3.71162,3.45738 -4.35492,3.82268 -1.86994,1.06188 z M 97.594891,215.60319 c -4.306361,-4.44304 -5.457365,-6.89068 -2.828222,-6.01429 0.788333,0.26277 1.329802,0.96885 1.203265,1.56905 -0.126533,0.6002 1.440717,2.8352 3.482788,4.96667 2.042068,2.13146 3.418298,3.87538 3.058288,3.87538 -0.36001,0 -2.572263,-1.97856 -4.916119,-4.39681 z m 94.235029,-19.26985 c -1.65849,-2.11475 -1.61133,-2.16191 0.50342,-0.50342 1.28333,1.00647 2.33333,2.05647 2.33333,2.33334 0,1.09738 -1.09492,0.39108 -2.83675,-1.82992 z M 126.66667,166 c 1.72233,-1.83333 3.4315,-3.33333 3.79817,-3.33333 0.36667,0 -0.74251,1.5 -2.46484,3.33333 -1.72232,1.83334 -3.4315,3.33334 -3.79817,3.33334 -0.36666,0 0.74251,-1.5 2.46484,-3.33334 z M 213.23242,165.66667 210,162 l 3.66667,3.23242 c 3.42705,3.02118 4.27812,4.10092 3.23241,4.10092 -0.23882,0 -1.88882,-1.65 -3.66666,-3.66667 z M 149.87332,165 l -2.53998,-3 3,2.53999 c 2.81925,2.38696 3.60698,3.46001 2.53998,3.46001 -0.25301,0 -1.60301,-1.35 -3,-3 z M 190,165.33334 c 1.32732,-1.46667 2.71331,-2.66667 3.07998,-2.66667 0.36666,0 -0.41932,1.2 -1.74664,2.66667 C 190.00602,166.8 188.62003,168 188.25336,168 187.8867,168 188.67268,166.8 190,165.33334 Z M 98.771931,121.87332 c -0.05789,-0.80301 1.234399,-2.60301 2.871759,-4 1.82407,-1.55629 2.34493,-1.71791 1.3449,-0.41731 -0.89766,1.16748 -1.18732,2.61367 -0.64369,3.21377 0.54364,0.6001 0.28968,0.69116 -0.56435,0.20235 -0.85403,-0.48881 -1.856665,-0.135 -2.228071,0.78623 -0.386238,0.95803 -0.720341,1.05004 -0.780548,0.21496 z m 140.564309,-1.654 c 0.36827,-0.36827 -0.37744,-1.91827 -1.65712,-3.44445 -1.69473,-2.02116 -1.33336,-1.89688 1.33042,0.45755 4.28132,3.78412 4.22346,3.65647 1.65713,3.65647 -1.1,0 -1.69869,-0.30131 -1.33043,-0.66957 z M 92.000002,114.16326 c 0,-0.27687 1.05,-1.32687 2.333333,-2.33333 2.114742,-1.6585 2.161902,-1.61134 0.503407,0.50341 -1.741826,2.22099 -2.83674,2.9273 -2.83674,1.82992 z m 139.829918,-1.82992 c -1.65849,-2.11475 -1.61133,-2.16191 0.50342,-0.50341 2.221,1.74182 2.9273,2.83674 1.82992,2.83674 -0.27687,0 -1.32687,-1.05 -2.33334,-2.33333 z m 14.66667,0 c -1.65849,-2.11475 -1.61133,-2.16191 0.50341,-0.50341 2.221,1.74182 2.92731,2.83674 1.82992,2.83674 -0.27686,0 -1.32686,-1.05 -2.33333,-2.33333 z m 44.71007,-62.000006 -2.53999,-3 3,2.539984 c 2.81926,2.386958 3.60699,3.460016 2.53999,3.460016 -0.25301,0 -1.60301,-1.35 -3,-3 z m -243.206659,1.16326 c 0,-0.276874 1.05,-1.326874 2.333333,-2.333333 2.114742,-1.658495 2.161902,-1.611335 0.503407,0.503407 -1.741825,2.220997 -2.83674,2.927305 -2.83674,1.829926 z"
         id="path835" />
      <path
         style="fill:#FFFFFF;fill-opacity:0.5;stroke-width:1.33333"
         d="m 119.75,247.08919 c 0.9625,-0.38516 2.1125,-0.3378 2.55556,0.1052 0.44305,0.44305 -0.34445,0.75819 -1.75,0.70029 -1.55326,-0.064 -1.8692,-0.37992 -0.80556,-0.80554 z m 100,0 c 0.9625,-0.38516 2.1125,-0.3378 2.55556,0.1052 0.44306,0.44305 -0.34445,0.75819 -1.75,0.70029 -1.55326,-0.064 -1.8692,-0.37992 -0.80556,-0.80554 z m -64,-14.66667 c 0.9625,-0.38516 2.1125,-0.3378 2.55556,0.1052 0.44306,0.44306 -0.34445,0.75819 -1.75,0.7003 -1.55326,-0.064 -1.8692,-0.37992 -0.80556,-0.80555 z m 27.91667,0.0277 c 0.91667,-0.36988 2.41667,-0.36988 3.33333,0 0.91667,0.36988 0.16667,0.67252 -1.66666,0.67252 -1.83334,0 -2.58334,-0.30264 -1.66667,-0.67252 z M 64.210528,216 c 0,-1.83333 0.302631,-2.58333 0.672515,-1.66666 0.369882,0.91666 0.369882,2.41666 0,3.33333 -0.369884,0.91667 -0.672515,0.16667 -0.672515,-1.66667 z m 212.000002,-2.66666 c 0,-1.83334 0.30264,-2.58334 0.67252,-1.66667 0.36988,0.91667 0.36988,2.41667 0,3.33333 -0.36988,0.91667 -0.67252,0.16667 -0.67252,-1.66666 z M 65.438597,201.8889 c 0.06397,-1.55327 0.379922,-1.8692 0.805556,-0.80556 0.385162,0.96249 0.337792,2.11249 -0.105266,2.55556 -0.443056,0.44305 -0.758188,-0.34446 -0.700294,-1.75 z M 121.64267,180 c 0,-2.56666 0.2744,-3.61666 0.60977,-2.33333 0.33537,1.28333 0.33537,3.38333 0,4.66667 -0.33537,1.28333 -0.60977,0.23333 -0.60977,-2.33334 z m 97.28393,0.66667 c 0.0272,-2.2 0.326,-2.93859 0.66406,-1.64129 0.33805,1.29729 0.31582,3.09729 -0.0495,4 -0.36524,0.9027 -0.64183,-0.15871 -0.61465,-2.35871 z m -80.50993,-20.24415 c 0.96249,-0.38516 2.11249,-0.3378 2.55556,0.1052 0.44305,0.44307 -0.34445,0.75819 -1.75,0.7003 -1.55327,-0.064 -1.8692,-0.37992 -0.80556,-0.80555 z m 62.66667,0 c 0.96249,-0.38516 2.11249,-0.3378 2.55556,0.1052 0.44305,0.44307 -0.34446,0.75819 -1.75,0.7003 -1.55327,-0.064 -1.8692,-0.37992 -0.80556,-0.80555 z M 165.0447,103.01546 c 3.87458,-0.27019 9.87458,-0.26735 13.33333,0.006 3.45875,0.27366 0.28864,0.49472 -7.04469,0.49125 -7.33334,-0.003 -10.16323,-0.22737 -6.28864,-0.49756 z"
         id="path833" />
      <path
         style="fill:#FFFFFF;fill-opacity:0.5;stroke-width:1.33333"
         d="m 115.75,247.08919 c 0.9625,-0.38516 2.1125,-0.3378 2.55556,0.1052 0.44305,0.44305 -0.34445,0.75819 -1.75,0.70029 -1.55326,-0.064 -1.8692,-0.37992 -0.80556,-0.80554 z m 108,0 c 0.9625,-0.38516 2.1125,-0.3378 2.55556,0.1052 0.44306,0.44305 -0.34445,0.75819 -1.75,0.70029 -1.55326,-0.064 -1.8692,-0.37992 -0.80556,-0.80554 z m -114.66666,-1.33333 c 0.9625,-0.38516 2.1125,-0.3378 2.55555,0.1052 0.44306,0.44305 -0.34444,0.75818 -1.75,0.70029 -1.55326,-0.064 -1.8692,-0.37992 -0.80555,-0.80555 z M 165,233.69039 c 3.11667,-0.28071 8.21667,-0.28071 11.33334,0 3.11666,0.28072 0.56666,0.5104 -5.66667,0.5104 -6.23333,0 -8.78333,-0.22968 -5.66667,-0.5104 z m -15.30796,-1.28104 c 1.2973,-0.33805 3.0973,-0.31583 4,0.0495 0.90271,0.36524 -0.1587,0.64182 -2.3587,0.61465 -2.2,-0.0272 -2.93859,-0.326 -1.6413,-0.66405 z M 189,232.45028 c 0.91667,-0.36988 2.41667,-0.36988 3.33334,0 0.91666,0.36988 0.16666,0.67252 -1.66667,0.67252 -1.83333,0 -2.58333,-0.30264 -1.66667,-0.67252 z m -47.91666,-1.3611 c 0.96249,-0.38516 2.11249,-0.3378 2.55556,0.1052 0.44305,0.44305 -0.34446,0.75818 -1.75,0.70029 -1.55327,-0.064 -1.8692,-0.37992 -0.80556,-0.80555 z m 57.33333,0 c 0.96249,-0.38516 2.11249,-0.3378 2.55556,0.1052 0.44305,0.44305 -0.34445,0.75818 -1.75,0.70029 -1.55327,-0.064 -1.8692,-0.37992 -0.80556,-0.80555 z M 64.309339,209.33334 c 0,-2.56667 0.274393,-3.61667 0.609764,-2.33334 0.335369,1.28334 0.335369,3.38334 0,4.66667 -0.335371,1.28333 -0.609764,0.23333 -0.609764,-2.33333 z m 212.000001,-2.66667 c 0,-2.56667 0.2744,-3.61667 0.60977,-2.33333 0.33536,1.28333 0.33536,3.38333 0,4.66666 -0.33537,1.28334 -0.60977,0.23334 -0.60977,-2.33333 z M 65.543861,197.33334 c 0,-1.83334 0.302631,-2.58334 0.672515,-1.66667 0.369883,0.91667 0.369883,2.41667 0,3.33333 -0.369884,0.91667 -0.672515,0.16667 -0.672515,-1.66666 z m 72.148179,1.74268 c 1.2973,-0.33806 3.0973,-0.31583 4,0.0495 0.90271,0.36524 -0.1587,0.64183 -2.3587,0.61466 -2.2,-0.0272 -2.93859,-0.326 -1.6413,-0.66406 z m 62.66667,0 c 1.29729,-0.33806 3.09729,-0.31583 4,0.0495 0.90271,0.36524 -0.15871,0.64183 -2.35871,0.61466 -2.2,-0.0272 -2.93858,-0.326 -1.64129,-0.66406 z M 274.87719,196 c 0,-1.83333 0.30264,-2.58333 0.67252,-1.66666 0.36988,0.91666 0.36988,2.41666 0,3.33333 -0.36988,0.91667 -0.67252,0.16667 -0.67252,-1.66667 z M 66.877195,188 c 0,-1.83333 0.30263,-2.58333 0.672514,-1.66666 0.369883,0.91666 0.369883,2.41666 0,3.33333 -0.369884,0.91667 -0.672514,0.16667 -0.672514,-1.66667 z m 206.666665,-1.33333 c 0,-1.83333 0.30264,-2.58333 0.67252,-1.66667 0.36988,0.91667 0.36988,2.41667 0,3.33334 -0.36988,0.91666 -0.67252,0.16666 -0.67252,-1.66667 z m -118.77192,-2.11111 c 0.064,-1.55326 0.37992,-1.8692 0.80554,-0.80556 0.38516,0.9625 0.3378,2.1125 -0.1052,2.55556 -0.44306,0.44306 -0.75818,-0.34445 -0.70029,-1.75 z M 185.54386,184 c 0,-1.83333 0.30264,-2.58333 0.67252,-1.66666 0.36988,0.91666 0.36988,2.41666 0,3.33333 -0.36988,0.91667 -0.67252,0.16667 -0.67252,-1.66667 z M 68.105264,180.55556 c 0.06397,-1.55326 0.379921,-1.8692 0.805556,-0.80556 0.385161,0.9625 0.337792,2.1125 -0.105267,2.55556 -0.443056,0.44306 -0.758188,-0.34445 -0.700293,-1.75 z m 204.000006,-1.33333 c 0.064,-1.55327 0.37992,-1.8692 0.80555,-0.80556 0.38516,0.96249 0.3378,2.11249 -0.1052,2.55556 -0.44307,0.44305 -0.75819,-0.34445 -0.70029,-1.75 z m -117.33333,-2.66667 c 0.064,-1.55326 0.37992,-1.8692 0.80554,-0.80556 0.38516,0.9625 0.3378,2.1125 -0.1052,2.55556 -0.44306,0.44306 -0.75818,-0.34445 -0.70029,-1.75 z m 30.66666,0 c 0.064,-1.55326 0.37992,-1.8692 0.80555,-0.80556 0.38516,0.9625 0.3378,2.1125 -0.1052,2.55556 -0.44307,0.44306 -0.75819,-0.34445 -0.70029,-1.75 z M 69.438597,173.8889 c 0.06397,-1.55327 0.379922,-1.8692 0.805556,-0.80556 0.385162,0.96249 0.337792,2.11249 -0.105266,2.55556 -0.443056,0.44305 -0.758188,-0.34446 -0.700294,-1.75 z m 200.000013,-6.66667 c 0.064,-1.55327 0.37992,-1.8692 0.80554,-0.80556 0.38516,0.96249 0.3378,2.11249 -0.1052,2.55556 -0.44306,0.44305 -0.75818,-0.34445 -0.70029,-1.75 z M 143.75,104.42252 c 0.9625,-0.38516 2.1125,-0.3378 2.55556,0.10526 0.44306,0.44306 -0.34445,0.75819 -1.75,0.7003 -1.55326,-0.064 -1.8692,-0.37992 -0.80556,-0.80556 z m 52,0 c 0.9625,-0.38516 2.1125,-0.3378 2.55556,0.10526 0.44306,0.44306 -0.34445,0.75819 -1.75,0.7003 -1.55326,-0.064 -1.8692,-0.37992 -0.80556,-0.80556 z m -43.41666,-1.34162 c 1.28333,-0.33537 3.38333,-0.33537 4.66666,0 1.28334,0.33537 0.23334,0.60976 -2.33333,0.60976 -2.56667,0 -3.61667,-0.27439 -2.33333,-0.60976 z m 33.3587,-0.005 c 1.2973,-0.33806 3.0973,-0.31583 4,0.0494 0.90271,0.36523 -0.1587,0.64182 -2.3587,0.61465 -2.2,-0.0272 -2.93859,-0.326 -1.6413,-0.66406 z m -52.6087,-9.32012 c 0.96249,-0.385162 2.11249,-0.337792 2.55556,0.105266 0.44305,0.443057 -0.34446,0.758189 -1.75,0.700294 -1.55327,-0.06397 -1.86921,-0.379921 -0.80556,-0.805556 z m 66.5611,-0.587966 c 0.90446,-0.911224 1.98032,-1.320894 2.39084,-0.910378 0.41052,0.410516 -0.32948,1.156064 -1.64444,1.656772 -1.90026,0.72358 -2.05341,0.570428 -0.7464,-0.746394 z"
         id="path831" />
      <path
         style="fill:#FFFFFF;fill-opacity:0.5;stroke-width:1.33333"
         d="M 152,339.93386 C 109.92521,334.74342 73.148972,316.01199 45.335645,285.60595 -8.228885,227.04824 -14.439218,141.52812 30.017575,74.666668 38.618881,61.730608 61.907061,38.424849 74.666668,29.983873 99.568701,13.51021 124.3132,4.6364376 154.66667,1.2945929 c 37.58793,-4.1383414 78.11304,6.246208 112,28.6999691 12.8473,8.512712 36.15939,31.824818 44.67211,44.672106 22.32608,33.694262 32.65428,73.569772 28.75021,111.000002 -4.41538,42.33256 -19.69448,75.07358 -48.75565,104.4767 -24.88268,25.17545 -56.50864,42.05064 -89.72642,47.87677 -14.65929,2.57112 -37.22208,3.44155 -49.60692,1.91372 z m -21.44537,-95.79239 c 2.26162,-2.85553 4.11204,-5.56311 4.11204,-6.01681 0,-0.45372 -3.22616,-2.25171 -7.16924,-3.99552 -8.93981,-3.95362 -19.85444,-10.97526 -26.83076,-17.26088 L 95.333335,212.06296 106,218.06395 c 39.53304,22.24099 93.68358,21.61945 132.1043,-1.51629 5.66996,-3.41428 7.05408,-3.89276 5.15638,-1.78254 -4.47573,4.97698 -18.63948,14.45379 -27.83093,18.62139 -9.62972,4.36633 -9.67539,4.543 -3.16233,12.23383 l 3.06592,3.62033 10,-1.81456 c 18.39796,-3.33841 35.19412,-11.55933 46.76192,-22.88776 4.69901,-4.60176 6.01232,-6.79788 5.73316,-9.58707 -2.73173,-27.29388 -6.15944,-44.96132 -12.66053,-65.25642 -6.08102,-18.98368 -13.63923,-34.12352 -19.4101,-38.88036 -7.34688,-6.05592 -22.50637,-13.185057 -34.42061,-16.187161 -9.91775,-2.499037 -10.77656,-2.531224 -12.29062,-0.460628 -2.32856,3.184482 -1.41829,3.945042 8.63459,7.214549 9.90996,3.22302 22.79868,9.98665 28.98552,15.21075 3.6812,3.10837 3.19241,3.011 -6.13281,-1.22162 -5.57306,-2.52955 -15.47306,-6.24673 -22,-8.26039 -11.22096,-3.46184 -13.28303,-3.66121 -37.86719,-3.66121 -24.58416,0 -26.64623,0.19937 -37.86718,3.66121 -6.52695,2.01366 -16.27695,5.69864 -21.66667,8.18885 -5.38972,2.4902 -9.79948,4.3305 -9.79948,4.08956 0,-1.62743 19.68225,-13.21858 27.33333,-16.09697 16.39897,-6.169414 15.57748,-5.677233 14.09604,-8.445319 -1.19187,-2.227034 -2.10367,-2.359987 -8.38335,-1.222425 -10.07069,1.824305 -25.83952,8.277534 -34.37936,14.069384 -5.468033,3.70851 -8.42951,7.00846 -11.642906,12.97359 -10.10947,18.76653 -18.455078,46.44269 -22.285173,73.90332 -3.305544,23.69975 -3.237673,24.13479 4.907836,31.45829 14.067959,12.64831 31.513283,20.05951 54.574873,23.18472 0.48838,0.0661 2.73838,-2.21601 5,-5.07153 z m 0.47127,-47.09057 c -1.63575,-0.7894 -4.25915,-4.08986 -5.82978,-7.33435 -7.45075,-15.39119 3.84852,-31.68815 18.85355,-27.19252 17.50403,5.24433 13.63461,36.34627 -4.48531,36.0524 -3.0604,-0.0496 -6.9027,-0.73612 -8.53846,-1.52553 z m 61.1772,-1.75128 c -6.82123,-5.73968 -7.96312,-19.36248 -2.34211,-27.94124 4.79588,-7.31946 18.90391,-7.2251 24.7172,0.16532 3.44651,4.38152 4.77356,13.69377 2.80255,19.66602 -3.62026,10.96946 -16.75228,15.19938 -25.17764,8.1099 z"
         id="path829" />
    </g>
  </g>
</svg>
