<?xml version="1.0" encoding="UTF-8" standalone="no"?>
<!-- Created with Inkscape (http://www.inkscape.org/) -->

<svg
   version="1.1"
   id="svg2"
   width="341.33334"
   height="341.33334"
   viewBox="0 0 341.33334 341.33334"
   sodipodi:docname="icon_home.svg"
   inkscape:version="1.1.1 (3bf5ae0d25, 2021-09-20, custom)"
   xmlns:inkscape="http://www.inkscape.org/namespaces/inkscape"
   xmlns:sodipodi="http://sodipodi.sourceforge.net/DTD/sodipodi-0.dtd"
   xmlns="http://www.w3.org/2000/svg"
   xmlns:svg="http://www.w3.org/2000/svg">
  <defs
     id="defs6" />
  <sodipodi:namedview
     id="namedview4"
     pagecolor="#ffffff"
     bordercolor="#666666"
     borderopacity="1.0"
     inkscape:pageshadow="2"
     inkscape:pageopacity="0.0"
     inkscape:pagecheckerboard="0"
     showgrid="false"
     inkscape:zoom="2.5546874"
     inkscape:cx="170.66667"
     inkscape:cy="170.66667"
     inkscape:window-width="1920"
     inkscape:window-height="1080"
     inkscape:window-x="1920"
     inkscape:window-y="0"
     inkscape:window-maximized="1"
     inkscape:current-layer="g8" />
  <g
     inkscape:groupmode="layer"
     inkscape:label="Image"
     id="g8">
    <g
       id="g827"
       transform="translate(0.40128063,-0.71765094)"
       style="fill:#FFFFFF">
      <path
         style="fill:#FFFFFF;fill-opacity:0.5;stroke-width:1.33333"
         d="m 282.66667,294.16326 c 0,-0.27687 1.05,-1.32687 2.33334,-2.33333 2.11474,-1.6585 2.1619,-1.61134 0.50341,0.50341 -1.74183,2.221 -2.83675,2.92731 -2.83675,1.82992 z m 10.66667,-10.66667 c 0,-0.27686 1.05,-1.32686 2.33333,-2.33333 2.11475,-1.65849 2.16191,-1.61133 0.50342,0.50341 -1.74183,2.221 -2.83675,2.92731 -2.83675,1.82992 z m -224.000005,-136 c 0,-0.27687 1.05,-1.32687 2.333333,-2.33333 2.114741,-1.6585 2.161901,-1.61134 0.503407,0.50341 -1.741826,2.221 -2.83674,2.92731 -2.83674,1.82992 z m 195.206655,-5.16325 -2.53998,-3 3,2.53998 c 1.65,1.39699 3,2.74699 3,3 0,1.067 -1.07306,0.27927 -3.46002,-2.53998 z M 90.666668,127.4966 c 0,-0.27688 1.05,-1.32688 2.333334,-2.33334 2.114741,-1.65849 2.161901,-1.61133 0.503406,0.50341 -1.741825,2.221 -2.83674,2.9273 -2.83674,1.82993 z M 112,107.4966 c 0,-0.27688 1.05,-1.32688 2.33334,-2.33334 2.11474,-1.65849 2.1619,-1.61133 0.5034,0.50341 -1.74182,2.221 -2.83674,2.9273 -2.83674,1.82993 z m 22,-20.829932 c 1.32732,-1.466666 2.71331,-2.666666 3.07998,-2.666666 0.36666,0 -0.41932,1.2 -1.74664,2.666666 -1.32732,1.466667 -2.7133,2.666667 -3.07997,2.666667 -0.36667,0 0.41932,-1.2 1.74663,-2.666667 z m 67.16326,-3.666666 c -1.6585,-2.114742 -1.61134,-2.161902 0.50341,-0.503407 2.221,1.741825 2.92731,2.83674 1.82992,2.83674 -0.27687,0 -1.32687,-1.05 -2.33333,-2.333333 z M 66.666668,68.666668 c 1.722327,-1.833333 3.431504,-3.333333 3.798171,-3.333333 0.366666,0 -0.742511,1.5 -2.464838,3.333333 -1.722326,1.833333 -3.431504,3.333333 -3.79817,3.333333 -0.366667,0 0.74251,-1.5 2.464837,-3.333333 z m 88.666672,-2 c 1.32732,-1.466667 2.7133,-2.666667 3.07997,-2.666667 0.36667,0 -0.41932,1.2 -1.74664,2.666667 -1.32732,1.466667 -2.71331,2.666667 -3.07997,2.666667 -0.36667,0 0.41932,-1.2 1.74664,-2.666667 z m 24.49658,-3.666667 c -1.65849,-2.114741 -1.61133,-2.161901 0.50342,-0.503406 2.221,1.741825 2.9273,2.83674 1.82992,2.83674 -0.27687,0 -1.32687,-1.05 -2.33334,-2.333334 z"
         id="path837" />
      <path
         style="fill:#FFFFFF;fill-opacity:0.5;stroke-width:1.33333"
         d="m 81.941391,254.32806 c -0.352872,-0.91956 -0.476417,-23.86956 -0.274547,-51 L 82.033883,154 l 0.316393,50.30734 0.316392,50.30733 29.000002,0.38672 29,0.38673 -29.04185,0.30595 c -22.281485,0.23472 -29.191193,-0.0833 -29.683429,-1.36601 z m 78.452889,0.67977 c 5.71684,-0.25053 14.71684,-0.24901 20,0.004 5.28315,0.2524 0.60572,0.45739 -10.39428,0.45552 -11,-0.001 -15.32257,-0.20839 -9.60572,-0.45892 z m 38.87688,-0.68907 c -0.35484,-0.92468 -0.47673,-19.67468 -0.27088,-41.66666 l 0.37427,-39.98543 0.31273,40.974 0.31272,40.974 29,0.38672 29.00001,0.38673 -29.04185,0.30595 c -22.36561,0.2356 -29.19016,-0.0805 -29.687,-1.37531 z M 160.39428,181.6745 c 5.71684,-0.25054 14.71684,-0.24902 20,0.004 5.28315,0.2524 0.60572,0.45738 -10.39428,0.45552 -11,-0.001 -15.32257,-0.20839 -9.60572,-0.45892 z M 2.9265983,178 c 0.027173,-2.2 0.3259982,-2.93858 0.664056,-1.64129 0.3380579,1.29729 0.3158255,3.09729 -0.049405,4 C 3.1760182,181.26142 2.8994254,180.2 2.9265983,178 Z m 313.1786717,1.22223 c 0.064,-1.55327 0.37992,-1.8692 0.80555,-0.80556 0.38516,0.96249 0.3378,2.11249 -0.1052,2.55556 -0.44307,0.44305 -0.75819,-0.34445 -0.70029,-1.75 z M 24.259932,170 c 0.02717,-2.2 0.325998,-2.93858 0.664056,-1.64129 0.338058,1.29729 0.315826,3.09729 -0.0494,4 C 24.509352,173.26142 24.232759,172.2 24.259932,170 Z M 2.9265983,163.33334 c 0.027173,-2.2 0.3259982,-2.93859 0.664056,-1.6413 0.3380579,1.2973 0.3158255,3.0973 -0.049405,4 -0.3652308,0.90271 -0.6418236,-0.1587 -0.614651,-2.3587 z m 313.2839317,-2 c 0,-1.83334 0.30264,-2.58334 0.67252,-1.66667 0.36988,0.91667 0.36988,2.41667 0,3.33333 -0.36988,0.91667 -0.67252,0.16667 -0.67252,-1.66666 z M 161.69204,25.742679 c 1.2973,-0.338057 3.0973,-0.315825 4,0.0494 0.90271,0.365231 -0.1587,0.641824 -2.3587,0.614651 -2.2,-0.02717 -2.93859,-0.325997 -1.6413,-0.664056 z M 177,25.783626 c 0.91667,-0.369883 2.41667,-0.369883 3.33334,0 0.91666,0.369884 0.16666,0.672515 -1.66667,0.672515 -1.83333,0 -2.58333,-0.302631 -1.66667,-0.672515 z M 159.75,4.4225148 c 0.9625,-0.3851609 2.1125,-0.3377925 2.55556,0.1052626 0.44306,0.4430556 -0.34445,0.7581872 -1.75,0.7002924 -1.55326,-0.063979 -1.8692,-0.3799204 -0.80556,-0.805555 z m 19.91667,0.027777 c 0.91667,-0.3698831 2.41667,-0.3698831 3.33333,0 0.91667,0.3698831 0.16667,0.6725147 -1.66666,0.6725147 -1.83334,0 -2.58334,-0.3026316 -1.66667,-0.6725147 z"
         id="path835" />
      <path
         style="fill:#FFFFFF;fill-opacity:0.5;stroke-width:1.33333"
         d="m 289.33334,287.33334 c 1.72233,-1.83333 3.43151,-3.33333 3.79817,-3.33333 0.36667,0 -0.7425,1.5 -2.46484,3.33333 -1.72233,1.83333 -3.4315,3.33333 -3.79817,3.33333 -0.36667,0 0.74251,-1.5 2.46484,-3.33333 z m -19.33333,-11.33333 c 1.32732,-1.46667 2.7133,-2.66667 3.07997,-2.66667 0.36667,0 -0.41932,1.2 -1.74664,2.66667 -1.32732,1.46666 -2.71331,2.66666 -3.07997,2.66666 -0.36667,0 0.41932,-1.2 1.74664,-2.66666 z m 6,-5.83675 c 0,-0.27687 1.05,-1.32687 2.33333,-2.33333 2.11475,-1.6585 2.16191,-1.61134 0.50341,0.50341 -1.74182,2.221 -2.83674,2.92731 -2.83674,1.82992 z M 64.000001,152.82992 c 0,-0.27686 1.05,-1.32686 2.333334,-2.33333 2.114741,-1.65849 2.161901,-1.61133 0.503406,0.50341 -1.741825,2.221 -2.83674,2.92731 -2.83674,1.82992 z m 205.873329,-5.16325 -2.53999,-3 3,2.53999 c 1.65,1.39698 3,2.74698 3,3 0,1.067 -1.07305,0.27926 -3.46001,-2.53999 z M 85.333335,132.82993 c 0,-0.27688 1.05,-1.32688 2.333333,-2.33333 2.114742,-1.6585 2.161902,-1.61134 0.503407,0.5034 -1.741825,2.221 -2.83674,2.92731 -2.83674,1.82993 z m 163.829925,-4.49659 c -1.6585,-2.11475 -1.61134,-2.16191 0.50341,-0.50341 2.221,1.74182 2.92731,2.83674 1.82992,2.83674 -0.27687,0 -1.32687,-1.05 -2.33333,-2.33333 z M 106.66667,112.82993 c 0,-0.27688 1.05,-1.32688 2.33333,-2.33333 2.11474,-1.6585 2.1619,-1.61134 0.50341,0.5034 -1.74183,2.221 -2.83674,2.92731 -2.83674,1.82993 z m 22,-20.829928 c 1.32731,-1.466667 2.7133,-2.666667 3.07997,-2.666667 0.36666,0 -0.41932,1.2 -1.74664,2.666667 -1.32731,1.466666 -2.7133,2.666667 -3.07996,2.666667 -0.36667,0 0.41931,-1.200001 1.74663,-2.666667 z m 76.49659,-5 c -1.6585,-2.114742 -1.61134,-2.161902 0.50341,-0.503407 2.221,1.741825 2.92731,2.83674 1.82992,2.83674 -0.27687,0 -1.32687,-1.05 -2.33333,-2.333333 z M 60.000001,75.496595 c 0,-0.276875 1.05,-1.326875 2.333334,-2.333334 2.114741,-1.658494 2.161901,-1.611334 0.503406,0.503407 -1.741825,2.220997 -2.83674,2.927305 -2.83674,1.829927 z M 150,72.000001 c 1.32732,-1.466666 2.71331,-2.666666 3.07998,-2.666666 0.36666,0 -0.41932,1.2 -1.74664,2.666666 -1.32732,1.466667 -2.71331,2.666667 -3.07998,2.666667 -0.36666,0 0.41932,-1.2 1.74664,-2.666667 z m 34.53999,-4.333333 -2.53999,-3 3,2.539984 c 2.81926,2.386957 3.60699,3.460016 2.53999,3.460016 -0.25301,0 -1.60301,-1.35 -3,-3 z M 50.666668,54.000001 c 2.48771,-2.566667 4.823112,-4.666667 5.189778,-4.666667 0.366667,0 -1.368734,2.1 -3.856445,4.666667 -2.487711,2.566667 -4.823112,4.666667 -5.189779,4.666667 -0.366666,0 1.368735,-2.1 3.856446,-4.666667 z"
         id="path833" />
      <path
         style="fill:#FFFFFF;fill-opacity:0.5;stroke-width:1.33333"
         d="m 167,315.04501 c 2.01667,-0.30551 5.31667,-0.30551 7.33334,0 2.01666,0.30549 0.36666,0.55545 -3.66667,0.55545 -4.03333,0 -5.68333,-0.24996 -3.66667,-0.55545 z M 140.6368,214 l 0.0299,-41.33333 29.00081,-0.04 29.00083,-0.0399 -28.64825,0.39922 -28.64826,0.39921 -0.38244,40.97405 -0.38242,40.97406 z m 117.30141,-9.33333 c -3.9e-4,-27.86667 0.17645,-39.45616 0.39297,-25.75443 0.21653,13.70174 0.21685,36.50174 7.2e-4,50.66667 -0.21613,14.16493 -0.39329,2.95443 -0.39369,-24.91224 z M 337.54386,180 c 0,-1.83333 0.30264,-2.58333 0.67252,-1.66666 0.36988,0.91666 0.36988,2.41666 0,3.33333 -0.36988,0.91667 -0.67252,0.16667 -0.67252,-1.66667 z M 24.210527,177.33334 c 0,-1.83334 0.302631,-2.58334 0.672515,-1.66667 0.369882,0.91667 0.369882,2.41667 0,3.33333 -0.369884,0.91667 -0.672515,0.16667 -0.672515,-1.66666 z M 2.877193,170.66667 c 0,-1.83333 0.3026316,-2.58333 0.6725147,-1.66667 0.369883,0.91667 0.369883,2.41667 0,3.33334 C 3.1798246,173.25 2.877193,172.5 2.877193,170.66667 Z m 21.382739,-7.33333 c 0.02717,-2.2 0.325998,-2.93859 0.664056,-1.6413 0.338058,1.2973 0.315826,3.0973 -0.0494,4 -0.365236,0.90271 -0.641829,-0.1587 -0.614656,-2.3587 z m 313.178678,-2.77778 c 0.064,-1.55326 0.37992,-1.8692 0.80554,-0.80556 0.38516,0.9625 0.3378,2.1125 -0.1052,2.55556 -0.44306,0.44306 -0.75818,-0.34445 -0.70029,-1.75 z M 219.06095,63.007827 c 5.71684,-0.250539 14.71684,-0.249011 20,0.0033 5.28315,0.252405 0.60572,0.457392 -10.39428,0.455524 -11,-0.0019 -15.32257,-0.208383 -9.60572,-0.45892 z M 167.69055,4.367025 c 2.39647,-0.2967485 5.99647,-0.2906255 8,0.013607 2.00353,0.3042323 0.0428,0.5470265 -4.35721,0.5395428 -4.4,-0.00748 -6.03926,-0.2564009 -3.64279,-0.5531498 z"
         id="path831" />
      <path
         style="fill:#FFFFFF;fill-opacity:0.5;stroke-width:1.33333"
         d="M 148.23503,334.56765 C 111.15696,329.75583 73.446675,310.45427 48.48132,283.5099 18.862727,251.54343 4.0000001,213.6159 4.0000001,170 4.0000001,126.20037 19.596284,87.68995 50.185549,55.958438 82.483276,22.454667 123.45527,5.3333334 171.33334,5.3333334 c 29.02121,0 52.42936,5.5541366 77.09202,18.2919006 68.9535,35.613091 103.62201,113.545286 84.19314,189.259846 -4.27025,16.64123 -16.5542,41.99322 -27.17971,56.09433 -9.8686,13.09662 -27.06952,29.54438 -39.8402,38.09574 -12.48575,8.36058 -34.34883,18.71455 -46.93192,22.22615 -21.80437,6.08499 -48.65371,8.09257 -70.43164,5.26635 z m 51.09831,-22.04826 c 38.4202,-7.85522 71.81713,-30.17533 93.83049,-62.70956 C 340.33459,180.09468 315.44165,83.214188 240,42.902366 158.0687,-0.87717482 55.893105,42.110657 30.068554,131.22578 19.305174,168.36795 24.225512,207.95694 43.836192,242 c 15.05455,26.13389 42.569396,50.42659 70.092968,61.88467 26.86419,11.18359 57.6927,14.30048 85.40418,8.63472 z M 82.666668,204.72508 V 154.7835 L 73.066031,154.39175 63.465393,154 116.3391,104.33334 c 29.08053,-27.316672 53.28593,-49.666672 53.78976,-49.666672 0.50384,0 9.1683,7.8 19.25437,17.333333 10.08607,9.533334 18.70096,17.333334 19.1442,17.333334 0.44325,0 0.80591,-5.7 0.80591,-12.666667 V 64.000001 H 228.66667 248 l 0.0611,31.666668 0.0611,31.666671 14.42159,13.33333 14.4216,13.33333 -9.816,0.38942 -9.816,0.38942 v 49.94391 49.94392 h -28.64741 -28.6474 l -0.3526,-41 -0.3526,-41 h -29.33333 -29.33333 l -0.3526,41 -0.35259,41 h -28.6474 -28.647402 z m 68.000002,13.94159 v -36 H 170 189.33334 v 36 36 H 170 150.66667 Z"
         id="path829" />
    </g>
  </g>
</svg>
