<?xml version="1.0" encoding="UTF-8" standalone="no"?>
<!-- Created with Inkscape (http://www.inkscape.org/) -->

<svg
   version="1.1"
   id="svg2"
   width="341.33334"
   height="341.33334"
   viewBox="0 0 341.33334 341.33334"
   sodipodi:docname="icon_patreon.svg"
   inkscape:version="1.1.1 (3bf5ae0d25, 2021-09-20, custom)"
   xmlns:inkscape="http://www.inkscape.org/namespaces/inkscape"
   xmlns:sodipodi="http://sodipodi.sourceforge.net/DTD/sodipodi-0.dtd"
   xmlns="http://www.w3.org/2000/svg"
   xmlns:svg="http://www.w3.org/2000/svg">
  <defs
     id="defs6" />
  <sodipodi:namedview
     id="namedview4"
     pagecolor="#ffffff"
     bordercolor="#666666"
     borderopacity="1.0"
     inkscape:pageshadow="2"
     inkscape:pageopacity="0.0"
     inkscape:pagecheckerboard="0"
     showgrid="false"
     inkscape:zoom="2.5546874"
     inkscape:cx="170.66667"
     inkscape:cy="170.66667"
     inkscape:window-width="1920"
     inkscape:window-height="1080"
     inkscape:window-x="1920"
     inkscape:window-y="0"
     inkscape:window-maximized="1"
     inkscape:current-layer="g8" />
  <g
     inkscape:groupmode="layer"
     inkscape:label="Image"
     id="g8">
    <g
       id="g827"
       transform="translate(-4.35302,14.134139)"
       style="fill:#FFFFFF">
      <path
         style="fill:#FFFFFF;fill-opacity:0.5;stroke-width:1.33333"
         d="M 76.613027,263.66667 C 76.262889,262.75001 76.13172,220.3 76.32154,169.33334 l 0.345128,-92.666672 17.002024,-0.06224 17.002028,-0.06224 -16.668694,0.435408 -16.668691,0.435407 v 93.253667 93.25367 l 17,0.41672 17.000005,0.41673 -17.041851,0.28978 c -12.625189,0.21468 -17.206835,-0.14218 -17.678462,-1.3769 z"
         id="path835" />
      <path
         style="fill:#FFFFFF;fill-opacity:0.5;stroke-width:1.33333"
         d="m 151.82992,196.33334 c -1.65849,-2.11475 -1.61133,-2.16191 0.50342,-0.50342 1.28333,1.00647 2.33333,2.05647 2.33333,2.33334 0,1.09738 -1.09492,0.39108 -2.83675,-1.82992 z M 272.21053,152 c 0,-1.83333 0.30264,-2.58333 0.67252,-1.66666 0.36988,0.91666 0.36988,2.41666 0,3.33333 -0.36988,0.91667 -0.67252,0.16667 -0.67252,-1.66667 z m -0.1052,-10.1111 c 0.064,-1.55327 0.37992,-1.8692 0.80554,-0.80556 0.38516,0.96249 0.3378,2.11249 -0.1052,2.55556 -0.44306,0.44305 -0.75818,-0.34446 -0.70029,-1.75 z"
         id="path833" />
      <path
         style="fill:#FFFFFF;fill-opacity:0.5;stroke-width:1.33333"
         d="m 132.10527,151.22223 c 0.064,-1.55327 0.37992,-1.8692 0.80555,-0.80556 0.38516,0.96249 0.33779,2.11249 -0.10527,2.55556 -0.44305,0.44305 -0.75818,-0.34445 -0.70029,-1.75 z m 140.10526,-4.55556 c 0,-1.83333 0.30264,-2.58333 0.67252,-1.66667 0.36988,0.91667 0.36988,2.41667 0,3.33334 -0.36988,0.91666 -0.67252,0.16666 -0.67252,-1.66667 z m -140.10526,-3.44444 c 0.064,-1.55327 0.37992,-1.8692 0.80555,-0.80556 0.38516,0.96249 0.33779,2.11249 -0.10527,2.55556 -0.44305,0.44305 -0.75818,-0.34445 -0.70029,-1.75 z m 18.5614,-43.725635 c 0,-0.276874 1.05,-1.326874 2.33333,-2.333333 2.11475,-1.658495 2.16191,-1.611335 0.50342,0.503407 -1.74183,2.220997 -2.83675,2.927301 -2.83675,1.829926 z"
         id="path831" />
      <path
         style="fill:#FFFFFF;fill-opacity:0.5;stroke-width:1.33333"
         d="M 77.333335,170.66667 V 77.333335 h 16.666667 16.666668 v 93.333335 93.33334 H 94.000002 77.333335 Z m 109.881245,44.68817 c -23.4252,-5.09688 -44.09764,-24.1311 -51.32606,-47.25866 -3.73009,-11.93458 -3.73009,-29.59111 0,-41.52568 5.3249,-17.03716 20.2076,-34.637705 35.34391,-41.798329 28.47361,-13.470174 58.66747,-8.525354 80.12371,13.12179 14.86873,15.001029 20.65835,28.862079 20.62804,49.386179 -0.0291,19.72646 -6.19407,34.79326 -19.98418,48.84032 -17.12937,17.44852 -40.75528,24.4629 -64.78542,19.23438 z"
         id="path829" />
    </g>
  </g>
</svg>
