<?xml version="1.0" encoding="UTF-8" standalone="no"?>
<!-- Created with Inkscape (http://www.inkscape.org/) -->

<svg
   version="1.1"
   id="svg2"
   width="341.33334"
   height="341.33334"
   viewBox="0 0 341.33334 341.33334"
   sodipodi:docname="icon_contact.svg"
   inkscape:version="1.1.1 (3bf5ae0d25, 2021-09-20, custom)"
   xmlns:inkscape="http://www.inkscape.org/namespaces/inkscape"
   xmlns:sodipodi="http://sodipodi.sourceforge.net/DTD/sodipodi-0.dtd"
   xmlns="http://www.w3.org/2000/svg"
   xmlns:svg="http://www.w3.org/2000/svg">
  <defs
     id="defs6" />
  <sodipodi:namedview
     id="namedview4"
     pagecolor="#ffffff"
     bordercolor="#666666"
     borderopacity="1.0"
     inkscape:pageshadow="2"
     inkscape:pageopacity="0.0"
     inkscape:pagecheckerboard="0"
     showgrid="false"
     inkscape:zoom="1.2773437"
     inkscape:cx="168.31805"
     inkscape:cy="237.99389"
     inkscape:window-width="1920"
     inkscape:window-height="1080"
     inkscape:window-x="1920"
     inkscape:window-y="0"
     inkscape:window-maximized="1"
     inkscape:current-layer="g8" />
  <g
     inkscape:groupmode="layer"
     inkscape:label="Image"
     id="g8">
    <g
       id="g827"
       transform="translate(3.2362386,-0.16523357)"
       style="fill:#FFFFFF">
      <path
         style="fill:#FFFFFF;fill-opacity:0.5;stroke-width:1.33333"
         d="m 105.33334,195.49659 c 0,-0.27687 1.05,-1.32687 2.33333,-2.33333 2.11474,-1.6585 2.1619,-1.61134 0.50341,0.50341 -1.74183,2.221 -2.83674,2.92731 -2.83674,1.82992 z"
         id="path833" />
      <path
         style="fill:#FFFFFF;fill-opacity:0.5;stroke-width:1.33333"
         d="m 145.16326,173.66667 c -1.6585,-2.11475 -1.61134,-2.16191 0.50341,-0.50341 1.28333,1.00646 2.33333,2.05646 2.33333,2.33333 0,1.09739 -1.09492,0.39108 -2.83674,-1.82992 z M 204,175.49659 c 0,-0.27687 1.05,-1.32687 2.33334,-2.33333 2.11474,-1.6585 2.1619,-1.61134 0.50341,0.50341 -1.74183,2.221 -2.83675,2.92731 -2.83675,1.82992 z M 144,115.4966 c 0,-0.27688 1.05,-1.32688 2.33334,-2.33334 2.11474,-1.65849 2.1619,-1.61133 0.50341,0.50341 -1.74183,2.221 -2.83675,2.9273 -2.83675,1.82993 z m 61.16326,-1.82993 c -1.6585,-2.11474 -1.61134,-2.1619 0.50341,-0.50341 2.221,1.74183 2.92731,2.83674 1.82992,2.83674 -0.27687,0 -1.32687,-1.05 -2.33333,-2.33333 z"
         id="path831" />
      <path
         style="fill:#FFFFFF;fill-opacity:0.5;stroke-width:1.33333"
         d="m 41.333334,338.99794 c -7.691536,-3.84236 -9.328865,-8.94203 -9.331261,-29.06341 l -0.0021,-17.39882 -4.55204,-1.64604 c -8.277301,-2.99312 -16.766422,-15.25762 -16.766422,-24.223 0,-8.96537 8.489121,-21.22988 16.766422,-24.223 l 4.55204,-1.64604 V 216 191.20238 l -4.55204,-1.64604 c -8.277301,-2.99312 -16.766422,-15.25763 -16.766422,-24.223 0,-8.96538 8.489121,-21.22988 16.766422,-24.223 l 4.55204,-1.64604 V 114.66667 89.869038 l -4.55204,-1.646039 C 19.17066,85.229888 10.681539,72.965376 10.681539,64.000001 c 0,-8.965375 8.489121,-21.229887 16.766422,-24.222998 l 4.55204,-1.646038 0.0021,-12.065482 c 0.0024,-14.368235 2.30314,-20.2191678 9.3312,-23.7300776 C 45.661165,0.1733952 53.868152,0.00399357 154.37613,0.002072 271.7623,-1.72259e-4 269.21758,-0.15265743 274.01634,7.1711669 c 1.22306,1.8666461 2.5394,5.7471031 2.92516,8.6232391 0.65981,4.919282 1.01145,5.270922 5.93074,5.930736 2.87614,0.38577 6.75659,1.702098 8.62323,2.925172 7.43819,4.87368 7.17135,-0.968936 7.16911,156.973526 -10e-4,136.05093 -0.15662,146.01883 -2.33334,150.37617 -4.92154,9.85184 2.41732,9.32918 -130.99793,9.32918 -110.942151,0 -119.661489,-0.16392 -124.000009,-2.33125 z m 35.428573,-10.42651 c -3.00193,-3.00193 -3.00193,-24.80758 0,-27.80952 2.63144,-2.63144 3.844749,-2.63144 6.476189,0 3.00193,3.00194 3.00193,24.80759 0,27.80952 -1.904761,1.90476 6.337663,2.09524 90.666664,2.09524 h 92.76191 v -158.4 c 0,-121.422225 -0.3735,-158.773516 -1.6,-160.000003 -0.97094,-0.97094 -5.68889,-1.6 -12,-1.6 h -10.4 v 25.333334 c 0,23.555556 -0.18713,25.520468 -2.66667,28 -3.38405,3.384055 -5.89622,3.360319 -11.50929,-0.108746 L 224,61.115843 l -4.4907,2.775413 c -5.61307,3.469064 -8.12524,3.4928 -11.5093,0.108745 -2.47953,-2.479532 -2.66666,-4.444444 -2.66666,-28 V 10.666667 h -60 -60.000005 v 8.571428 c 0,8.184384 -1.912993,12.761906 -5.333333,12.761906 -3.420341,0 -5.333334,-4.577522 -5.333334,-12.761906 v -8.571428 h -14.4 c -9.422223,0 -14.953087,0.553086 -16,1.6 -1.133499,1.133499 -1.6,9.075132 -1.6,27.238095 0,21.529583 -0.335763,25.973859 -2.095239,27.733334 -4.820838,4.820839 -8.571428,0.445151 -8.571428,-10 0,-4.347619 -0.339446,-7.904762 -0.754322,-7.904762 -2.288872,0 -6.138312,3.236064 -7.898545,6.639979 -5.850591,11.313798 1.698106,24.035927 14.25332,24.021705 8.541164,-0.0097 13.934335,-5.370257 16.27966,-16.181282 0.817126,-3.766628 3.569919,-5.530242 6.735798,-4.31538 8.300451,3.185181 -1.625922,24.468091 -13.397204,28.724643 l -4.55204,1.646039 v 38.303582 c 0,33.04365 -0.287723,38.59129 -2.095239,40.39881 -4.820838,4.82084 -8.571428,0.44515 -8.571428,-10 0,-4.34761 -0.339446,-7.90476 -0.754322,-7.90476 -2.288872,0 -6.138312,3.23607 -7.898545,6.63997 -5.850591,11.3138 1.698106,24.03594 14.25332,24.02171 8.541164,-0.009 13.934335,-5.37025 16.27966,-16.18128 0.817126,-3.76663 3.569919,-5.53024 6.735798,-4.31537 8.300451,3.18517 -1.625922,24.46808 -13.397204,28.72464 l -4.55204,1.64604 v 38.30357 c 0,33.04366 -0.287723,38.5913 -2.095239,40.39882 -4.820838,4.82084 -8.571428,0.44514 -8.571428,-10 0,-4.34762 -0.339446,-7.90477 -0.754322,-7.90477 -2.288872,0 -6.138312,3.23607 -7.898545,6.63998 -5.850591,11.3138 1.698106,24.03593 14.25332,24.02171 8.541164,-0.009 13.934335,-5.37026 16.27966,-16.18128 0.817126,-3.76663 3.569919,-5.53024 6.735798,-4.31538 8.300451,3.18518 -1.625922,24.46808 -13.397204,28.72464 l -4.55204,1.64604 v 17.46548 c 0,11.80648 0.518416,17.9839 1.6,19.06548 1.072004,1.072 7.043386,1.6 18.095239,1.6 14.995671,0 16.304761,-0.19048 14.4,-2.09524 z m 70.515843,-33.99469 c -2.08661,-3.37621 2.62379,-3.95209 29.48336,-3.60451 23.75556,0.3074 27.90556,0.65854 27.90556,2.36111 0,1.70351 -4.18631,2.05331 -28.23843,2.35957 -19.56305,0.24911 -28.51862,-0.0937 -29.15049,-1.11617 z m -70.515843,-8.67197 c -1.589351,-1.58935 -2.095239,-4.94662 -2.095239,-13.90476 0,-8.95815 0.505888,-12.31542 2.095239,-13.90476 2.63144,-2.63145 3.844749,-2.63145 6.476189,0 3.00193,3.00193 3.00193,24.80758 0,27.80952 -1.15238,1.15238 -2.609522,2.09524 -3.238094,2.09524 -0.628572,0 -2.085715,-0.94286 -3.238095,-2.09524 z M 125.93818,273.2333 c -0.49821,-0.80611 -0.3506,-2.02088 0.32802,-2.69949 0.72455,-0.72455 21.56251,-1.08936 50.48382,-0.88382 42.73332,0.3037 49.24998,0.61466 49.24998,2.35002 0,1.73565 -6.55288,2.04618 -49.578,2.34946 -34.94532,0.24634 -49.84535,-0.0831 -50.48382,-1.11617 z m -15.27151,-24.90203 c -7.38944,-3.69144 -9.32884,-9.16593 -9.33126,-26.34007 -0.002,-16.44981 1.20875,-22.25656 5.63275,-27.00732 3.81826,-4.10029 22.58142,-13.65054 26.81891,-13.65054 1.74877,0 5.51209,1.88133 8.36293,4.18074 2.85083,2.2994 8.48334,5.7494 12.51667,7.66667 6.46272,3.07207 8.99543,3.48592 21.33333,3.48592 12.33791,0 14.87062,-0.41385 21.33334,-3.48592 4.03333,-1.91727 9.66584,-5.36727 12.51666,-7.66667 2.85084,-2.29941 6.61416,-4.18074 8.36294,-4.18074 4.22932,0 23.04832,9.57188 26.60237,13.5307 4.50948,5.02311 5.85149,11.21814 5.84929,27.00159 -0.003,17.30963 -1.92641,22.76649 -9.33126,26.46564 -4.23762,2.11692 -10.24435,2.33125 -65.33334,2.33125 -55.08899,0 -61.09572,-0.21433 -65.33333,-2.33125 z M 238.4,238.4 c 2.21448,-2.21448 2.12088,-32.95498 -0.10906,-35.8206 -0.89335,-1.148 -5.54147,-4.15825 -10.32916,-6.68946 l -8.7049,-4.6022 -7.0995,4.95992 c -10.8933,7.6104 -22.45763,11.04133 -36.82404,10.92508 -13.69087,-0.1108 -23.21128,-3.06606 -35.1115,-10.89908 l -7.11148,-4.68096 -9.34457,4.52061 c -5.1395,2.48633 -9.88933,5.53853 -10.55517,6.78267 -1.85948,3.47446 -1.52925,33.5854 0.38938,35.50402 2.30316,2.30316 122.49684,2.30316 124.8,0 z m -161.638093,4.8381 c -1.589351,-1.58935 -2.095239,-4.94662 -2.095239,-13.90476 0,-8.95815 0.505888,-12.31542 2.095239,-13.90476 2.63144,-2.63144 3.844749,-2.63144 6.476189,0 3.00193,3.00193 3.00193,24.80758 0,27.80952 -1.15238,1.15238 -2.609522,2.09524 -3.238094,2.09524 -0.628572,0 -2.085715,-0.94286 -3.238095,-2.09524 z m 0,-42.66667 c -1.589351,-1.58935 -2.095239,-4.94661 -2.095239,-13.90476 0,-8.95815 0.505888,-12.31541 2.095239,-13.90476 2.63144,-2.63144 3.844749,-2.63144 6.476189,0 3.00193,3.00193 3.00193,24.80759 0,27.80952 -1.15238,1.15239 -2.609522,2.09524 -3.238094,2.09524 -0.628572,0 -2.085715,-0.94285 -3.238095,-2.09524 z M 166.86236,185.2885 c -11.99894,-2.47332 -24.42332,-12.89735 -29.94678,-25.1253 -3.87039,-8.56832 -3.85563,-23.7902 0.0315,-32.39742 3.96403,-8.7777 12.7154,-17.74497 21.52332,-22.05428 10.6957,-5.23292 24.3637,-5.23292 35.05939,0 8.83405,4.3221 17.58959,13.30958 21.48511,22.05428 4.25829,9.55905 3.91244,24.28268 -0.79648,33.90736 -4.15806,8.49876 -13.28028,17.48468 -21.31743,20.99888 -6.94185,3.0353 -18.41411,4.18808 -26.03853,2.61648 z m 25.9282,-14.02415 c 3.99223,-2.46821 8.01851,-6.50247 10.50752,-10.52837 3.57183,-5.77728 4.03526,-7.69932 4.03526,-16.73598 0,-9.03665 -0.46343,-10.9587 -4.03526,-16.73598 -2.50116,-4.04553 -6.51657,-8.06094 -10.5621,-10.5621 -5.77728,-3.57182 -7.69932,-4.03525 -16.73598,-4.03525 -9.03665,0 -10.95869,0.46343 -16.73597,4.03525 -21.31652,13.17899 -20.03459,44.58668 2.28053,55.8735 9.90484,5.0098 21.83168,4.50936 31.246,-1.31107 z m -40.14549,-25.96596 c -1.73739,-2.81115 2.27139,-13.10373 6.91049,-17.74283 5.09615,-5.09616 15.61882,-8.91452 18.00123,-6.53211 1.92639,1.9264 0.21165,4.30989 -3.10064,4.30989 -7.86837,0 -15.63357,7.2362 -17.05213,15.89049 -0.77143,4.70632 -3.12376,6.72035 -4.75895,4.07456 z M 76.761907,157.90476 C 75.172556,156.31542 74.666668,152.95815 74.666668,144 c 0,-8.95814 0.505888,-12.31541 2.095239,-13.90476 C 77.914287,128.94286 79.37143,128 80.000002,128 c 0.628572,0 2.085714,0.94286 3.238094,2.09524 3.00193,3.00193 3.00193,24.80759 0,27.80952 C 82.085716,159.05715 80.628574,160 80.000002,160 c -0.628572,0 -2.085715,-0.94285 -3.238095,-2.09524 z m 0,-42.66666 c -1.589351,-1.58935 -2.095239,-4.94661 -2.095239,-13.90476 0,-8.958158 0.505888,-12.315417 2.095239,-13.904766 1.15238,-1.152382 2.609523,-2.095239 3.238095,-2.095239 0.628572,0 2.085714,0.942857 3.238094,2.095239 3.00193,3.001928 3.00193,24.807596 0,27.809526 -1.15238,1.15238 -2.609522,2.09524 -3.238094,2.09524 -0.628572,0 -2.085715,-0.94286 -3.238095,-2.09524 z m 0,-42.666671 c -1.589351,-1.589349 -2.095239,-4.946608 -2.095239,-13.904761 0,-8.958154 0.505888,-12.315412 2.095239,-13.904762 1.15238,-1.152381 2.609523,-2.095238 3.238095,-2.095238 0.628572,0 2.085714,0.942857 3.238094,2.095238 3.00193,3.001928 3.00193,24.807595 0,27.809523 -1.15238,1.152382 -2.609522,2.095239 -3.238094,2.095239 -0.628572,0 -2.085715,-0.942857 -3.238095,-2.095239 z M 286.40001,329.06667 c 2.32224,-2.32224 2.32224,-293.144423 0,-295.466669 -0.88,-0.88 -3.28,-1.6 -5.33334,-1.6 h -3.73333 V 181.33334 330.66667 h 3.73333 c 2.05334,0 4.45334,-0.72 5.33334,-1.6 z M 217.33334,60.000001 c 4.31146,-3.372476 8.63518,-3.345376 13.45174,0.08431 2.12487,1.513039 4.46748,2.377628 5.20583,1.921311 0.82456,-0.509606 1.34243,-10.57201 1.34243,-26.084308 V 10.666667 H 224 210.66667 v 25.111111 c 0,13.811112 0.4,25.511113 0.88889,26.000001 1.32648,1.326484 2.12222,1.081642 5.77778,-1.777778 z"
         id="path829" />
    </g>
  </g>
</svg>
