<?xml version="1.0" encoding="UTF-8" standalone="no"?>
<!-- Created with Inkscape (http://www.inkscape.org/) -->

<svg
   version="1.1"
   id="svg2"
   width="341.33334"
   height="341.33334"
   viewBox="0 0 341.33334 341.33334"
   sodipodi:docname="icon_github.svg"
   inkscape:version="1.1.1 (3bf5ae0d25, 2021-09-20, custom)"
   xmlns:inkscape="http://www.inkscape.org/namespaces/inkscape"
   xmlns:sodipodi="http://sodipodi.sourceforge.net/DTD/sodipodi-0.dtd"
   xmlns="http://www.w3.org/2000/svg"
   xmlns:svg="http://www.w3.org/2000/svg">
  <defs
     id="defs6" />
  <sodipodi:namedview
     id="namedview4"
     pagecolor="#ffffff"
     bordercolor="#666666"
     borderopacity="1.0"
     inkscape:pageshadow="2"
     inkscape:pageopacity="0.0"
     inkscape:pagecheckerboard="0"
     showgrid="false"
     inkscape:zoom="2.5546874"
     inkscape:cx="170.66667"
     inkscape:cy="170.66667"
     inkscape:window-width="1920"
     inkscape:window-height="1080"
     inkscape:window-x="1920"
     inkscape:window-y="0"
     inkscape:window-maximized="1"
     inkscape:current-layer="g8" />
  <g
     inkscape:groupmode="layer"
     inkscape:label="Image"
     id="g8">
    <g
       id="g845"
       transform="translate(0.09145638,-0.04367332)"
       style="fill:#FFFFFF">
      <path
         style="fill:#FFFFFF;fill-opacity:0.5;stroke-width:1.33333"
         d="m 70.771931,163.22223 c 0.06397,-1.55327 0.379921,-1.8692 0.805556,-0.80556 0.385161,0.96249 0.337792,2.11249 -0.105267,2.55556 -0.443056,0.44305 -0.758188,-0.34445 -0.700293,-1.75 z M 52.000001,47.496594 c 0,-0.276874 1.05,-1.326874 2.333333,-2.333333 2.114742,-1.658495 2.161902,-1.611335 0.503407,0.503407 -1.741825,2.220997 -2.83674,2.927305 -2.83674,1.829926 z"
         id="path857" />
      <path
         style="fill:#FFFFFF;fill-opacity:0.5;stroke-width:1.33333"
         d="m 48.666668,50.666668 c 1.327314,-1.466667 2.7133,-2.666667 3.079966,-2.666667 0.366667,0 -0.419318,1.2 -1.746633,2.666667 -1.327315,1.466666 -2.7133,2.666666 -3.079967,2.666666 -0.366666,0 0.419319,-1.2 1.746634,-2.666666 z m 241.829922,-1 c -1.65849,-2.114742 -1.61133,-2.161902 0.50342,-0.503407 2.221,1.741825 2.9273,2.83674 1.82992,2.83674 -0.27687,0 -1.32687,-1.05 -2.33334,-2.333333 z"
         id="path855" />
      <path
         style="fill:#FFFFFF;fill-opacity:0.5;stroke-width:1.33333"
         d="m 288.66667,296.00001 c 1.32732,-1.46667 2.71331,-2.66667 3.07998,-2.66667 0.36666,0 -0.41932,1.2 -1.74664,2.66667 -1.32732,1.46666 -2.71331,2.66666 -3.07998,2.66666 -0.36666,0 0.41932,-1.2 1.74664,-2.66666 z M 49.163261,293.66667 c -1.658495,-2.11474 -1.611335,-2.1619 0.503407,-0.50341 1.283333,1.00647 2.333333,2.05647 2.333333,2.33333 0,1.09739 -1.094915,0.39108 -2.83674,-1.82992 z"
         id="path853" />
      <path
         style="fill:#FFFFFF;fill-opacity:0.5;stroke-width:1.33333"
         d="m 141.87891,312.66667 c -10e-4,-12.46666 0.19888,-17.74613 0.44535,-11.73213 0.24648,6.01399 0.24773,16.21399 0.003,22.66667 -0.24493,6.45266 -0.4466,1.53213 -0.44813,-10.93454 z m 57.35777,-7.33333 c 0,-16.5 0.1914,-23.25 0.42534,-15 0.23392,8.25 0.23392,21.75 0,30 -0.23394,8.25 -0.42534,1.5 -0.42534,-15 z m -75.57001,-20.96453 c 2.38333,-0.29576 6.28333,-0.29576 8.66667,0 2.38333,0.29577 0.43333,0.53777 -4.33334,0.53777 -4.76666,0 -6.71666,-0.242 -4.33333,-0.53777 z m 17.9266,-35.70214 c 0.0272,-2.2 0.326,-2.93859 0.66405,-1.64129 0.33806,1.29729 0.31583,3.09729 -0.0493,4 -0.36524,0.9027 -0.64183,-0.15871 -0.61465,-2.35871 z M 221.33334,88.829928 c 0,-0.276874 1.05,-1.326874 2.33333,-2.333333 2.11475,-1.658495 2.16191,-1.611335 0.50341,0.503407 -1.74182,2.220997 -2.83674,2.927305 -2.83674,1.829926 z"
         id="path851" />
      <path
         style="fill:#FFFFFF;fill-opacity:0.5;stroke-width:1.33333"
         d="m 119.82993,89.666668 c -1.6585,-2.114741 -1.61134,-2.161901 0.50341,-0.503406 1.28333,1.006458 2.33333,2.056458 2.33333,2.333333 0,1.097379 -1.09492,0.391071 -2.83674,-1.829927 z"
         id="path849" />
      <path
         style="fill:#FFFFFF;fill-opacity:0.5;stroke-width:1.33333"
         d="M 122.66667,337.84886 C 96.021839,329.99049 72.997805,315.98093 51.929993,294.80733 18.02245,260.72953 0.84329686,218.98419 0.84329686,170.66667 0.84329686,123.38539 17.140972,84.094566 50.628362,50.643653 71.506391,29.788366 91.420075,17.535152 118.66667,8.7785786 138.17135,2.5101164 149.74308,0.7606758 171.33334,0.81630515 218.03303,0.93663135 257.43933,17.39378 290.66667,50.653166 c 29.58575,29.614276 44.96342,62.262914 49.41102,104.905464 3.49809,33.53893 -4.93152,72.21227 -22.3291,102.44138 -22.59012,39.25138 -58.77166,68.20882 -99.98581,80.02236 -18.68646,5.35625 -17.32239,8.19894 -18.06672,-37.65058 -0.5792,-35.67797 -0.83947,-39.00936 -3.70728,-47.45363 -3.03292,-8.93037 -3.04187,-9.12128 -0.53656,-11.44682 1.40128,-1.30075 7.64778,-3.99291 13.88112,-5.98258 37.56768,-11.99154 63.53804,-44.57888 60.85915,-76.36542 -1.25107,-14.84462 -6.74863,-26.92096 -19.72645,-43.33252 -2.70608,-3.42206 -2.72762,-3.75881 -0.63368,-9.90418 2.9548,-8.671857 2.75156,-21.137914 -0.45997,-28.21295 -2.40372,-5.295399 -2.79448,-5.573942 -6.0716,-4.327981 -4.45869,1.695194 -13.53509,7.933127 -21.21723,14.581973 l -5.98553,5.180441 -11.71568,-3.455408 c -10.52879,-3.105349 -13.94445,-3.455408 -33.71568,-3.455408 -19.77123,0 -23.18689,0.350059 -33.71568,3.455408 l -11.71568,3.455408 -5.98553,-5.180441 c -7.68214,-6.648846 -16.75853,-12.886779 -21.21723,-14.581973 -3.277128,-1.245961 -3.667888,-0.967418 -6.071599,4.327981 -3.211531,7.075036 -3.414775,19.541093 -0.459976,28.21295 2.09394,6.14537 2.072395,6.48212 -0.633683,9.90418 -12.977812,16.41156 -18.475373,28.4879 -19.726439,43.33252 -2.542264,30.16544 20.045589,60.66229 54.957767,74.20089 15.30069,5.93345 14.51689,5.14863 14.95842,14.97821 0.3479,7.74481 0.008,9.14459 -3.11852,12.86081 -2.57765,3.06336 -4.63557,4.17009 -7.75412,4.17009 -5.31303,0 -20.51439,-5.80596 -37.67511,-14.38954 -20.972626,-10.49022 -21.011635,-10.46998 -9.291507,4.8201 17.830137,23.2612 25.367467,28.34251 43.448887,29.29112 6.23333,0.32701 12.08333,1.19688 13,1.93304 1.22701,0.98539 1.66667,7.96584 1.66667,26.46163 0,23.47393 -0.16931,25.21377 -2.57902,26.50341 -3.28798,1.75967 -2.74636,1.83052 -16.08765,-2.10424 z"
         id="path847" />
    </g>
  </g>
</svg>
