<?xml version="1.0" encoding="UTF-8" standalone="no"?>
<!-- Created with Inkscape (http://www.inkscape.org/) -->

<svg
   version="1.1"
   id="svg2"
   width="341.33334"
   height="341.33334"
   viewBox="0 0 341.33334 341.33334"
   sodipodi:docname="icon_paypal.svg"
   inkscape:version="1.1.1 (3bf5ae0d25, 2021-09-20, custom)"
   xmlns:inkscape="http://www.inkscape.org/namespaces/inkscape"
   xmlns:sodipodi="http://sodipodi.sourceforge.net/DTD/sodipodi-0.dtd"
   xmlns="http://www.w3.org/2000/svg"
   xmlns:svg="http://www.w3.org/2000/svg">
  <defs
     id="defs6" />
  <sodipodi:namedview
     id="namedview4"
     pagecolor="#ffffff"
     bordercolor="#666666"
     borderopacity="1.0"
     inkscape:pageshadow="2"
     inkscape:pageopacity="0.0"
     inkscape:pagecheckerboard="0"
     showgrid="false"
     inkscape:zoom="2.5546874"
     inkscape:cx="170.66667"
     inkscape:cy="170.66667"
     inkscape:window-width="1920"
     inkscape:window-height="1080"
     inkscape:window-x="1920"
     inkscape:window-y="0"
     inkscape:window-maximized="1"
     inkscape:current-layer="g8" />
  <g
     inkscape:groupmode="layer"
     inkscape:label="Image"
     id="g8">
    <g
       id="g827"
       transform="translate(-1.0972859,0.43169394)"
       style="fill:#FFFFFF">
      <path
         style="fill:#FFFFFF;fill-opacity:0.5;stroke-width:1.33333"
         d="m 158.41667,309.75586 c 0.96249,-0.38516 2.11249,-0.3378 2.55556,0.1052 0.44305,0.44305 -0.34445,0.75819 -1.75,0.70029 -1.55327,-0.064 -1.8692,-0.37992 -0.80556,-0.80554 z m 22.66667,0 c 0.96249,-0.38516 2.11249,-0.3378 2.55556,0.1052 0.44305,0.44305 -0.34446,0.75819 -1.75,0.70029 -1.55327,-0.064 -1.8692,-0.37992 -0.80556,-0.80554 z m -6.66667,-122.66667 c 0.96249,-0.38516 2.11249,-0.3378 2.55556,0.1052 0.44305,0.44305 -0.34445,0.75819 -1.75,0.70029 -1.55327,-0.064 -1.8692,-0.37992 -0.80556,-0.80554 z m 72.50993,-30.42252 c 0.0272,-2.2 0.326,-2.93859 0.66406,-1.64129 0.33805,1.29729 0.31582,3.09729 -0.0495,4 -0.36524,0.9027 -0.64183,-0.15871 -0.61465,-2.35871 z M 158.41667,31.089182 c 0.96249,-0.385161 2.11249,-0.337792 2.55556,0.105267 0.44305,0.443056 -0.34445,0.758188 -1.75,0.700293 -1.55327,-0.06397 -1.8692,-0.379921 -0.80556,-0.805556 z m 22.66667,0 c 0.96249,-0.385161 2.11249,-0.337792 2.55556,0.105267 0.44305,0.443056 -0.34446,0.758188 -1.75,0.700293 -1.55327,-0.06397 -1.8692,-0.379921 -0.80556,-0.805556 z"
         id="path839" />
      <path
         style="fill:#FFFFFF;fill-opacity:0.5;stroke-width:1.33333"
         d="m 169.69204,136.40935 c 1.2973,-0.33805 3.0973,-0.31583 4,0.0493 0.90271,0.36524 -0.1587,0.64183 -2.3587,0.61466 -2.2,-0.0272 -2.93859,-0.326 -1.6413,-0.66406 z m 47.74656,-2.52045 c 0.064,-1.55327 0.37992,-1.86921 0.80555,-0.80556 0.38516,0.96249 0.3378,2.11249 -0.1052,2.55556 -0.44307,0.44305 -0.75819,-0.34446 -0.70029,-1.75 z m -53.80166,-8.18454 c 2.36697,-0.29455 6.56697,-0.29939 9.33333,-0.0108 2.76635,0.28863 0.82973,0.52963 -4.3036,0.53554 -5.13333,0.006 -7.39672,-0.23024 -5.02973,-0.52479 z"
         id="path837" />
      <path
         style="fill:#FFFFFF;fill-opacity:0.5;stroke-width:1.33333"
         d="m 126.33334,248.33883 c 7.51666,-0.23767 19.81666,-0.23767 27.33333,0 7.51667,0.23767 1.36667,0.43212 -13.66667,0.43212 -15.03333,0 -21.18333,-0.19445 -13.66666,-0.43212 z m 84.33333,-75.50891 c 0,-0.27686 1.05,-1.32686 2.33333,-2.33333 2.11475,-1.65849 2.16191,-1.61133 0.50342,0.50341 -1.74183,2.221 -2.83675,2.92731 -2.83675,1.82992 z m -71,-80.492586 c 8.98333,-0.230675 23.68333,-0.230675 32.66667,0 8.98333,0.230676 1.63333,0.419409 -16.33334,0.419409 -17.96666,0 -25.31666,-0.188733 -16.33333,-0.419409 z"
         id="path835" />
      <path
         style="fill:#FFFFFF;fill-opacity:0.5;stroke-width:1.33333"
         d="m 166.41667,309.75586 c 0.96249,-0.38516 2.11249,-0.3378 2.55556,0.1052 0.44305,0.44305 -0.34445,0.75819 -1.75,0.70029 -1.55327,-0.064 -1.8692,-0.37992 -0.80556,-0.80554 z m 6.66667,0 c 0.96249,-0.38516 2.11249,-0.3378 2.55556,0.1052 0.44305,0.44305 -0.34446,0.75819 -1.75,0.70029 -1.55327,-0.064 -1.8692,-0.37992 -0.80556,-0.80554 z M 67.829928,265.66667 c -1.658495,-2.11474 -1.611335,-2.1619 0.503407,-0.50341 1.283333,1.00647 2.333333,2.05647 2.333333,2.33333 0,1.09739 -1.094915,0.39108 -2.83674,-1.82992 z M 147.84895,176.945 c 0.58357,-0.58024 6.40629,-0.876 12.93939,-0.65724 l 11.87833,0.39776 -12.93939,0.65724 c -7.11665,0.36148 -12.4619,0.1825 -11.87833,-0.39776 z M 66.666668,76.829928 c 0,-0.276875 1.05,-1.326875 2.333333,-2.333333 2.114742,-1.658495 2.161902,-1.611335 0.503407,0.503406 -1.741825,2.220998 -2.83674,2.927306 -2.83674,1.829927 z M 166.41667,31.089182 c 0.96249,-0.385161 2.11249,-0.337792 2.55556,0.105267 0.44305,0.443056 -0.34445,0.758188 -1.75,0.700293 -1.55327,-0.06397 -1.8692,-0.379921 -0.80556,-0.805556 z m 6.66667,0 c 0.96249,-0.385161 2.11249,-0.337792 2.55556,0.105267 0.44305,0.443056 -0.34446,0.758188 -1.75,0.700293 -1.55327,-0.06397 -1.8692,-0.379921 -0.80556,-0.805556 z"
         id="path833" />
      <path
         style="fill:#FFFFFF;fill-opacity:0.5;stroke-width:1.33333"
         d="m 268.00001,270.16326 c 0,-0.27687 1.05,-1.32687 2.33333,-2.33333 2.11475,-1.6585 2.16191,-1.61134 0.50341,0.50341 -1.74182,2.221 -2.83674,2.92731 -2.83674,1.82992 z M 209.16326,112.33334 c -1.6585,-2.11475 -1.61134,-2.16191 0.50341,-0.50341 2.221,1.74182 2.92731,2.83674 1.82992,2.83674 -0.27687,0 -1.32687,-1.05 -2.33333,-2.33333 z m 60,-40.000005 c -1.65849,-2.114742 -1.61133,-2.161902 0.50341,-0.503407 2.221,1.741825 2.92731,2.83674 1.82992,2.83674 -0.27686,0 -1.32686,-1.05 -2.33333,-2.333333 z"
         id="path831" />
      <path
         style="fill:#FFFFFF;fill-opacity:0.5;stroke-width:1.33333"
         d="M 146,307.78546 C 118.14145,302.5635 94.831381,290.5119 74.10744,270.61609 24.517482,223.00775 16.966963,147.92208 56.079977,91.343108 64.858552,78.644454 83.506286,60.825887 96.479215,52.740214 119.00168,38.702578 142.89175,32.035033 170.66667,32.035033 c 37.92553,0 69.51936,12.583041 96.21915,38.321711 28.99864,27.954762 42.7838,60.275156 42.7838,100.309926 0,40.03477 -13.78516,72.35516 -42.7838,100.30992 -27.00215,26.03015 -58.58886,38.48088 -96.88582,38.19011 -9.53333,-0.0724 -20.33333,-0.69395 -24,-1.38124 z m 21.54643,-60.52663 c 0.43783,-1.14097 2.4096,-9.39097 4.38169,-18.33333 l 3.58564,-16.25883 15.24312,-0.70527 c 13.50018,-0.62462 16.26814,-1.18642 24.20756,-4.9133 16.08744,-7.55168 26.56235,-20.08936 30.99168,-37.09471 4.47955,-17.19813 1.53872,-29.33855 -9.87048,-40.74775 -4.2225,-4.22251 -9.30094,-10.99592 -11.28541,-15.05202 -5.27553,-10.78281 -14.94216,-17.78165 -28.53252,-20.658134 -7.30907,-1.54701 -73.60104,-2.168714 -73.60104,-0.690251 0,0.96552 -27.874627,125.512395 -28.840262,128.861435 C 93.220874,223.7668 94.361937,224 105.24348,224 c 6.64942,0 12.08986,0.27676 12.08986,0.61503 0,0.33828 -1.2,5.76151 -2.66667,12.05164 C 113.2,242.9568 112,248.38003 112,248.71831 c 0,0.33827 12.31883,0.61503 27.37518,0.61503 23.54048,0 27.48669,-0.2906 28.17125,-2.07451 z M 127.32694,233 c 1.88891,-9.3852 1.38023,-9 11.88502,-9 h 9.69892 l 3.90022,-17.66666 3.9002,-17.66667 14.64436,-0.831 c 16.82926,-0.95499 25.39997,-3.76277 36.10858,-11.82929 C 217.07091,168.76994 228,151.05412 228,142.71838 c 0,-4.84204 2.56879,-4.13734 5.44099,1.49265 2.39116,4.68704 2.77025,7.2262 2.24653,15.04709 -0.78424,11.71134 -4.80338,20.6023 -13.05709,28.88419 -9.27669,9.30839 -17.93719,12.14229 -39.37112,12.88311 l -17.40735,0.60164 -3.76061,17.85314 -3.7606,17.85314 h -15.93797 -15.93799 z m -19.32038,-20.66666 c 0.004,-0.55 5.40361,-24.92702 12,-54.17115 C 126.60295,128.91806 132,104.76806 132,104.49553 132,104.22299 145.3911,104 161.758,104 c 35.65166,0 40.4462,0.97374 48.65754,9.88199 6.01646,6.5271 7.55668,11.73202 6.66197,22.51315 -1.22541,14.76604 -11.19343,28.85877 -25.07751,35.45446 -6.5043,3.08991 -9.43586,3.5591 -25.93185,4.1504 l -18.59852,0.66667 -3.9738,18.33333 -3.97379,18.33334 h -15.76102 c -8.66856,0 -15.75807,-0.45 -15.75446,-1 z m 67.72632,-58.20666 c 8.5925,-4.47066 13.25546,-13.5603 10.70687,-20.87118 -1.95316,-5.60284 -7.26776,-7.92216 -18.15313,-7.92216 h -9.17915 l -3.04387,13.63289 c -1.67413,7.49809 -3.33749,14.39809 -3.69638,15.33333 -0.94382,2.45955 18.58392,2.31507 23.36566,-0.17288 z m -8.57748,-11.77722 c 0.44451,-1.65887 0.81639,-3.46612 0.8264,-4.01612 0.0107,-0.55 1.89139,-1 4.18083,-1 3.96551,0 4.07216,0.13625 2.25219,2.87728 -1.05075,1.5825 -3.2958,3.38976 -4.98902,4.01612 -2.7479,1.01652 -2.99177,0.81486 -2.2704,-1.87728 z"
         id="path829" />
    </g>
  </g>
</svg>
