<?xml version="1.0" encoding="UTF-8" standalone="no"?>
<svg xmlns="http://www.w3.org/2000/svg" xmlns:xlink="http://www.w3.org/1999/xlink" width="128" height="128">
  <defs>
    <path id="h" fill="#493a3a" d="M105.72747 108.4109c0 7.70651-18.742097 13.95387-41.861641 13.95387-23.119543 0-41.861637-6.24736-41.861637-13.95387 0-7.70652 18.742094-13.953882 41.861637-13.953882 23.119544 0 41.861641 6.247362 41.861641 13.953882z" filter="url(#a)"/>
    <path id="n" fill="#eafafe" d="M197.93476 41.25676c-19.09858 0-34.34541 35.891973-37.57475 63.18074 0 19.19023 29.79495 21.18074 37.36824 21.18074h.0313c7.55874 0 37.08974-1.99051 37.08974-21.18074-3.43074-32.232558-17.9772-63.18074-36.91448-63.18074zm2.09375 2.15625c14.86049.567681 27.52028 25.913908 30.66448 52.64949 0 16.01775-24.56183 17.61824-30.87099 17.61824-6.32129 0-31.11824 1.34245-31.11824-14.675303 2.69547-22.777463 15.38352-55.592427 31.32475-55.592427z" filter="url(#b)" opacity=".257426"/>
    <path id="t" fill="url(#c)" d="M80.503145 25.895178c0 2.148932-1.742053 3.890985-3.890985 3.890985s-3.890986-1.742053-3.890986-3.890985 1.742054-3.890985 3.890986-3.890985 3.890985 1.742053 3.890985 3.890985z"/>
    <path id="y" fill="url(#d)" d="M81.576523 73.794548c0 2.371235-1.321558 4.293501-2.951782 4.293501-1.630225 0-2.951782-1.922266-2.951782-4.293501s1.321557-4.293501 2.951782-4.293501c1.630224 0 2.951782 1.922266 2.951782 4.293501z" filter="url(#e)"/>
  </defs>
  <defs>
    <radialGradient id="i" cx="65.091911" cy="72.806175" r="37.245823" fx="74.382874" fy="63.986317" gradientTransform="matrix(.88578 0 0 1.23494 7.385541 -16.106235)" gradientUnits="userSpaceOnUse">
      <stop offset="0" stop-color="#eaf9cd"/>
      <stop offset=".2265625" stop-color="#bcd792"/>
      <stop offset=".5" stop-color="#88b558"/>
      <stop offset="1" stop-color="#2c580c"/>
    </radialGradient>
    <radialGradient xlink:href="#f" id="j" cx="64.195038" cy="79.677887" r="37.245823" gradientTransform="matrix(.8588 0 0 1.25366 -118.09908 -11.053045)" gradientUnits="userSpaceOnUse"/>
    <radialGradient xlink:href="#f" id="s" cx="62.59527687" cy="33.4841567" r="25.03170141" fx="68.87324017" fy="20.03140613" gradientUnits="userSpaceOnUse"/>
    <radialGradient id="c" cx="76.61216" cy="25.895178" r="3.890985" gradientUnits="userSpaceOnUse">
      <stop offset="0" stop-color="#fff"/>
      <stop offset="1" stop-color="#fff" stop-opacity="0"/>
    </radialGradient>
    <radialGradient id="u" cx="59.612423" cy="32.667538" r="29.958668" gradientTransform="matrix(1.07321 0 0 1.00167 -3.089268 -.94553)" gradientUnits="userSpaceOnUse">
      <stop offset="0" stop-color="#fff" stop-opacity="0"/>
      <stop offset=".5" stop-color="#f2efef" stop-opacity="0"/>
      <stop offset=".81488997" stop-color="#d2fc84" stop-opacity="0"/>
      <stop offset=".89840978" stop-color="#e7f0b9" stop-opacity=".498039"/>
      <stop offset="1" stop-color="#e0ecb5"/>
    </radialGradient>
    <radialGradient id="x" cx="55.369141" cy="36.077316" r="29.958668" fx="54.83873" fy="18.270697" gradientTransform="matrix(1.07321 0 0 1.00167 -3.089268 -.94553)" gradientUnits="userSpaceOnUse">
      <stop offset="0" stop-color="#fff" stop-opacity="0"/>
      <stop offset=".5" stop-color="#f2efef" stop-opacity="0"/>
      <stop offset=".86730784" stop-color="#4f6719" stop-opacity="0"/>
      <stop offset=".9181866" stop-color="#dff0b9" stop-opacity=".498039"/>
      <stop offset="1" stop-color="#deecb5"/>
    </radialGradient>
    <radialGradient id="d" cx="78.624741" cy="73.794548" r="2.951782" gradientTransform="matrix(1 0 0 1.45455 0 -33.542972)" gradientUnits="userSpaceOnUse">
      <stop offset="0" stop-color="#f3f0f0"/>
      <stop offset="1" stop-color="#f3f0f0" stop-opacity="0"/>
    </radialGradient>
    <radialGradient xlink:href="#g" id="D" cx="65.091911" cy="72.806175" r="37.245823" fx="74.382874" fy="63.986317" gradientTransform="matrix(.88578 0 0 1.23494 7.385541 -16.106235)" gradientUnits="userSpaceOnUse"/>
    <radialGradient xlink:href="#g" id="E" cx="64.195038" cy="79.677887" r="37.245823" gradientTransform="matrix(.8588 0 0 1.25366 -118.09908 -11.053045)" gradientUnits="userSpaceOnUse"/>
    <radialGradient xlink:href="#g" id="G" cx="62.59527687" cy="33.4841567" r="25.03170141" fx="68.87324017" fy="20.03140613" gradientUnits="userSpaceOnUse"/>
    <radialGradient id="H" cx="59.612423" cy="32.667538" r="29.958668" gradientTransform="matrix(1.07321 0 0 1.00167 -3.089268 -.94553)" gradientUnits="userSpaceOnUse">
      <stop offset="0" stop-color="#fff" stop-opacity="0"/>
      <stop offset=".5" stop-color="#f2efef" stop-opacity="0"/>
      <stop offset=".81488997" stop-color="#d2fc84" stop-opacity="0"/>
      <stop offset=".89840978" stop-color="#b9d7f0" stop-opacity=".498039"/>
      <stop offset="1" stop-color="#b5e5ec"/>
    </radialGradient>
    <radialGradient id="I" cx="55.369141" cy="36.077316" r="29.958668" fx="54.83873" fy="18.270697" gradientTransform="matrix(1.07321 0 0 1.00167 -3.089268 -.94553)" gradientUnits="userSpaceOnUse">
      <stop offset="0" stop-color="#fff" stop-opacity="0"/>
      <stop offset=".5" stop-color="#f2efef" stop-opacity="0"/>
      <stop offset=".86730784" stop-color="#193767" stop-opacity="0"/>
      <stop offset=".9181866" stop-color="#b9d7f0" stop-opacity=".498039"/>
      <stop offset="1" stop-color="#b5e5ec"/>
    </radialGradient>
    <filter id="C" width="1.175077" height="1.542737" x="-.087538" y="-.271369">
      <feGaussianBlur stdDeviation=".60683384"/>
    </filter>
    <filter id="A" width="1.0976" height="1.337931" x="-.0488" y="-.168966">
      <feGaussianBlur stdDeviation=".38061286"/>
    </filter>
    <filter id="p">
      <feGaussianBlur stdDeviation="1.1581836"/>
    </filter>
    <filter id="a" width="1.107318" height="1.321955" x="-.053659" y="-.160978">
      <feGaussianBlur stdDeviation="1.8718847"/>
    </filter>
    <filter id="e">
      <feGaussianBlur stdDeviation=".10604798"/>
    </filter>
    <filter id="o">
      <feGaussianBlur stdDeviation="1.951608"/>
    </filter>
    <filter id="b">
      <feGaussianBlur stdDeviation=".975804"/>
    </filter>
    <filter id="l">
      <feGaussianBlur stdDeviation="2.9990898"/>
    </filter>
    <filter id="r">
      <feGaussianBlur stdDeviation="1.1909132"/>
    </filter>
    <filter id="w">
      <feGaussianBlur stdDeviation="1.3088738"/>
    </filter>
    <filter id="N">
      <feGaussianBlur stdDeviation=".91339828"/>
    </filter>
    <filter id="M" width="1.099902" height="1.361274" x="-.049951" y="-.180637">
      <feGaussianBlur stdDeviation="5.0199691"/>
    </filter>
    <linearGradient id="f">
      <stop offset="0" stop-color="#eaf9cd"/>
      <stop offset=".2265625" stop-color="#ccd792"/>
      <stop offset=".5" stop-color="#9db558"/>
      <stop offset="1" stop-color="#3a580c"/>
    </linearGradient>
    <linearGradient id="g">
      <stop offset="0" stop-color="#cddff9"/>
      <stop offset=".2265625" stop-color="#92aed7"/>
      <stop offset=".5" stop-color="#587eb5"/>
      <stop offset="1" stop-color="#0c2a58"/>
    </linearGradient>
    <linearGradient id="q" x1="75.630875" x2="75.630875" y1="115.03548" y2="36.603489" gradientUnits="userSpaceOnUse">
      <stop offset="0" stop-color="#31420a"/>
      <stop offset="1" stop-color="#50731b"/>
    </linearGradient>
    <linearGradient id="z" x1="63.062294" x2="63.060799" y1="48.772083" y2="46.802841" gradientTransform="matrix(1.12445 0 0 1.17964 -6.863662 .872251)" gradientUnits="userSpaceOnUse">
      <stop offset="0" stop-color="#586918"/>
      <stop offset="1" stop-color="#daebb4"/>
    </linearGradient>
    <linearGradient id="B" x1="63.060799" x2="63.060799" y1="49.136856" y2="46.289307" gradientUnits="userSpaceOnUse">
      <stop offset="0" stop-color="#61873a"/>
      <stop offset="1" stop-color="#cfd8a0"/>
    </linearGradient>
    <linearGradient id="F" x1="75.630875" x2="75.630875" y1="115.03548" y2="36.603489" gradientUnits="userSpaceOnUse">
      <stop offset="0" stop-color="#0a2042"/>
      <stop offset="1" stop-color="#1b3473"/>
    </linearGradient>
    <linearGradient id="J" x1="63.062294" x2="63.060799" y1="48.772083" y2="46.802841" gradientTransform="matrix(1.12445 0 0 1.17964 -6.863662 .872251)" gradientUnits="userSpaceOnUse">
      <stop offset="0" stop-color="#183069"/>
      <stop offset="1" stop-color="#b4dfeb"/>
    </linearGradient>
    <linearGradient id="K" x1="63.060799" x2="63.060799" y1="49.136856" y2="46.289307" gradientUnits="userSpaceOnUse">
      <stop offset="0" stop-color="#3a5787"/>
      <stop offset="1" stop-color="#a0c3d8"/>
    </linearGradient>
    <clipPath id="m">
      <path d="M212.53734 102.63288c0 18.64627 29.36263 20.99639 36.72125 20.99639h.00718c7.34448 0 36.76435-2.35012 36.76435-20.99639-3.33349-31.318902-18.37463-61.789489-36.77512-61.789489-18.55721 0-33.57986 35.274244-36.71766 61.789489z"/>
    </clipPath>
    <clipPath id="k">
      <path d="M-99.715141 102.63288c0 18.64627 29.362634 20.99639 36.721251 20.99639h.007183c7.344475 0 36.764347-2.35012 36.764347-20.99639-3.333491-31.318902-18.374635-61.789489-36.775121-61.789489-18.557207 0-33.57986 35.274244-36.71766 61.789489z"/>
    </clipPath>
    <clipPath id="v">
      <path d="M88 37.27911a29.958668 29.958668 0 1 1-59.917336 0 29.958668 29.958668 0 1 1 59.917336 0z"/>
    </clipPath>
    <clipPath id="L">
      <path d="m246.82035 128.98624-19.99436 109.50293-90.18735-167.826766L278.90366 5.6374872 508.61176 75.28004l-11.23267 64.58785-48.86211 62.34132L256.0171 97.815584c-4.27051 10.075696-7.01236 20.124646-9.19675 31.170656z"/>
    </clipPath>
  </defs>
  <path fill="#fff" fill-opacity=".756881" d="M138.51308-135.31597v-.81738z"/>
  <g transform="translate(-8.602747 5.998533) scale(.81325)">
    <use xlink:href="#h" filter="url(#a)" transform="matrix(.86106 0 0 1.1808 8.993186 -19.441249)"/>
    <g fill-rule="evenodd">
      <path fill="url(#i)" d="M26.030656 103.54578c0 17.88687 30.298623 20.14128 37.89181 20.14128h.0074c7.578594 0 37.936284-2.25441 37.936284-20.14128-3.439757-30.04339-18.960366-59.273013-37.947402-59.273013-19.148752 0-34.650281 33.837644-37.888104 59.273013z"/>
      <path fill="url(#j)" d="M-63 36.34375c-19.565923 0-35.410386 37.19971-38.71875 65.15625 0 18.43108 27.205878 21.74953 37 22.09375-8.487132-.33975-31.000003-3.26507-31-18.6875C-92.922073 81.273584-79.539775 49.84375-63 49.84375c16.400092 0 29.810157 27.148404 32.78125 55.0625 0 15.43999-22.60164 18.35321-31.0625 18.6875 9.788466-.34423 37.0625-3.66267 37.0625-22.09375C-27.733439 68.478694-43.599317 36.34375-63 36.34375z" clip-path="url(#k)" filter="url(#l)" transform="matrix(1.03188 0 0 .95927 129.02759 5.092789)"/>
      <g clip-path="url(#m)" transform="matrix(1.03188 0 0 .95927 -193.23402 4.996861)">
        <use xlink:href="#n" filter="url(#b)" opacity=".257426" transform="translate(57.597648 1.286593) scale(.9685)"/>
        <path fill="#e7f8bd" d="M198.96728 41.360012c-19.09858 0-34.86167 35.788721-38.09101 63.077488 0 19.19023 29.17544 20.56123 36.74873 20.56123h.0313c7.55874 0 37.8125-1.371 37.8125-20.56123-3.43074-32.232558-17.56419-63.077488-36.50147-63.077488zm.93623.96199c15.75392 1.000837 29.93433 27.818295 33.15899 56.146748 0 16.97856-26.78115 20.51036-33.46875 20.51036-6.70047 0-33.43749-3.5318-33.4375-20.51036 2.85716-24.143741 16.8498-56.146749 33.74726-56.146748z" filter="url(#o)" opacity=".40099" transform="translate(57.597648 1.286593) scale(.9685)"/>
        <path fill="#f4ffe4" fill-opacity=".796791" d="M197.625 41.360012c-19.09858 0-34.1389 35.788721-37.36824 63.077488 0 19.19023 29.79495 21.28399 37.36824 21.28399h.0313c7.55874 0 37.29624-2.09376 37.29624-21.28399-.0465-.43641-.1054-.87648-.15625-1.3125-2.21331 16.12619-28.06058 19.44674-35.07749 19.5269-7.01691.0802-36.96117-2.02116-36.33826-21.7144 2.99363-25.296949 17.73419-58.244582 35.30701-59.514988-.35065-.02161-.70939-.0625-1.0625-.0625z" filter="url(#p)" transform="translate(57.597648 1.286593) scale(.9685)"/>
      </g>
      <path fill="url(#q)" d="M64 45.28125c-5.38443.330514-9.667521 2.876658-13.21875 6.40625S44.424248 59.731411 42 64.03125c-5.652197 10.603402-9.569757 23.942213-10.9375 35.5.0026.01026.0026.02099 0 .03125l-.03125.0625v.09375c0 4.3893 1.782964 7.96288 4.46875 10.625 2.68635 2.66267 6.263778 4.48337 9.9375 5.78125 7.347567 2.59579 15.249483 3.09375 18.5625 3.09375h.03125c3.307269 0 11.23586-.49825 18.59375-3.09375 3.678839-1.29771 7.246488-3.11873 9.9375-5.78125 2.690313-2.66183 4.46875-6.23484 4.46875-10.625V99.625L97 99.5625c-.0026-.01026-.0026-.02099 0-.03125-1.447512-13.599702-5.413008-26.979057-11.09375-37.09375C80.225511 52.322811 72.716586 45.28125 64 45.28125zm-.75 7.165158c.251174-.01093.500895 0 .75 0 7.954105-.000002 16.547688 4.745014 21.96875 14.397342C91.37694 76.473151 92.587537 86.615125 94 99.8125c.0037.03427-.00072.05574 0 .0625-.06565 3.8816-1.580188 6.3958-3.875 8.1875s-5.351196 2.86876-8.5 3.875c-6.817819 2.40499-14.617499 2.34375-17.59375 2.34375H64c-2.978505 0-10.762489.0508-17.5625-2.34375-.01-.002-.02128.002-.03125 0-3.379567-.79107-6.311366-1.94962-8.46875-3.84375-2.163748-1.89972-3.555513-4.5525-3.875-8.25C35.388215 88.709434 37.237655 78.165168 42.65625 68 46.764486 60.611645 55.463591 52.785402 63.25 52.446408z" filter="url(#r)" transform="matrix(.94676 0 0 .88015 3.325923 11.287281)"/>
    </g>
    <path fill="url(#s)" d="M88 37.27911c0 16.545715-13.412952 29.958668-29.958668 29.958668-16.545715 0-29.958668-13.412953-29.958668-29.958668S41.495617 7.3204422 58.041332 7.3204422C74.587048 7.3204422 88 20.733395 88 37.27911z" transform="translate(14.927656 -4.675812) scale(.84403)"/>
    <use xlink:href="#t" transform="matrix(.71416 -.2535 .28234 .7954 14.277221 18.948884)"/>
    <path fill="url(#u)" d="M86.875938 37.27911c0 15.924913-12.909692 28.834606-28.834606 28.834606-15.924913 0-28.834606-12.909693-28.834606-28.834606S42.116419 8.4445038 58.041332 8.4445038c.106336 0 .212671.0005882.319.00176l-.319 28.8328416z" clip-path="url(#v)" filter="url(#w)" transform="translate(14.927656 -4.675812) scale(.84403)"/>
    <path fill="url(#x)" d="M87.325563 37.27911c0 16.173234-13.110996 29.284231-29.284231 29.284231-16.173234 0-29.284231-13.110997-29.284231-29.284231S41.868098 7.9948788 58.041332 7.9948788c16.173235 0 29.284231 13.1109972 29.284231 29.2842312z" clip-path="url(#v)" filter="url(#w)" transform="translate(14.816546 -4.675812) scale(.84403)"/>
    <use xlink:href="#y" filter="url(#e)" transform="matrix(1.2678 -.33664 .36212 1.1786 -46.763224 15.957266)"/>
    <path fill="url(#z)" d="M64.03125 54.375c-5.163371 0-9.343749 1.408899-9.34375 3.15625 0 .873675 1.056938 1.677047 2.75 2.25 1.907894-1.395618 4.269286-1.61875 6.8125-1.61875 2.486345.000001 4.77173.1857 6.65625 1.525 1.53608-.564056 2.500001-1.329301 2.5-2.15625 0-1.74735-4.211626-3.156251-9.375-3.15625z" filter="url(#A)" opacity=".569307" transform="matrix(1.03041 0 0 1 -1.947686 -1)"/>
    <path fill="url(#B)" d="M71.379457 48.033543c0 1.482022-3.72439 2.683438-8.318658 2.683438s-8.318658-1.201416-8.318658-2.683438 3.72439-2.683438 8.318658-2.683438 8.318658 1.201416 8.318658 2.683438z" filter="url(#C)" opacity=".222772" transform="matrix(.75134 0 0 .78822 16.66492 10.871829)"/>
  </g>
  <g transform="translate(18.634317 -1.260264) scale(1.03467)">
    <use xlink:href="#h" filter="url(#a)" transform="matrix(.86106 0 0 1.1808 8.993186 -19.441249)"/>
    <g fill-rule="evenodd">
      <path fill="url(#D)" d="M26.030656 103.54578c0 17.88687 30.298623 20.14128 37.89181 20.14128h.0074c7.578594 0 37.936284-2.25441 37.936284-20.14128-3.439757-30.04339-18.960366-59.273013-37.947402-59.273013-19.148752 0-34.650281 33.837644-37.888104 59.273013z"/>
      <path fill="url(#E)" d="M-63 36.34375c-19.565923 0-35.410386 37.19971-38.71875 65.15625 0 18.43108 27.205878 21.74953 37 22.09375-8.487132-.33975-31.000003-3.26507-31-18.6875C-92.922073 81.273584-79.539775 49.84375-63 49.84375c16.400092 0 29.810157 27.148404 32.78125 55.0625 0 15.43999-22.60164 18.35321-31.0625 18.6875 9.788466-.34423 37.0625-3.66267 37.0625-22.09375C-27.733439 68.478694-43.599317 36.34375-63 36.34375z" clip-path="url(#k)" filter="url(#l)" transform="matrix(1.03188 0 0 .95927 129.02759 5.092789)"/>
      <g clip-path="url(#m)" transform="matrix(1.03188 0 0 .95927 -193.23402 4.996861)">
        <use xlink:href="#n" filter="url(#b)" opacity=".257426" transform="translate(57.597648 1.286593) scale(.9685)"/>
        <path fill="#bdf2f8" d="M198.96728 41.360012c-19.09858 0-34.86167 35.788721-38.09101 63.077488 0 19.19023 29.17544 20.56123 36.74873 20.56123h.0313c7.55874 0 37.8125-1.371 37.8125-20.56123-3.43074-32.232558-17.56419-63.077488-36.50147-63.077488zm.93623.96199c15.75392 1.000837 29.93433 27.818295 33.15899 56.146748 0 16.97856-26.78115 20.51036-33.46875 20.51036-6.70047 0-33.43749-3.5318-33.4375-20.51036 2.85716-24.143741 16.8498-56.146749 33.74726-56.146748z" filter="url(#o)" opacity=".234513" transform="translate(57.597648 1.286593) scale(.9685)"/>
        <path fill="#e4feff" fill-opacity=".796791" d="M197.625 41.360012c-19.09858 0-34.1389 35.788721-37.36824 63.077488 0 19.19023 29.79495 21.28399 37.36824 21.28399h.0313c7.55874 0 37.29624-2.09376 37.29624-21.28399-.0465-.43641-.1054-.87648-.15625-1.3125-2.21331 16.12619-28.06058 19.44674-35.07749 19.5269-7.01691.0802-36.96117-2.02116-36.33826-21.7144 2.99363-25.296949 17.73419-58.244582 35.30701-59.514988-.35065-.02161-.70939-.0625-1.0625-.0625z" filter="url(#p)" opacity=".287611" transform="translate(57.597648 1.286593) scale(.9685)"/>
      </g>
      <path fill="url(#F)" d="M64 45.28125c-5.38443.330514-9.667521 2.876658-13.21875 6.40625S44.424248 59.731411 42 64.03125c-5.652197 10.603402-9.569757 23.942213-10.9375 35.5.0026.01026.0026.02099 0 .03125l-.03125.0625v.09375c0 4.3893 1.782964 7.96288 4.46875 10.625 2.68635 2.66267 6.263778 4.48337 9.9375 5.78125 7.347567 2.59579 15.249483 3.09375 18.5625 3.09375h.03125c3.307269 0 11.23586-.49825 18.59375-3.09375 3.678839-1.29771 7.246488-3.11873 9.9375-5.78125 2.690313-2.66183 4.46875-6.23484 4.46875-10.625V99.625L97 99.5625c-.0026-.01026-.0026-.02099 0-.03125-1.447512-13.599702-5.413008-26.979057-11.09375-37.09375C80.225511 52.322811 72.716586 45.28125 64 45.28125zm-.75 7.165158c.251174-.01093.500895 0 .75 0 7.954105-.000002 16.547688 4.745014 21.96875 14.397342C91.37694 76.473151 92.587537 86.615125 94 99.8125c.0037.03427-.00072.05574 0 .0625-.06565 3.8816-1.580188 6.3958-3.875 8.1875s-5.351196 2.86876-8.5 3.875c-6.817819 2.40499-14.617499 2.34375-17.59375 2.34375H64c-2.978505 0-10.762489.0508-17.5625-2.34375-.01-.002-.02128.002-.03125 0-3.379567-.79107-6.311366-1.94962-8.46875-3.84375-2.163748-1.89972-3.555513-4.5525-3.875-8.25C35.388215 88.709434 37.237655 78.165168 42.65625 68 46.764486 60.611645 55.463591 52.785402 63.25 52.446408z" filter="url(#r)" transform="matrix(.94676 0 0 .88015 3.325923 11.287281)"/>
    </g>
    <path fill="url(#G)" d="M88 37.27911c0 16.545715-13.412952 29.958668-29.958668 29.958668-16.545715 0-29.958668-13.412953-29.958668-29.958668S41.495617 7.3204422 58.041332 7.3204422C74.587048 7.3204422 88 20.733395 88 37.27911z" transform="translate(14.927656 -4.675812) scale(.84403)"/>
    <use xlink:href="#t" transform="matrix(.71416 -.2535 .28234 .7954 14.277221 18.948884)"/>
    <path fill="url(#H)" d="M86.875938 37.27911c0 15.924913-12.909692 28.834606-28.834606 28.834606-15.924913 0-28.834606-12.909693-28.834606-28.834606S42.116419 8.4445038 58.041332 8.4445038c.106336 0 .212671.0005882.319.00176l-.319 28.8328416z" clip-path="url(#v)" filter="url(#w)" opacity=".40708" transform="translate(14.927656 -4.675812) scale(.84403)"/>
    <path fill="url(#I)" d="M87.325563 37.27911c0 16.173234-13.110996 29.284231-29.284231 29.284231-16.173234 0-29.284231-13.110997-29.284231-29.284231S41.868098 7.9948788 58.041332 7.9948788c16.173235 0 29.284231 13.1109972 29.284231 29.2842312z" clip-path="url(#v)" filter="url(#w)" opacity=".353982" transform="translate(14.816546 -4.675812) scale(.84403)"/>
    <use xlink:href="#y" filter="url(#e)" transform="matrix(1.2678 -.33664 .36212 1.1786 -46.763224 15.957266)"/>
    <path fill="url(#J)" d="M64.03125 54.375c-5.163371 0-9.343749 1.408899-9.34375 3.15625 0 .873675 1.056938 1.677047 2.75 2.25 1.907894-1.395618 4.269286-1.61875 6.8125-1.61875 2.486345.000001 4.77173.1857 6.65625 1.525 1.53608-.564056 2.500001-1.329301 2.5-2.15625 0-1.74735-4.211626-3.156251-9.375-3.15625z" filter="url(#A)" opacity=".569307" transform="matrix(1.03041 0 0 1 -1.947686 -1)"/>
    <path fill="url(#K)" d="M71.379457 48.033543c0 1.482022-3.72439 2.683438-8.318658 2.683438s-8.318658-1.201416-8.318658-2.683438 3.72439-2.683438 8.318658-2.683438 8.318658 1.201416 8.318658 2.683438z" filter="url(#C)" opacity=".222772" transform="matrix(.75134 0 0 .78822 16.66492 10.871829)"/>
  </g>
  <g clip-path="url(#L)" transform="translate(-121.10756 16.508735) scale(.54278)">
    <path fill="#f8ed99" d="M439.71875 252.78125c-23.84061 1.55743-35.22863 15.30699-37.21875 27.9375-1.27191 8.07231.35602 15.86868 4.5625 21.78125s11.03152 9.85105 19.5 10.15625A2.3546547 2.3546547 0 0 0 429 310.3125v-6.46875a2.3546547 2.3546547 0 0 0-2.3125-2.34375c-2.15476-.0355-6.68884-1.86048-10.09375-5.21875s-5.84316-7.98043-5.15625-13.875c.51132-4.38779 3.38319-8.63548 8.03125-11.90625s11.00949-5.50014 17.96875-5.84375c3.76094-.1857 7.64349.0356 11.65625.5625 22.60928 2.96886 49.04633 16.54025 78.125 29.1875 24.64074 10.71705 51.06564 20.80829 77.375 24.34375 2.78186.37383 5.74792.36705 8.21875.5 11.90327.64049 24.46429-3.04472 30.03125-10.46875a2.3546547 2.3546547 0 0 0-3.75-2.84375c-1.77333 2.31216-5.39167 4.26763-9.96875 5.375s-10.0168 1.40829-15.15625.9375c-2.59267-.23749-5.47537-.60097-7.9375-1.125-27.33193-5.8173-54.52972-19.39751-80.6875-32.0625s-51.26412-24.44525-74.96875-26.21875c-3.58869-.26851-7.14783-.2917-10.65625-.0625z" filter="url(#M)" transform="translate(-173.6327 -184.401066)"/>
    <path fill="#f2b447" d="M467.24755 122.86224c-4.6834 6.24572-16.74752 10.14448-28.02118 9.53787-2.55542-.1375-5.4696-.18049-8.02852-.52436-25.92878-3.48432-52.19711-13.47042-76.76731-24.15679-28.9871-12.60742-55.45555-26.3187-78.73726-29.37586-4.12991-.54231-8.15954-.74937-12.08517-.55554-14.77068.7293-26.99847 9.37492-28.214 19.80568-1.55844 13.37341 11.24044 21.61317 17.5476 21.71706v6.47606c-15.60353-.56235-24.20535-14.15589-21.83173-29.22033 1.82106-11.55755 12.04552-24.4554 35.05656-25.95864 3.39454-.22176 6.8353-.18701 10.31975.0737 46.09337 3.44854 99.83122 46.43568 155.32997 58.24798 2.61519.55661 5.57701.90096 8.22032 1.14309 10.75887.98554 22.63857-1.24817 27.21097-7.2099z"/>
    <path fill="#fcf7d1" d="M440.0625 258.03125c-9.90578.64711-16.99851 3.47563-22.09375 7.25 5.34404-3.3521 11.95123-5.51771 19.1875-5.875 4.12975-.20391 8.3499.001 12.625.5625 24.1151 3.16659 50.65764 17.03569 79.53125 29.59375 13.19882 5.74059 26.85769 11.16263 40.625 15.5625-15.99887-6.38546-31.68915-13.95986-46.875-21.3125-26.11108-12.64238-50.8625-24.05549-73.09375-25.71875-3.35526-.25104-6.65285-.27504-9.90625-.0625zm-31.125 36.6875c.64344 1.70099 1.42983 3.30238 2.4375 4.71875 2.80241 3.93903 6.95954 6.61578 12.375 7.53125v-.625c-3.63695-.82083-7.49468-2.97848-10.875-6.3125-1.5134-1.49267-2.81257-3.32336-3.9375-5.3125z" filter="url(#N)" transform="translate(-173.71429 -183.51948)"/>
  </g>
</svg>