<?xml version="1.0" encoding="UTF-8" standalone="no"?>
<!-- Created with Inkscape (http://www.inkscape.org/) -->

<svg
   version="1.1"
   id="svg2"
   width="341.33334"
   height="341.33334"
   viewBox="0 0 341.33334 341.33334"
   sodipodi:docname="icon_faq.svg"
   inkscape:version="1.1.1 (3bf5ae0d25, 2021-09-20, custom)"
   xmlns:inkscape="http://www.inkscape.org/namespaces/inkscape"
   xmlns:sodipodi="http://sodipodi.sourceforge.net/DTD/sodipodi-0.dtd"
   xmlns="http://www.w3.org/2000/svg"
   xmlns:svg="http://www.w3.org/2000/svg">
  <defs
     id="defs6" />
  <sodipodi:namedview
     id="namedview4"
     pagecolor="#ffffff"
     bordercolor="#666666"
     borderopacity="1.0"
     inkscape:pageshadow="2"
     inkscape:pageopacity="0.0"
     inkscape:pagecheckerboard="0"
     showgrid="false"
     inkscape:zoom="2.5546874"
     inkscape:cx="170.66667"
     inkscape:cy="170.66667"
     inkscape:window-width="1920"
     inkscape:window-height="1080"
     inkscape:window-x="1920"
     inkscape:window-y="0"
     inkscape:window-maximized="1"
     inkscape:current-layer="g8" />
  <g
     inkscape:groupmode="layer"
     inkscape:label="Image"
     id="g8">
    <g
       id="g827"
       transform="translate(-0.00716745,0.49941495)"
       style="fill:#FFFFFF">
      <path
         style="fill:#FFFFFF;fill-opacity:0.5;stroke-width:1.33333"
         d="M 177.33334,120.66667 C 179.82104,118.1 182.15644,116 182.52311,116 c 0.36667,0 -1.36873,2.1 -3.85644,4.66667 -2.48771,2.56667 -4.82311,4.66667 -5.18977,4.66667 -0.36667,0 1.36873,-2.1 3.85644,-4.66667 z m -2.91667,-65.577488 c 0.96249,-0.385161 2.11249,-0.337792 2.55556,0.105267 0.44305,0.443056 -0.34445,0.758188 -1.75,0.700293 -1.55327,-0.06397 -1.8692,-0.379921 -0.80556,-0.805556 z M 315.82993,25.666667 c -1.6585,-2.114741 -1.61134,-2.161901 0.50341,-0.503407 2.221,1.741826 2.92731,2.836741 1.82992,2.836741 -0.27687,0 -1.32687,-1.05 -2.33333,-2.333334 z"
         id="path837" />
      <path
         style="fill:#FFFFFF;fill-opacity:0.5;stroke-width:1.33333"
         d="m 168.35871,55.076013 c 1.29729,-0.338057 3.09729,-0.315825 4,0.0494 0.90271,0.365231 -0.15871,0.641824 -2.35871,0.614651 -2.2,-0.02717 -2.93858,-0.325998 -1.64129,-0.664056 z M 101.66667,0.33359798 c 37.95,-0.19667831 100.05,-0.19667831 138,0 37.95,0.19667832 6.9,0.35759694 -69,0.35759694 -75.900001,0 -106.950002,-0.16091862 -69,-0.35759694 z"
         id="path835" />
      <path
         style="fill:#FFFFFF;fill-opacity:0.5;stroke-width:1.33333"
         d="m 103,20.333608 c 37.21667,-0.196925 98.11667,-0.196925 135.33334,0 37.21667,0.196926 6.76666,0.358047 -67.66667,0.358047 -74.433335,0 -104.883335,-0.161121 -67.66667,-0.358047 z"
         id="path833" />
      <path
         style="fill:#FFFFFF;fill-opacity:0.5;stroke-width:1.33333"
         d="m 181.16326,192.33334 c -1.6585,-2.11475 -1.61134,-2.16191 0.50341,-0.50342 1.28333,1.00647 2.33333,2.05647 2.33333,2.33334 0,1.09738 -1.09492,0.39108 -2.83674,-1.82992 z M 180,150.16326 c 0,-0.27687 1.05,-1.32687 2.33334,-2.33334 2.11474,-1.65849 2.1619,-1.61133 0.50341,0.50342 -1.74183,2.221 -2.83675,2.9273 -2.83675,1.82992 z m 9.33334,-9.33334 c 0,-0.27686 1.05,-1.32686 2.33333,-2.33333 2.11475,-1.65849 2.16191,-1.61133 0.50341,0.50341 -1.74182,2.221 -2.83674,2.92731 -2.83674,1.82992 z m 26.87718,-43.496585 c 0,-1.833333 0.30264,-2.583333 0.67252,-1.666666 0.36988,0.916666 0.36988,2.416666 0,3.333333 -0.36988,0.916667 -0.67252,0.166667 -0.67252,-1.666667 z m -11.67053,-28.333334 -2.53999,-3 3,2.539984 c 2.81926,2.386958 3.60699,3.460016 2.53999,3.460016 -0.25301,0 -1.60301,-1.35 -3,-3 z"
         id="path831" />
      <path
         style="fill:#FFFFFF;fill-opacity:0.5;stroke-width:1.33333"
         d="M 6.8224972,337.82575 C -0.22320156,332.89075 0,338.04478 0,180.28483 0,18.665862 -0.36725821,25.933165 8.3798214,14.464975 10.757582,11.347521 15.659572,7.2846129 19.309512,5.4061361 L 25.927743,2 168.56602,1.6487942 C 325.45189,1.2625077 318.01777,0.90308992 328.29083,9.371018 c 2.68015,2.209208 6.56115,7.454496 8.62443,11.656196 l 3.75141,7.639453 V 140 c 0,124.00981 0.62768,115.46544 -9.28853,126.44151 -2.68455,2.97148 -7.69285,6.78774 -11.12956,8.48059 l -6.24857,3.07791 -109.33334,0.66666 c -90.28699,0.55054 -109.914016,0.99167 -112.666668,2.53234 -1.833334,1.0261 -17.433334,13.65588 -34.666668,28.06617 -17.233333,14.41028 -32.816838,27.22073 -34.630008,28.46767 -4.174872,2.8711 -11.850286,2.916 -15.8808288,0.0929 z M 51.225461,288.8317 c 15.648331,-13.15104 29.821921,-23.95539 34.107874,-26 L 92.666668,259.33334 202,258.66667 c 118.6375,-0.7234 112.57543,-0.30456 117.17802,-8.09612 1.93716,-3.27935 2.15333,-14.49184 2.13567,-110.77627 -0.0151,-82.369523 -0.4003,-107.868269 -1.66667,-110.332414 -0.90585,-1.762641 -3.34101,-4.462642 -5.41145,-6 l -3.76444,-2.795199 H 170.66667 30.862215 l -3.764441,2.795199 c -2.070442,1.537358 -4.505595,4.237359 -5.411451,6 -1.276201,2.483269 -1.651436,34.986426 -1.666667,144.368054 -0.01833,131.67793 0.12988,141.04031 2.205804,139.33334 1.224003,-1.00645 14.274003,-11.95565 29.000001,-24.33156 z M 161.77722,223.87027 c -13.06551,-3.78265 -16.44975,-24.05728 -5.40086,-32.35588 8.88879,-6.6762 18.94742,-5.67377 26.22367,2.61341 3.38748,3.85815 4.06664,5.7586 4.06664,11.37954 0,8.58497 -3.04852,13.79417 -10.05851,17.18765 -5.90493,2.85853 -8.34817,3.05215 -14.83094,1.17528 z m -6.53058,-61.53693 c -1.44328,-6.47942 -0.8496,-13.94436 1.46494,-18.42018 1.13304,-2.19105 8.58254,-10.41785 16.55446,-18.28177 11.2025,-11.05074 14.86362,-15.55583 16.12003,-19.83611 3.20129,-10.905894 -1.649,-20.810296 -12.27268,-25.06105 -12.32432,-4.931211 -23.4844,1.846 -31.2992,19.007135 -0.10213,0.224417 -4.79215,-1.525544 -10.42212,-3.888802 -9.6411,-4.04698 -10.18709,-4.497123 -9.38965,-7.741363 2.56802,-10.447529 13.31376,-22.682636 24.54894,-27.951445 6.48666,-3.041961 9.17063,-3.491955 20.78198,-3.484325 15.65757,0.01027 22.06264,2.306991 32.01328,11.479161 8.90053,8.204229 11.66086,14.332553 12.38309,27.492262 0.86387,15.740457 -2.43279,22.035587 -21.13227,40.353147 -7.86054,7.7 -14.96064,15.31056 -15.778,16.91235 -0.81736,1.60179 -1.4861,5.35179 -1.4861,8.33333 v 5.42099 h -10.56072 -10.56074 z"
         id="path829" />
    </g>
  </g>
</svg>
