<?xml version="1.0" encoding="UTF-8" standalone="no"?>
<svg
   width="7.9288259in"
   height="4.8399348in"
   viewBox="0 0 2378.6433 1451.976"
   version="1.1"
   id="svg3"
   sodipodi:docname="people.svg"
   inkscape:version="1.2.2 (b0a8486541, 2022-12-01)"
   xmlns:inkscape="http://www.inkscape.org/namespaces/inkscape"
   xmlns:sodipodi="http://sodipodi.sourceforge.net/DTD/sodipodi-0.dtd"
   xmlns="http://www.w3.org/2000/svg"
   xmlns:svg="http://www.w3.org/2000/svg">
  <defs
     id="defs7" />
  <sodipodi:namedview
     id="namedview5"
     pagecolor="#505050"
     bordercolor="#eeeeee"
     borderopacity="1"
     inkscape:showpageshadow="0"
     inkscape:pageopacity="0"
     inkscape:pagecheckerboard="0"
     inkscape:deskcolor="#505050"
     inkscape:document-units="in"
     showgrid="false"
     inkscape:zoom="0.71876018"
     inkscape:cx="260.86587"
     inkscape:cy="253.21381"
     inkscape:window-width="1920"
     inkscape:window-height="1048"
     inkscape:window-x="1920"
     inkscape:window-y="0"
     inkscape:window-maximized="1"
     inkscape:current-layer="svg3" />
  <path
     id="Selection"
     fill="none"
     stroke="#000000"
     stroke-width="1"
     d="m 1149.0146,883.56523 c 0,0 -2.949,17.5277 -2.949,17.5277 -1.4417,9.8023 -2.73,19.7668 -5.2583,29.3588 0,0 -3.3697,10.9548 -3.3697,10.9548 -2.3181,6.1347 -3.7247,7.9795 -5.2233,14.8986 -1.4855,6.8664 -1.9587,14.4647 -2.4407,21.4714 -0.2542,3.6852 -0.3111,7.8085 -1.2489,11.393 0,0 -4.0269,10.5166 -4.0269,10.5166 0,0 -6.4108,19.71857 -6.4108,19.71857 -5.8718,21.1121 -9.6972,42.601 -14.3902,63.976 -2.0289,9.2371 -7.2521,28.0969 -7.2652,36.37 0,0 0,22.786 0,22.786 -0.07,5.9594 -3.2339,20.354 -4.6361,26.7297 0,0 -7.5238,37.6845 -7.5238,37.6845 -2.5546,14.7232 -4.0752,29.7664 -4.0533,44.6956 0,0 0.4339,6.1347 0.4339,6.1347 0.1007,4.5177 -2.2962,16.476 -3.2339,21.4714 -1.4723,7.8699 -2.2523,15.7048 -2.8176,23.6624 0,0 0.7011,10.5166 0.7011,10.5166 0.4032,2.2304 0.9421,4.4388 0,6.5728 0,0 -3.58,4.8202 -3.58,4.8202 -0.7931,1.2181 -1.0779,2.6072 -2.1515,3.5274 -2.1121,1.8097 -6.3275,3.2382 -7.1995,6.3669 -0.2542,0.9115 0.3987,3.0849 0.5653,4.1278 0.3768,2.3093 0.6266,4.6711 0.631,7.0111 0,0 0,17.5277 0,17.5277 0,1.1612 0.083,2.4407 -0.447,3.5055 -1.0166,2.0288 -8.7638,8.3651 -10.946,10.0214 -7.125,5.4073 -13.3342,9.2196 -21.9096,11.8794 -8.4352,2.6117 -17.7863,3.3434 -24.977,9.0005 -6.82264,5.3635 -3.0805,6.9848 -9.71034,15.9852 -5.7579,7.8262 -13.9389,13.4701 -22.2777,18.2814 -4.7895,2.7606 -10.1266,6.1873 -15.3367,7.9751 -4.4345,1.5205 -12.3877,2.6555 -17.0895,2.6642 0,0 -9.2021,0 -9.2021,0 -9.9075,0 -14.7144,0.1227 -24.5387,-2.6905 -4.3206,-1.2401 -9.706,-3.821 -12.5367,-7.3879 -1.3102,-1.652 -2.318,-4.1146 -2.9227,-6.1347 -0.7274,-2.4276 -0.7493,-3.2119 -0.7537,-5.6965 0,0 0,-1.7528 0,-1.7528 0.066,-5.5343 2.6949,-12.1773 5.1487,-17.0894 1.4811,-2.9578 5.2277,-9.7454 7.0856,-12.2694 0,0 17.5189,-19.2805 17.5189,-19.2805 2.3619,-2.6204 5.0787,-8.1197 6.7263,-11.393 2.4714,-4.9165 5.1794,-9.8724 8.2161,-14.4603 1.8754,-2.8263 4.6141,-6.3888 7.0154,-8.7463 2.2348,-2.1866 4.2417,-3.2426 5.771,-6.1522 2.3531,-4.4784 3.4004,-14.5743 3.4267,-19.7187 0.013,-2.6291 0.2497,-5.2846 0.6266,-7.8874 0.1972,-1.376 0.7274,-3.5143 0.4995,-4.8201 -0.5696,-3.3084 -5.0742,-9.2284 -4.5835,-12.2694 0,0 2.7168,-7.4493 2.7168,-7.4493 0,0 5.6965,-15.7749 5.6965,-15.7749 2.4539,-5.3591 5.1093,-7.9795 5.9332,-9.6402 0.6529,-1.3058 1.7483,-7.4099 2.0726,-9.2021 0,0 3.3215,-25.8533 3.3215,-25.8533 0,0 1.6651,-15.7749 1.6651,-15.7749 0,0 -0.4206,-5.6965 -0.4206,-5.6965 0,0 0,-7.8875 0,-7.8875 0,0 -0.3988,-4.3819 -0.3988,-4.3819 0,0 -0.3681,-5.2583 -0.3681,-5.2583 0,0 -2.6423,-10.9548 -2.6423,-10.9548 0,0 0.7406,-10.0784 0.7406,-10.0784 0,0 1.8667,-22.786 1.8667,-22.786 1.6125,-16.1386 4.7719,-34.4419 9.443,-49.9539 0,0 5.7316,-16.2131 5.7316,-16.2131 0,0 3.4222,-8.3256 3.4222,-8.3256 0,0 0.6091,-9.2021 0.6091,-9.2021 0,0 0.4207,-4.3819 0.4207,-4.3819 0,0 0,-4.3819 0,-4.3819 0,0 0.4557,-6.5729 0.4557,-6.5729 0,0 0,-9.6402 0,-9.6402 0,0 -1.3146,-17.0895 -1.3146,-17.0895 0,0 -0.4382,-18.84217 -0.4382,-18.84217 0,0 -0.4381,-6.1347 -0.4381,-6.1347 0,0 -0.4382,-10.9548 -0.4382,-10.9548 0,0 -0.4382,-5.6965 -0.4382,-5.6965 0,0 -0.3988,-6.1347 -0.3988,-6.1347 0,0 -1.3146,-19.2805 -1.3146,-19.2805 0,0 -3.5844,-49.5157 -3.5844,-49.5157 0,0 -1.3146,-18.8422 -1.3146,-18.8422 0,0 -0.8369,-11.393 -0.8369,-11.393 0,0 -0.4382,-7.8875 -0.4382,-7.8875 -0.013,-1.3189 0.1972,-4.0883 -0.4469,-5.1619 -0.6924,-1.1524 -3.1244,-2.0201 -4.3732,-2.616 0,0 -10.9548,-5.0392 -10.9548,-5.0392 -7.4011,-3.6983 -14.8328,-7.5281 -21.0332,-13.1107 -2.9753,-2.6774 -5.6702,-4.5178 -5.6965,-8.6894 0,0 0,-7.011 0,-7.011 0,0 0.3987,-4.3819 0.3987,-4.3819 1.411,-20.6257 6.7175,-40.2042 10.372,-60.4706 0,0 2.3005,-16.6513 2.3005,-16.6513 0,0 0.6354,-8.3256 0.6354,-8.3256 1.3847,-11.5989 3.2076,-23.176 5.5738,-34.6172 0,0 6.5203,-26.2915 6.5203,-26.2915 0,0 3.0849,-10.0784 3.0849,-10.0784 0,0 0,-3.9437 0,-3.9437 0,0 0.4732,-3.9438 0.4732,-3.9438 0,0 0,-7.011 0,-7.011 0,0 0.4382,-6.5729 0.4382,-6.5729 0,0 0,-4.8201 0,-4.8201 -0.048,-3.5494 -1.4986,-5.4249 -3.3697,-8.3257 -2.8394,-4.4082 -6.5203,-9.11 -9.8856,-13.1457 -10.5779,-12.6945 -24.7929,-26.1689 -33.009,-40.3137 -3.6764,-6.3319 -6.2749,-12.5279 -7.7823,-19.7187 0,0 -2.226,-14.4603 -2.226,-14.4603 -1.9193,-10.6349 -5.9331,-31.9968 -5.9506,-42.0664 0,0 0,-12.7076 0,-12.7076 0.088,-7.3923 2.3268,-14.3201 3.7684,-21.4714 0,0 6.9191,-35.9318 6.9191,-35.9318 5.5387,-29.5385 10.4728,-59.2611 17.4093,-88.5148 0,0 4.4565,-18.404 4.4565,-18.404 4.5878,-16.2175 0.7011,-38.0307 13.2071,-50.7032 3.2338,-3.2777 6.0865,-3.0761 10.3282,-4.2549 0,0 16.2131,-5.7753 16.2131,-5.7753 0,0 29.35884,-12.655 29.35884,-12.655 0,0 12.7076,-3.0411 12.7076,-3.0411 0,0 34.6172,-9.1801 34.6172,-9.1801 0,0 18.404,-3.7772 18.404,-3.7772 6.8139,-2.6379 16.2131,-11.3842 18.5136,-18.4085 0.9947,-3.0366 0.8019,-6.047 0.7669,-9.202 -0.075,-6.3143 -2.4583,-14.6225 -4.5309,-20.595 0,0 -2.9009,-7.8875 -2.9009,-7.8875 0,0 -1.297,-10.9548 -1.297,-10.9548 -0.083,-1.0779 -0.4163,-5.3153 -0.7362,-6.0909 -0.574,-1.389 -2.0682,-1.928 -3.2426,-2.7167 -1.3847,-0.929 -2.7694,-2.1998 -3.8517,-3.4618 -3.7728,-4.3906 -4.0445,-9.43424 -4.0357,-14.89849 0,0 2.1909,-20.15684 2.1909,-20.15684 0,0 0,-4.82011 0,-4.82011 0.044,-3.404747 1.5249,-8.286207 3.6764,-10.946027 1.6082,-1.99378 3.063,-2.39691 3.7641,-3.60632 0.6091,-1.04728 0.4338,-3.06735 0.447,-4.2899 0,0 0.4382,-5.6965 0.4382,-5.6965 0.1752,-14.96426 0.184,-31.85656 8.0846,-45.13378 3.8824,-6.52468 6.069,-7.53252 11.1958,-12.30882 3.2383,-3.01476 4.4827,-4.74123 8.3257,-7.52375 23.2986,-16.8397299 59.1603,-13.1369999 83.6946,-0.87201 9.0312,4.51776 17.1027,9.91629 23.268,18.07543 3.6546,4.83764 5.4292,11.0512 7.6684,16.65129 0,0 6.9541,17.96588 6.9541,17.96588 0,0 1.1831,12.26937 1.1831,12.26937 0,0 1.2401,19.28046 1.2401,19.28046 0,0 -0.7055,7.011057 -0.7055,7.011057 -0.1796,0.9947 -0.8544,3.59318 -0.78,4.38192 0.1359,1.45042 1.2138,2.30051 1.9369,3.94373 0.7054,1.59064 1.2882,4.82012 1.2882,6.57288 0,0 -0.39,3.94373 -0.39,3.94373 0,0 -0.6047,7.44927 -0.6047,7.44927 -0.7975,5.58695 -5.2101,19.61343 -7.5062,24.97693 -0.8808,2.0639 -1.9806,4.8727 -4.2023,5.7447 -2.3969,0.9421 -5.2539,-0.4206 -7.1162,2.1997 -1.503,2.1121 0.035,4.4652 -1.6564,10.0215 -2.1559,7.0943 -7.1337,13.5664 -7.7297,21.0332 -0.2322,2.9578 1.1919,7.3397 3.0981,9.6008 0,0 4.6492,4.1672 4.6492,4.1672 1.9894,1.6958 8.8033,7.8568 10.5166,8.7156 0,0 16.2131,3.3172 16.2131,3.3172 0,0 26.2915,6.1346 26.2915,6.1346 17.6548,4.6405 35.2613,9.9295 52.5831,15.6829 0,0 11.8311,3.7729 11.8311,3.7729 8.2775,2.4933 13.6892,3.7202 19.5171,10.8321 7.5019,9.1538 7.8524,22.9788 9.5877,34.179 0,0 2.8833,14.8985 2.8833,14.8985 0,0 0,5.2583 0,5.2583 0.01,5.3678 1.63,14.3552 2.8132,19.7186 4.6667,21.134 13.1413,40.1165 13.3999,62.2233 0,0 1.687,14.0222 1.687,14.0222 0,0 3.0586,26.7297 3.0586,26.7297 0,0 2.3049,28.9206 2.3049,28.9206 0,0 0.8369,13.584 0.8369,13.584 0,0 0.4207,4.3819 0.4207,4.3819 0,0 0,5.2583 0,5.2583 0,0 0.5258,6.5729 0.5258,6.5729 0,0 0,8.3257 0,8.3257 0,0 0,6.5728 0,6.5728 -0.1314,5.2014 -1.6739,14.1054 -2.8526,19.2805 -4.2461,18.6538 -12.6024,35.7433 -23.6974,51.2685 -5.2496,7.3441 -11.0951,14.0834 -17.3218,20.595 0,0 -2.7211,3.0279 -2.7211,3.0279 -1.4548,1.4986 -4.1497,3.0235 -4.2198,5.2977 0,0 1.0429,5.2583 1.0429,5.2583 0,0 2.1997,10.0785 2.1997,10.0785 0,0 6.5641,34.1789 6.5641,34.1789 6.8533,38.0044 12.6506,76.0921 22.4793,113.4918 2.4714,9.3948 6.0645,21.6423 9.4386,30.6734 0,0 2.042,5.14 2.042,5.14 1.4022,1.9324 3.6633,1.0079 3.8911,4.9384 0.083,1.4636 -0.1709,4.7369 -1.2181,5.8105 -0.7493,0.7712 -2.5021,0.872 -3.5844,1.2488 -1.8624,0.6485 -3.2996,1.7177 -4.8202,2.9359 0,0 -8.3256,7.3222 -8.3256,7.3222 0,0 -22.3478,13.7943 -22.3478,13.7943 0,0 -7.8875,4.1891 -7.8875,4.1891 -1.2444,0.5653 -3.637,1.4022 -4.3731,2.5546 -0.6135,0.9597 -0.4338,3.0542 -0.447,4.2111 0,0 -0.4382,7.4492 -0.4382,7.4492 0,0 0.4207,4.382 0.4207,4.382 0,0 0,6.5728 0,6.5728 0,0 0.4382,5.6965 0.4382,5.6965 0,0 3.0104,34.6172 3.0104,34.6172 0,0 1.8667,22.786 1.8667,22.786 0,0 0.3987,4.3819 0.3987,4.3819 0,0 0.4382,9.202 0.4382,9.202 0,0 0,14.8986 0,14.8986 0,0 -0.4382,5.2583 -0.4382,5.2583 0,0 0,3.9437 0,3.9437 -0.2541,3.1638 -1.4854,7.4756 -2.4845,10.5166 0,0 -8.9523,24.10057 -8.9523,24.10057 0,0 -2.6554,23.6623 -2.6554,23.6623 0,0 -3.0718,30.2353 -3.0718,30.2353 0,0 -0.8019,9.6402 -0.8019,9.6402 0,0 -0.2497,8.3257 -0.2497,8.3257 0.4075,1.5862 3.1199,4.9559 4.1935,6.5728 2.2698,3.4267 4.6667,7.6903 6.4589,11.393 4.8859,10.096 8.238,21.8833 10.4334,32.8644 1.17,5.8411 3.6939,22.0981 3.7027,27.6061 0,0 0,6.1347 0,6.1347 0,0 0.4382,7.0111 0.4382,7.0111 0,0 0.9509,18.4041 0.9509,18.4041 0,0 3.5493,28.9206 3.5493,28.9206 0,0 2.5109,17.5277 2.5109,17.5277 0,0 0,7.0111 0,7.0111 0,0 -0.4382,7.0111 -0.4382,7.0111 0,0 0.4382,17.0895 0.4382,17.0895 0,0 0.3987,4.3819 0.3987,4.3819 0,0 1.9062,16.2131 1.9062,16.2131 0,0 1.8097,8.3256 1.8097,8.3256 0.07,3.0586 -3.9174,3.7159 -3.0674,7.8875 0.5697,2.7913 4.0358,6.6255 5.3723,9.6402 1.0034,2.2611 0.9947,4.658 1.6563,7.0111 0.7888,2.8 2.099,5.3153 3.4311,7.8874 0,0 12.5673,18.4041 12.5673,18.4041 2.8658,4.6273 2.7869,9.1276 8.983,17.9659 8.7244,12.4534 20.7747,22.041 29.8803,34.179 5.7403,7.6596 10.3501,16.9536 10.2405,26.7297 0,0 -0.4338,6.5729 -0.4338,6.5729 0,0 0.4338,8.3256 0.4338,8.3256 -0.035,6.9059 -2.7869,7.6728 -8.3256,10.1792 -8.0014,3.6239 -14.2237,3.9394 -22.786,3.843 -9.0136,-0.1052 -20.3672,-3.8693 -28.9207,-6.7175 0,0 -14.4603,-5.1137 -14.4603,-5.1137 -2.7913,-0.9509 -7.6728,-2.3838 -10.0784,-3.6458 -4.0708,-2.1384 -7.4931,-4.9472 -10.9548,-7.9313 0,0 -21.4714,-23.4783 -21.4714,-23.4783 -2.3356,-2.3618 -6.0778,-6.9892 -9.6403,-6.6561 0,0 -5.2583,0 -5.2583,0 -13.0274,-0.07 -25.2442,-6.5379 -33.7627,-16.1299 -4.1102,-4.6273 -6.2135,-7.607 -7.9882,-13.5839 -1.7221,-5.8061 -1.6388,-10.7226 -1.6301,-16.6513 0,0 0.4382,-9.2021 0.4382,-9.2021 0,0 0.4382,-7.011 0.4382,-7.011 0,-1.2226 0.1271,-3.2207 -0.5127,-4.2636 -0.6134,-0.9947 -2.0244,-1.5118 -2.9753,-2.2217 -1.3321,-0.9903 -2.1778,-2.1208 -2.9184,-3.5932 -1.7221,-3.4003 -2.1603,-7.2871 -2.9797,-10.9548 -0.9421,-4.1891 -1.9499,-5.7227 -2.0069,-10.5166 0,0 0,-8.3256 0,-8.3256 0,0 -0.4338,-7.0111 -0.4338,-7.0111 0,0 0.4338,-5.2583 0.4338,-5.2583 0,0 0,-7.4493 0,-7.4493 -0.048,-3.6457 -1.652,-5.565 -3.1637,-8.7638 0,0 -3.694,-9.6402 -3.694,-9.6402 0,0 -9.5044,-32.8644 -9.5044,-32.8644 0,0 -7.401,-16.6513 -7.401,-16.6513 -1.7747,-5.7579 -4.9911,-22.8561 -6.069,-29.3589 -2.4451,-14.7758 -4.6098,-30.1695 -4.7851,-45.1338 0,0 -0.4382,-6.1347 -0.4382,-6.1347 0,0 0,-12.7075 0,-12.7075 0,0 0.4382,-9.6403 0.4382,-9.6403 0,0 0.2586,-4.8201 0.2586,-4.8201 0,0 -3.8167,-15.7749 -3.8167,-15.7749 0,0 -4.3293,-21.0332 -4.3293,-21.0332 0,0 -10.464,-53.0212 -10.464,-53.0212 0,0 -5.1882,-19.28047 -5.1882,-19.28047 0,0 -2.8001,-8.7638 -2.8001,-8.7638 0,0 -5.2758,-22.3478 -5.2758,-22.3478 0,0 -14.0835,-48.6393 -14.0835,-48.6393 0,0 -4.8552,-17.9659 -4.8552,-17.9659 0,0 -2.467,-9.6402 -2.467,-9.6402 z M 572.40206,26.899753 c 0,0 0,-1.75277 0,-1.75277 0,0 0,-1.24885 0,-1.24885 1.0166,-3.12869 3.4354,1.03413 4.7938,1.14368 0.8457,0.0657 1.8754,-0.64414 2.6072,-0.75369 1.4285,-0.22348 2.4495,0.72302 3.4311,1.63008 2.6247,2.41882 1.8185,3.16374 2.9621,4.92527 0,0 5.1839,5.57819 5.1839,5.57819 1.7615,1.61693 4.2899,1.74838 7.2652,4.20664 5.1969,4.28552 7.5807,9.62708 11.6866,14.75393 3.4573,4.32495 5.0304,2.98409 7.4229,5.74031 2.3137,2.66859 2.7563,7.12501 3.5231,10.47279 0.3155,1.36716 0.7099,3.17251 1.4679,4.34249 1.6433,2.52837 3.3829,2.11647 2.6292,5.73593 0.9903,0.39437 2.042,0.75369 2.3794,1.83603 0.5959,1.17873 -0.2717,2.44511 0,4.73685 0.1314,3.38284 1.2444,7.1513 -2.3794,9.20204 3.0411,4.618537 -0.4207,5.626377 -0.8983,8.325637 -0.2147,1.20941 0.8545,2.77814 1.3365,3.94373 0,0 -2.5722,0.87638 -2.5722,0.87638 0.5609,1.66513 1.0648,2.71241 0,4.38192 -0.6529,1.17436 -2.1778,2.31366 -2.4101,3.25139 -0.2672,1.07357 1.3847,3.62823 1.9149,4.63607 -3.8035,3.53183 -1.4197,4.30305 -1.3715,8.32565 0.035,3.10678 -2.2216,2.83072 -2.2654,4.83768 -0.031,1.5249 1.7264,2.9884 2.3224,6.1171 -6.5948,0 -2.7343,-0.4425 -9.2021,0.8764 1.5249,7.5763 3.7992,13.9608 6.8271,21.0332 1.4767,3.4486 2.9052,7.0812 6.3187,9.0443 4.2154,2.4188 11.4149,1.9018 16.2131,1.9105 2.581,0 5.771,0.1928 7.8393,1.9368 1.8228,1.5293 2.9534,5.4731 4.4126,7.7035 2.5853,3.9393 5.7578,4.3731 10.0959,4.3819 0,0 4.8201,0 4.8201,0 13.0099,0.022 31.6857,5.4073 43.381,11.0687 9.9908,4.8376 22.4618,12.8872 29.6043,21.3575 7.8874,9.3466 12.7558,20.7396 20.5337,30.2352 0,0 21.9797,25.8534 21.9797,25.8534 0,0 16.0334,19.2804 16.0334,19.2804 0,0 16.0992,16.6513 16.0992,16.6513 0,0 9.947,11.8312 9.947,11.8312 0,0 7.2214,8.3257 7.2214,8.3257 0,0 4.0357,3.9831 4.0357,3.9831 0.5653,0.7756 2.9534,6.0909 6.2136,10.4772 0,0 7.1995,9.202 7.1995,9.202 3.1506,4.9078 4.4871,10.4202 4.4213,16.2131 -0.1884,16.3972 -13.1238,35.1606 -22.7334,47.763 0,0 -7.5194,9.202 -7.5194,9.202 0,0 -5.3766,10.0784 -5.3766,10.0784 0,0 -13.9739,24.5388 -13.9739,24.5388 -13.733,22.6238 -28.8593,43.9901 -46.238,63.976 0,0 -10.6393,11.8312 -10.6393,11.8312 0,0 -8.6894,8.7638 -8.6894,8.7638 -2.6291,2.9052 -5.6877,6.7613 -9.2765,8.4703 -2.1428,1.021 -3.1901,0.4426 -6.1347,1.6476 -2.5766,1.056 -3.5187,2.4144 -6.5729,3.2514 -4.0883,1.1217 -6.0164,0.2804 -8.3256,1.0034 -3.2777,1.0254 -6.4809,5.7491 -7.7867,8.8515 -1.6082,4.4126 -0.723,9.0487 0,13.584 0,0 3.3697,22.786 3.3697,22.786 3.6019,21.7518 8.4396,43.3897 11.0556,65.2906 0.8939,7.4492 2.651,14.8371 2.5634,22.3478 -0.092,7.5851 -4.8552,9.7716 -10.9548,12.5717 -3.4354,1.5775 -7.607,2.6029 -7.8699,7.1469 0,0 0.8588,13.584 0.8588,13.584 0,0 0,5.2583 0,5.2583 0,0 0.4382,5.6965 0.4382,5.6965 0,0 0.4382,11.393 0.4382,11.393 0,0 0.4382,7.4492 0.4382,7.4492 0,0 0.4382,4.8201 0.4382,4.8201 0,0 0,3.9438 0,3.9438 0,0 0.8369,9.6402 0.8369,9.6402 0,0 4.7851,60.4705 4.7851,60.4705 0,0 0.5872,8.3256 0.5872,8.3256 0,0 2.5941,30.6735 2.5941,30.6735 0,0 0.8764,11.393 0.8764,11.393 0,0 0.4162,4.3819 0.4162,4.3819 0,0 0,5.2583 0,5.2583 0,0 0.4207,5.2583 0.4207,5.2583 0.01,4.1234 0.6003,8.2468 1.4986,12.2694 0,0 5.0743,14.4603 5.0743,14.4603 0,0 9.6928,31.988 9.6928,31.988 5.2627,20.0342 9.167,40.53277 12.839,60.90867 0,0 5.6352,35.4936 5.6352,35.4936 0,0 2.4363,17.9658 2.4363,17.9658 0,0 7.1995,61.3469 7.1995,61.3469 0,0 6.9673,50.3921 6.9673,50.3921 0,0 1.2795,15.3367 1.2795,15.3367 0,0 0.4163,4.382 0.4163,4.382 0,0 0,5.6965 0,5.6965 0,0 0.4206,5.2583 0.4206,5.2583 0,0 -0.4382,14.8985 -0.4382,14.8985 -0.017,1.0385 0.075,2.7343 -1.0648,3.2382 -0.9421,0.4163 -4.0094,-0.3987 -5.0698,-0.6748 0,0 -7.8875,-2.0332 -7.8875,-2.0332 0,0 -5.2583,-0.9684 -5.2583,-0.9684 0,0 2.4407,5.2583 2.4407,5.2583 1.9105,4.4608 3.1681,9.2327 3.9394,14.0222 1.2181,7.5588 1.0823,15.1526 1.0692,22.7859 0,0 -0.4558,7.4493 -0.4558,7.4493 0,0 0,5.2583 0,5.2583 0,0 -0.4206,4.8201 -0.4206,4.8201 0,0 0,9.6402 0,9.6402 0,0 0.7975,9.6403 0.7975,9.6403 0,7.4405 -3.2251,14.4165 -9.1232,18.9824 -5.0129,3.878 -11.4456,5.9595 -17.5277,7.4712 -7.4843,1.8623 -15.1307,2.4188 -22.7859,2.9447 -6.9103,0.4732 -13.2773,0.6091 -20.1569,-0.5872 -4.9472,-0.8589 -12.5498,-2.9447 -16.1342,-6.5422 -3.2163,-3.2339 -4.6186,-9.4869 -4.4433,-13.9433 0.4689,-12.0459 4.7413,-26.1118 8.1241,-37.6845 0,0 3.7422,-13.1458 3.7422,-13.1458 0,0 3.1637,-11.393 3.1637,-11.393 3.1331,-9.0267 9.4036,-19.241 9.4912,-28.9206 0,0 -4.3819,0.6923 -4.3819,0.6923 -4.3512,0.5784 -8.8558,0.837 -13.1457,-0.3242 -1.7703,-0.4777 -3.8999,-1.3015 -4.8114,-3.0148 -0.5302,-1.0035 -0.4426,-2.375 -0.4469,-3.488 0,0 0,-6.5729 0,-6.5729 0,0 -0.3988,-5.2583 -0.3988,-5.2583 -0.8457,-12.2957 -2.9709,-24.289 -5.3854,-36.3699 0,0 -7.5325,-35.9318 -7.5325,-35.9318 -4.7675,-25.4458 -8.6455,-51.0757 -12.4184,-76.6836 0,0 -6.5728,-44.6956 -6.5728,-44.6956 0,0 -4.0621,-24.97687 -4.0621,-24.97687 0,0 0.4207,5.2583 0.4207,5.2583 0,0 0,5.25827 0,5.25827 0,0 0.4557,7.011 0.4557,7.011 0,0 0,6.1347 0,6.1347 0,0 0.4382,6.5729 0.4382,6.5729 0,0 0,11.393 0,11.393 0,0 0.4382,7.4493 0.4382,7.4493 0,0 0,72.7399 0,72.7399 0,0 -0.4382,6.5728 -0.4382,6.5728 0,0 0,23.2242 0,23.2242 0,0 -0.4382,7.4493 -0.4382,7.4493 0,0 0,25.8533 0,25.8533 0,4.0752 -0.7712,8.4527 -2.2172,12.2694 -0.9685,2.5503 -2.8965,4.8858 -3.0192,7.4493 -0.2059,4.2154 2.5415,8.4571 2.6073,14.0221 0,0 -0.5434,12.2694 -0.5434,12.2694 0,0 0,3.9437 0,3.9437 0,0 0.5434,8.7638 0.5434,8.7638 0.017,1.6739 0.1577,4.2023 -0.5741,5.6965 -1.7747,3.5932 -8.8734,5.8893 -12.5717,6.9498 -10.0478,2.8745 -20.3365,3.3346 -30.6735,4.0445 0,0 -14.4603,1.7133 -14.4603,1.7133 -1.9938,0.022 -4.7325,0.017 -6.4765,-1.0692 -2.0113,-1.2532 -1.4153,-3.5099 -5.7929,-3.2733 -6.5027,0.355 -17.0413,3.3084 -23.6623,4.8289 0,0 -10.9548,1.9587 -10.9548,1.9587 -12.4797,1.9368 -25.0778,3.5932 -37.6846,4.1453 0,0 -5.6965,0.4207 -5.6965,0.4207 0,0 -7.011,0 -7.011,0 0,0 -6.1347,0.4206 -6.1347,0.4206 0,0 -5.6965,-0.4206 -5.6965,-0.4206 -8.5667,-0.013 -14.7846,-0.5039 -23.2242,-2.191 -2.5196,-0.5039 -6.8095,-1.0604 -8.4571,-3.1593 -1.6082,-2.0552 -1.2138,-6.9366 -1.1831,-9.5482 0,0 0.3637,-3.9438 0.3637,-3.9438 0.3199,-3.3215 -0.066,-5.3065 2.1077,-8.3256 3.1769,-4.417 10.8233,-6.7745 15.9327,-8.0496 8.9522,-2.2392 24.3678,-5.4643 32.4262,-8.5185 6.2705,-2.375 13.3079,-4.5966 15.7749,-11.4762 0,0 0.8764,0 0.8764,0 0,0 0.8325,1.2269 0.8325,1.2269 1.858,2.0771 2.0858,-0.8632 4.0358,-2.042 1.7045,-1.0341 3.8035,-1.0166 5.6483,-0.4995 -0.4777,-6.2837 4.2241,-4.8289 7.4492,-11.393 -3.4003,1.6564 -7.7428,4.9078 -10.5166,7.4887 -1.7265,1.6038 -2.375,2.467 -4.3819,3.9043 1.9631,-7.848 11.0863,-12.2913 17.9659,-15.0738 2.0069,-0.8063 4.9603,-1.9719 7.0111,-2.4539 -0.092,1.1306 -0.6179,3.2646 0.2672,4.1015 1.078,1.0166 2.6993,-0.1446 4.1147,-0.3593 1.8491,-0.4338 3.0892,0.2103 4.3819,0 2.226,-0.1884 4.0445,-2.4846 5.2583,-4.1804 -2.2479,-1.1568 -4.2548,-2.765 -6.1347,-4.4564 -2.318,-2.0858 -4.2943,-4.0313 -5.5475,-6.9366 -1.4723,-3.4091 -1.1437,-7.366 -0.6441,-10.9548 0.7887,-5.6614 4.2197,-19.4995 3.9612,-24.1005 0,0 -0.7624,-6.1347 -0.7624,-6.1347 0,0 -1.8667,-22.786 -1.8667,-22.786 0,0 -0.3988,-4.3819 -0.3988,-4.3819 0,0 -0.4382,-8.3257 -0.4382,-8.3257 0,0 -0.4382,-8.3256 -0.4382,-8.3256 0,0 0,-6.5729 0,-6.5729 0,0 -0.4382,-7.4493 -0.4382,-7.4493 0,0 0,-66.167 0,-66.167 0,0 -0.4382,-6.5728 -0.4382,-6.5728 0,0 0,-5.69647 0,-5.69647 0,0 -0.4382,-7.0111 -0.4382,-7.0111 0,0 -0.8018,-11.8312 -0.8018,-11.8312 0,0 -1.5118,-14.8985 -1.5118,-14.8985 0,0 -5.4818,-30.2353 -5.4818,-30.2353 0,0 -16.1211,-70.5489 -16.1211,-70.5489 -7.9488,-36.1859 -12.5849,-72.6478 -15.122,-109.548 0,0 -1.2357,-14.8985 -1.2357,-14.8985 0,0 -0.9552,-17.0895 -0.9552,-17.0895 0,0 -0.837,-15.7749 -0.837,-15.7749 -1.6695,0.574 -2.41,1.0122 -3.2645,2.6379 -0.6836,1.3102 -0.9728,3.19 -2.4758,3.8999 -1.7002,0.8019 -2.5371,-0.8107 -2.949,-2.1559 -0.8501,-2.7825 -0.9202,-6.3144 -0.9509,-9.202 0,0 -0.4382,-8.3257 -0.4382,-8.3257 0,0 -2.0727,-17.5277 -2.0727,-17.5277 0,0 -5.2539,-35.0553 -5.2539,-35.0553 -1.9368,-14.7233 -2.7299,-29.4159 -2.7518,-44.2574 0,0 -0.837,-11.393 -0.837,-11.393 0,0 -0.4776,-15.7749 -0.4776,-15.7749 0.088,-7.1952 3.6852,-22.843 5.5344,-30.2353 4.6273,-18.5048 10.6086,-36.8651 14.0002,-55.6504 0,0 7.2521,-49.5157 7.2521,-49.5157 0,0 2.3136,-14.8985 2.3136,-14.8985 0,0 1.3716,-8.3257 1.3716,-8.3257 0,0 -1.5337,-8.7638 -1.5337,-8.7638 -0.1402,-3.5713 2.0025,-6.161 2.6949,-9.6402 0.574,-2.8877 0.39,-10.2932 0.3549,-13.584 0,0 -1.3146,-16.6513 -1.3146,-16.6513 -0.1358,-11.8487 1.5819,-30.8005 3.6896,-42.5046 0,0 4.6361,-24.1006 4.6361,-24.1006 0.088,-7.4449 0.1577,-11.9977 2.5152,-19.2804 2.9184,-9.0049 8.0233,-15.0169 13.6935,-22.3478 0,0 6.2136,-8.3257 6.2136,-8.3257 4.7368,-5.2977 10.1617,-7.0855 13.8731,-10.648 3.9963,-3.8386 5.2145,-10.2011 7.1119,-15.2053 1.6345,-4.3118 3.1462,-6.0821 3.0367,-10.9548 -0.092,-3.8692 -1.4855,-10.6919 -6.1303,-11.209 -4.2198,-0.4732 -8.1855,2.8352 -11.6297,-1.0779 -8.0057,-9.1144 -11.5419,-21.4144 -17.0632,-31.9705 -4.5221,-8.6411 -12.4052,-18.9562 -12.4972,-28.9207 -5.5738,1.354 -7.9619,-0.3067 -11.2046,-4.82009 -1.0604,-1.47671 -2.1778,-2.95341 -2.3268,-4.82011 -0.4294,-5.32842 5.8324,-10.42021 6.9498,-12.70757 0.5521,-1.13054 0.4601,-2.69488 0.4469,-3.94373 0,0 -1.7528,-22.347787 -1.7528,-22.347787 -0.8544,0.31988 -1.7089,0.68358 -2.6291,0.76684 -5.3021,0.49954 -5.2539,-4.54844 -5.2583,-8.2161 -0.01,-4.29429 -1.0911,-5.00416 -0.2366,-9.64023 1.5687,-8.47025 9.018,-18.33396 14.824,-24.49932 3.9525,-4.20226 9.4956,-8.05397 14.3333,-11.18704 2.9008,-1.87546 3.9568,-3.20318 7.4492,-4.94719 6.2574,-3.12869 12.024,-3.61508 18.8423,-3.62385 6.4809,-0.009 8.4264,-2.35747 13.1458,-2.17343 0,0 8.3256,0.61347 8.3256,0.61347 5.6352,0.88077 6.9059,1.99816 13.194,1.99816 z M 1439.0977,1231.0515 c -1.3189,-7.3529 0.3418,-26.0769 0.4382,-34.6172 0,0 0.3988,-4.3819 0.3988,-4.3819 0,0 0.8413,-10.9548 0.8413,-10.9548 0,0 4.3907,-39.4373 4.3907,-39.4373 0,0 7.0067,-54.774 7.0067,-54.774 3.2426,-30.3185 8.8953,-70.286 16.7871,-99.46957 3.5801,-13.2422 7.5983,-26.2696 12.7295,-38.9991 6.827,-16.9361 13.7154,-30.209 13.9345,-49.0775 0,0 0.3988,-4.3819 0.3988,-4.3819 0,0 2.5984,-28.4825 2.5984,-28.4825 0,0 13.3386,-96.4023 13.3386,-96.4023 0,0 2.8702,-25.4151 2.8702,-25.4151 0,0 0.5871,-8.3257 0.5871,-8.3257 0,0 0.8019,-10.0784 0.8019,-10.0784 0.048,-4.0927 1.4811,-10.6612 -1.0648,-14.0177 -1.8973,-2.5021 -4.6492,-3.51 -7.2608,-5.013 -5.1531,-2.9665 -9.5614,-6.6035 -9.6402,-12.9573 -0.096,-7.9795 3.7903,-23.7369 5.749,-31.988 0,0 12.7076,-51.7067 12.7076,-51.7067 5.8586,-24.7184 9.8374,-45.1951 12.2913,-70.5489 0,0 0.8019,-11.393 0.8019,-11.393 0,0 0.4382,-7.0111 0.4382,-7.0111 0,0 0,-19.7186 0,-19.7186 0,0 -0.4382,-8.3256 -0.4382,-8.3256 0,0 -0.3988,-4.382 -0.3988,-4.382 -0.9815,-14.0265 -3.0761,-25.2837 -5.5519,-38.9991 -4.4739,-24.8148 -9.7234,-49.4806 -13.0143,-74.4926 0,0 -2.9621,-29.7971 -2.9621,-29.7971 0,0 -0.4207,-4.8201 -0.4207,-4.8201 -0.035,-3.2295 0.2103,-11.4587 -1.319,-14.0221 -2.7737,-4.6624 -8.181,-5.5563 -12.265,-8.593 0,0 -7.8874,-7.5456 -7.8874,-7.5456 -5.1444,-4.6536 -10.5999,-8.5097 -13.6804,-14.9731 0,0 -2.9928,-8.7638 -2.9928,-8.7638 -2.4364,-6.6605 -5.232,-13.3736 -5.232,-20.595 0,0 0.3943,-4.382 0.3943,-4.382 1.0035,-14.3376 4.2242,-23.3249 12.62,-35.0553 3.8867,-5.4336 8.3125,-10.5079 13.2728,-14.973 8.1898,-7.3704 17.4138,-13.7111 28.0443,-17.0063 7.2126,-2.2348 13.1151,-2.7255 20.595,-2.6379 0,0 9.6403,0.9071 9.6403,0.9071 1.7659,0.2497 3.5099,0.7098 5.2407,0 2.7825,-1.227 2.6861,-4.5134 5.4073,-6.7175 2.0201,-1.6389 3.5581,-0.4338 6.8796,-1.8711 5.5344,-2.3969 8.0978,-7.4186 14.8986,-7.1995 1.0122,0.031 2.4319,0.3681 3.2601,-0.3199 0.837,-0.6923 1.4285,-3.4179 1.744,-4.5177 0,0 3.4661,-10.9548 3.4661,-10.9548 3.786,-11.3624 3.2251,-19.0526 3.3609,-30.67348 0,0 0.9071,-9.38607 0.9071,-9.38607 0,0 -2.7036,-8.57981 -2.7036,-8.57981 -0.5785,-2.41443 -0.4251,-6.59917 -0.3944,-9.20203 0,0 0.3987,-4.381907 0.3987,-4.381907 0,0 0.8501,-9.64023 0.8501,-9.64023 2.2611,-18.92113 8.6105,-41.29084 25.4809,-52.28069 8.9304,-5.81481 17.7336,-6.44143 28.0443,-6.89276 0,0 5.6965,-0.42067 5.6965,-0.42067 0,0 7.4493,0 7.4493,0 13.1282,0.0219 33.3551,4.82888 44.2574,12.15983 6.0996,4.0971 11.6427,10.131 15.5821,16.32265 5.0655,7.96195 5.3109,13.75047 5.9287,22.78599 0,0 0.3988,11.83119 0.3988,11.83119 0,0 -0.3988,4.38192 -0.3988,4.38192 -0.1884,2.760607 0.2717,8.500917 1.4504,10.954787 2.5722,5.35033 7.5413,5.87178 7.2565,13.14577 -0.1271,3.28644 -1.3102,9.68404 -5.2408,10.30627 -0.8589,0.13584 -1.7834,-0.0833 -2.6292,-0.22786 -0.6704,7.1425 -7.1206,5.2934 -9.5964,12.2694 0,0 -2.0814,11.393 -2.0814,11.393 0,0 -5.2846,17.9659 -5.2846,17.9659 -1.7089,5.9594 -1.0692,12.6506 -8.4527,14.5655 0,0 -4.8201,0.6923 -4.8201,0.6923 0,0 -4.3819,-0.3681 -4.3819,-0.3681 0,0 -3.5056,0 -3.5056,0 -4.5396,-0.3418 -10.1178,-1.0254 -13.3385,3.0937 -0.8983,1.1436 -1.4811,2.4538 -1.3891,3.9262 0.061,0.9684 0.4689,2.1778 0.8545,3.0673 5.8586,13.6234 21.4758,13.8074 34.03,15.4594 4.785,0.631 13.5445,1.9938 17.9658,3.396 7.3047,2.3137 13.9521,6.2574 20.1569,10.6919 20.56,14.6926 28.0969,28.6577 43.9419,46.6981 0,0 20.0166,21.0332 20.0166,21.0332 0,0 3.5406,3.9438 3.5406,3.9438 0,0 26.7122,26.7297 26.7122,26.7297 0,0 17.5277,17.0719 17.5277,17.0719 0,0 6.5728,6.1523 6.5728,6.1523 4.3732,4.3731 9.3773,9.0048 10.727,15.3367 0.6266,2.9227 -0.8545,12.1598 -1.5775,15.3367 -2.7124,11.9407 -7.607,23.7719 -20.5425,27.4177 -2.9271,0.8238 -6.1697,1.0998 -9.202,1.0648 0,0 -29.797,-4.3644 -29.797,-4.3644 0,0 -3.9438,0 -3.9438,0 0,0 -9.6402,-0.4557 -9.6402,-0.4557 0,0 -7.0111,-0.4382 -7.0111,-0.4382 -5.8192,-0.031 -11.3974,-1.1174 -17.0895,-2.191 0,0 -0.4382,10.0784 -0.4382,10.0784 0,0 -0.4382,7.0111 -0.4382,7.0111 0,0 0,21.9096 0,21.9096 0,0 0.4382,7.4493 0.4382,7.4493 0,0 0.4382,12.2694 0.4382,12.2694 0,0 0.837,10.9548 0.837,10.9548 0,0 1.8667,23.6623 1.8667,23.6623 0,0 8.3256,79.751 8.3256,79.751 0,0 1.7177,21.9096 1.7177,21.9096 0,0 0.837,14.8985 0.837,14.8985 0,0 0.4207,4.3819 0.4207,4.3819 0,0 0,4.382 0,4.382 0,0 0.4557,6.5728 0.4557,6.5728 0,0 0.4382,9.6403 0.4382,9.6403 0,0 0.4382,9.202 0.4382,9.202 0,0 0.4381,12.7076 0.4381,12.7076 0,0 0.4207,4.3819 0.4207,4.3819 0,0 0,5.2583 0,5.2583 0,0 0.4557,6.5729 0.4557,6.5729 0,0 0.4777,10.9548 0.4777,10.9548 0,0 2.1471,19.2804 2.1471,19.2804 -0.1446,6.2749 -3.488,8.5623 -3.5012,17.5277 0,0 0,7.8875 0,7.8875 0,0 1.3146,16.2131 1.3146,16.2131 0,0 0,4.3819 0,4.3819 0,0 0.4382,7.4492 0.4382,7.4492 0,0 0,14.8986 0,14.8986 0,0 -0.4382,6.5729 -0.4382,6.5729 0,0 0,9.202 0,9.202 0,0 -0.4382,10.0784 -0.4382,10.0784 0,0 -0.4382,6.5729 -0.4382,6.5729 0,0 -0.8369,13.1458 -0.8369,13.1458 0,0 -5.3679,56.9649 -5.3679,56.9649 0,0 -6.104,53.0213 -6.104,53.0213 0,0 -0.8544,10.9548 -0.8544,10.9548 0,0 0,4.8201 0,4.8201 0,0 -0.4207,5.2583 -0.4207,5.2583 0,0 0,20.595 0,20.595 0,0 0.4207,5.2583 0.4207,5.2583 0,0 0,4.8201 0,4.8201 0,0 0.4381,4.8201 0.4381,4.8201 0,0 3.453,34.17897 3.453,34.17897 0,0 4.0533,46.8865 4.0533,46.8865 0,0 1.2751,20.1569 1.2751,20.1569 0,0 0.4382,4.3819 0.4382,4.3819 0,0 0,5.2583 0,5.2583 0,0 0.4382,4.8201 0.4382,4.8201 0,0 0.4382,7.8875 0.4382,7.8875 0,0 0.4382,12.7075 0.4382,12.7075 0,0 0.4206,4.8202 0.4206,4.8202 0.4295,9.8198 1.5381,19.6792 3.3522,29.3588 0,0 2.9841,13.584 2.9841,13.584 1.4197,5.1093 3.6238,12.7338 2.6817,17.9659 -1.1305,6.2573 -7.1031,9.7322 -12.506,12.0853 -1.5731,0.6836 -7.1776,2.559 -7.5281,4.1847 -0.2936,1.3891 1.2795,2.8789 2.2786,3.6063 2.4539,1.8098 6.6167,2.616 9.6315,2.8308 3.8867,0.276 4.9428,-1.8624 9.6402,-1.6564 6.1785,0.2673 14.4647,6.4589 18.8422,10.5385 1.985,1.8492 3.4442,3.304 4.8202,5.6571 -8.1504,-3.9744 -11.7129,-10.2932 -22.3478,-13.1458 5.2013,5.9901 10.017,10.4465 17.5276,13.3824 0,0 14.0222,3.7991 14.0222,3.7991 5.4204,2.1778 5.0129,4.3513 7.8918,5.7929 0,0 16.2087,4.4477 16.2087,4.4477 10.7971,2.3969 22.0981,5.1268 31.9881,10.1573 2.3487,1.1918 8.8602,5.118 10.0696,7.2433 0.6792,1.1919 0.3856,3.6939 0.4864,5.1312 0,0 0.837,11.8312 0.837,11.8312 -0.057,3.3609 -1.5863,3.5274 -4.382,4.9297 -3.6457,1.8228 -6.5816,2.7912 -10.5166,3.7772 -16.7521,4.2066 -34.214,2.4451 -51.2684,2.2479 0,0 -7.8875,-0.4382 -7.8875,-0.4382 0,0 -4.3819,-0.3988 -4.3819,-0.3988 -12.1993,-0.8325 -24.3854,-1.9587 -36.37,-4.6054 0,0 -15.7749,-4.211 -15.7749,-4.211 -2.2654,-0.7186 -6.5991,-2.5985 -8.7638,-2.8088 -2.8351,-0.2804 -5.0611,1.8404 -7.4493,2.9666 -1.8185,0.8544 -3.3083,0.7405 -5.2583,0.7318 0,0 -15.3367,-2.5065 -15.3367,-2.5065 -13.0012,-1.5644 -20.687,-1.3453 -33.3026,-6.6956 2.0069,-11.2002 -1.8886,-26.8217 -1.7528,-38.5609 0.044,-3.7246 2.6292,-11.6515 1.9062,-14.0221 -1.2401,-4.0445 -5.2452,-2.9271 -8.3344,-6.2136 -3.2076,-3.4135 -3.1594,-10.3545 -3.212,-14.8196 0,0 -2.9446,-25.4152 -2.9446,-25.4152 0,0 -6.5773,-45.572 -6.5773,-45.572 -4.1278,-28.0223 -8.3037,-55.9439 -10.9986,-84.1328 0,0 -1.8667,-29.3589 -1.8667,-29.3589 -1.3891,-20.31457 -2.6818,-40.68167 -5.3416,-60.90867 0,0 -5.6658,-33.3026 -5.6658,-33.3026 0,0 -7.4449,-34.179 -7.4449,-34.179 0,0 -4.2198,-26.2915 -4.2198,-26.2915 0,0 -1.389,-14.4603 -1.389,-14.4603 0,0 -2.4452,8.7638 -2.4452,8.7638 0,0 -4.1847,15.7749 -4.1847,15.7749 -3.9569,15.8363 -8.2073,34.293 -14.9774,49.0776 -2.2173,4.842 -4.6317,9.5306 -7.5018,14.0221 0,0 -4.2637,6.1347 -4.2637,6.1347 0,0 -2.4232,7.4492 -2.4232,7.4492 -1.1349,3.1857 -2.6423,6.2005 -4.1935,9.2021 -3.7202,7.2126 -6.1872,9.9163 -8.7726,18.404 0,0 -5.2232,23.2242 -5.2232,23.2242 0,0 -4.3819,21.47137 -4.3819,21.47137 -8.5974,42.991 -14.2325,86.5298 -24.0655,129.2667 -4.8464,21.0595 -10.7927,45.8612 -13.7154,67.0434 0,0 -1.0911,9.202 -1.0911,9.202 -0.2235,3.2558 0.017,7.1075 -2.7168,9.4693 -2.0946,1.8098 -4.7895,1.9193 -7.4011,1.9237 0,0 -10.5166,0 -10.5166,0 -6.2223,0.088 -5.4117,4.6711 -4.7632,9.202 0.8808,6.1303 2.9272,9.3992 4.5704,14.8986 1.5819,5.2845 1.446,6.5597 1.5074,11.8311 0,0 0.3987,4.382 0.3987,4.382 0,0 1.2313,12.7075 1.2313,12.7075 1.5293,12.4096 3.7685,27.5667 3.6283,39.8755 -0.066,5.6176 -1.7397,11.3185 -6.5773,14.6356 -6.3582,4.36 -21.134,3.4179 -28.9163,3.3303 0,0 -4.3819,-0.3988 -4.3819,-0.3988 -11.003,-0.7712 -22.1199,-2.6204 -32.4262,-6.6999 -5.6264,-2.2304 -11.5289,-5.863 -14.5042,-11.3054 -1.9543,-3.58 -2.1909,-8.6937 -2.1471,-12.7076 0.092,-7.642 2.8482,-17.5978 5.0041,-24.9769 1.3102,-4.4783 3.3128,-8.8734 3.3215,-13.584 0,0 0,-3.0673 0,-3.0673 0,0 0.3988,-4.3819 0.3988,-4.3819 0.6441,-9.2108 2.2129,-17.1859 5.4818,-25.8534 0,0 3.3215,-7.4492 3.3215,-7.4492 -6.0865,-1.4811 -14.3727,1.0297 -20.5951,1.3146 z m 561.3241,-21.9096 c -4.8946,0.8763 -9.9777,1.3277 -14.8986,0.3987 -1.9193,-0.3637 -5.026,-1.3409 -6.3888,-2.7606 -2.8264,-2.9359 -2.7694,-12.0634 -2.8132,-16.0422 0,0 -0.3988,-4.3819 -0.3988,-4.3819 0,0 -0.4776,-9.6403 -0.4776,-9.6403 0,0 -0.4382,-7.8874 -0.4382,-7.8874 0,0 0.4207,-4.3819 0.4207,-4.3819 0,0 0,-5.2583 0,-5.2583 0,0 0.4163,-4.382 0.4163,-4.382 0,0 3.041,-27.6061 3.041,-27.6061 0,0 4.0489,-41.6282 4.0489,-41.6282 0,0 0.837,-12.7076 0.837,-12.7076 0,0 0.4382,-6.5729 0.4382,-6.5729 0,0 0.4557,-10.0784 0.4557,-10.0784 0,0 0,-6.5729 0,-6.5729 0,0 0.4206,-5.2583 0.4206,-5.2583 0,0 0,-10.5166 0,-10.5166 0,0 0.4382,-7.4492 0.4382,-7.4492 0,0 0,-54.77397 0,-54.77397 0,0 -0.4382,-6.1347 -0.4382,-6.1347 0,0 0,-3.0674 0,-3.0674 0,0 -0.4206,-4.8201 -0.4206,-4.8201 0,0 -1.6958,-22.3478 -1.6958,-22.3478 -1.9807,-19.8019 -4.6536,-39.4811 -7.7078,-59.1559 0,0 -7.7955,-42.9428 -7.7955,-42.9428 0,0 -11.3009,-51.7067 -11.3009,-51.7067 -3.0937,-14.9379 -5.8981,-29.9592 -7.5194,-45.1338 0,0 -1.2839,-14.4603 -1.2839,-14.4603 0,0 -0.3988,-4.3819 -0.3988,-4.3819 0,0 -0.4382,-8.7639 -0.4382,-8.7639 0,0 0,-22.7859 0,-22.7859 0,0 0.4382,-5.6965 0.4382,-5.6965 0,0 0.3681,-7.4405 0.3681,-7.4405 -0.4338,-3.2339 -4.7193,-3.1725 -6.9322,-4.6975 -2.3838,-1.6344 -3.8648,-5.4335 -5.1575,-8.0189 -6.1128,-12.2299 -11.6121,-24.8016 -18.9737,-36.3699 -4.0226,-6.3144 -10.9198,-12.8609 -12.7909,-20.1568 -0.4907,-1.9149 -0.3111,-4.1453 -0.333,-6.1347 0,0 -0.4206,-4.382 -0.4206,-4.382 0,0 0,-7.011 0,-7.011 0,0 -0.8545,-11.393 -0.8545,-11.393 0,0 -4.2987,-38.9991 -4.2987,-38.9991 -4.2329,-32.1545 -10.1397,-64.3266 -9.7629,-96.8405 0.1665,-14.0221 9.9513,-29.8803 17.0019,-41.6282 0,0 6.4808,-10.5166 6.4808,-10.5166 1.4723,-2.1296 3.453,-4.7106 3.1506,-7.4493 -0.2059,-1.836 -1.3584,-3.5011 -1.1349,-6.1347 0.2103,-2.4977 2.2172,-6.7744 3.2382,-9.202 0,0 6.5817,-16.2131 6.5817,-16.2131 0,0 12.506,-28.9207 12.506,-28.9207 2.5722,-5.8236 4.8814,-12.8083 8.5929,-17.9659 3.9438,-5.4861 11.301,-11.726 16.7609,-15.8231 8.6061,-6.4545 16.7126,-10.6612 27.1679,-13.2597 1.8097,-0.4513 4.2899,-0.9859 6.1347,-1.113 2.7299,-0.1884 5.1224,0.6661 6.6079,-2.2479 1.4022,-2.7562 2.3049,-11.0819 2.6642,-14.4428 1.1349,-10.5999 0.9772,-18.0535 -1.7703,-28.4825 -2.8482,-10.7927 -7.9225,-21.5065 -7.94,-32.8644 0,0 0.4382,-10.0784 0.4382,-10.0784 -0.1008,-8.3432 -3.0016,-8.5141 -4.7544,-14.8985 -1.7791,-6.494 -1.4548,-12.6112 -1.3803,-19.2805 0.066,-5.3284 2.1164,-19.44257 4.2943,-24.10055 0,0 6.7131,-10.07842 6.7131,-10.07842 2.6773,-4.73248 -0.3462,-6.19165 3.3609,-11.39299 1.5687,-2.19972 4.5309,-4.868307 6.6649,-6.572877 8.0934,-6.45019 18.9956,-10.06089 29.3589,-10.07842 0,0 7.8874,0 7.8874,0 5.6615,0.0657 16.8748,2.45388 22.3478,4.23732 7.6114,2.48017 13.9652,5.21887 20.595,9.793587 20.4548,14.12293 27.0803,35.20435 29.4334,58.70895 0,0 0.8019,11.393 0.8019,11.393 0,0 0.4207,4.3819 0.4207,4.3819 0,0 0,4.8201 0,4.8201 0,0 0.4382,4.382 0.4382,4.382 0,0 0,4.3819 0,4.3819 0,0 0.8544,11.393 0.8544,11.393 0.9991,14.5304 3.0761,29.0171 8.869,42.5046 2.6555,6.1873 7.7516,14.9424 13.0801,19.0482 6.0821,4.6887 11.8005,3.0937 17.9658,5.4073 12.3965,4.658 21.5679,11.45 30.117,21.5547 12.392,14.6575 19.6003,31.3877 28.2765,48.2011 0,0 8.3958,15.3367 8.3958,15.3367 0,0 4.4651,7.4493 4.4651,7.4493 1.9763,4.1584 -2.2128,4.7368 0,8.3256 0,0 4.5529,6.5729 4.5529,6.5729 0,0 7.0023,10.0784 7.0023,10.0784 0,0 14.7846,23.6624 14.7846,23.6624 1.5687,2.7606 7.3046,12.8566 7.9225,15.3367 0.1534,1.0955 0.1008,4.0095 0,5.2583 0,0 -0.3111,4.382 -0.3111,4.382 -0.872,12.4534 -3.4661,22.6808 -6.8665,34.6171 -5.438,19.0877 -11.932,37.7853 -18.4391,56.5268 0,0 -12.9837,39.4373 -12.9837,39.4373 0,0 -6.7613,27.6061 -6.7613,27.6061 0,0 -6.8708,17.5277 -6.8708,17.5277 -6.2793,15.7048 -11.967,31.449 -19.8852,46.4483 -1.8404,3.4837 -5.1356,8.5711 -7.4229,11.8312 -0.929,1.3234 -3.0674,3.6501 -2.9841,5.2583 0.061,1.1393 2.8877,6.3626 3.5537,7.8875 0,0 7.7166,18.404 7.7166,18.404 6.5729,17.015 11.3316,34.8232 15.4068,52.5831 4.1146,17.9264 7.3573,36.164 10.1792,54.3358 3.6151,23.2943 7.6859,49.8838 14.6532,72.3017 7.1162,22.8824 15.4857,38.2804 25.2705,59.5941 13.0362,28.3817 26.5895,56.6319 40.559,84.57107 18.7985,37.6012 41.8824,72.9458 59.1779,111.3007 0,0 11.4456,25.4152 11.4456,25.4152 2.8701,6.8445 5.9375,15.7617 5.9506,23.2242 0,0 0,4.3819 0,4.3819 -0.1665,14.0134 -11.6515,28.3159 -21.0332,37.6845 0,0 -8.3257,7.4142 -8.3257,7.4142 -1.7571,1.4723 -3.821,3.0104 -4.5353,5.2934 -1.5818,5.0479 3.2164,14.2237 6.4897,17.9264 2.7299,3.0849 4.9997,2.8351 6.1478,7.9269 0,0 0.7362,6.1347 0.7362,6.1347 1.2532,12.541 -2.3487,25.1171 -6.6255,36.8081 0,0 -5.4599,14.0222 -5.4599,14.0222 -2.5634,4.5878 -7.5632,4.1759 -12.0897,4.8464 -5.8805,1.0604 -17.164,3.4222 -22.3083,0 -1.8974,-1.376 -4.4608,-5.0392 -5.7097,-7.0374 0,0 -5.3941,-10.0784 -5.3941,-10.0784 -5.1575,-10.3194 -7.0374,-15.0037 -6.9016,-26.7297 0,0 3.9832,-30.6735 3.9832,-30.6735 0.1402,-1.9412 0.4689,-2.6028 0.3812,-4.8201 -0.609,-15.7486 -11.3798,-25.6693 -16.717,-39.4373 0,0 -3.5713,-10.9548 -3.5713,-10.9548 0,0 -8.7638,-26.7297 -8.7638,-26.7297 -6.0208,-17.3436 -13.1107,-34.1483 -20.7484,-50.8303 0,0 -21.7387,-47.3247 -21.7387,-47.3247 0,0 -10.6393,-24.977 -10.6393,-24.977 0,0 -13.1808,-36.8081 -13.1808,-36.8081 -3.7203,-10.73127 -7.2959,-21.60277 -11.9188,-31.98797 -7.4712,-16.7827 -17.6417,-32.2071 -25.8052,-48.6393 -10.1967,-20.5205 -18.5092,-42.1322 -26.6552,-63.5379 -7.5369,-19.8238 -15.6654,-39.2663 -24.1006,-58.7177 0,0 -17.1376,-38.9991 -17.1376,-38.9991 -7.3923,-16.143 -14.0485,-34.4112 -28.1802,-46.0102 0,0 -0.4382,7.0111 -0.4382,7.0111 0,0 -0.4382,7.0111 -0.4382,7.0111 0,0 -0.4382,7.4493 -0.4382,7.4493 0,0 -0.4381,13.1457 -0.4381,13.1457 0,0 -0.4558,5.6965 -0.4558,5.6965 0,0 0,6.5729 0,6.5729 0,0 -0.4382,5.2583 -0.4382,5.2583 0,0 0,7.4493 0,7.4493 0,0 -0.4206,4.8201 -0.4206,4.8201 0,0 0,8.3256 0,8.3256 0,0 -0.4382,7.4493 -0.4382,7.4493 0,0 0,14.0221 0,14.0221 0,0 -0.4382,7.0111 -0.4382,7.0111 0,0 0,62.6615 0,62.6615 0,0 0.8369,11.8312 0.8369,11.8312 1.7265,23.6141 7.6815,46.6455 10.4904,70.1107 1.8886,15.8231 3.1067,31.8303 3.133,47.76287 0,0 0.4382,7.4493 0.4382,7.4493 0,0 0,24.5387 0,24.5387 0,0 -0.4382,6.5729 -0.4382,6.5729 0,0 0,10.0784 0,10.0784 0,0 -0.4382,6.1347 -0.4382,6.1347 0,0 -0.4382,13.1458 -0.4382,13.1458 0,0 -0.4381,4.3819 -0.4381,4.3819 0,0 0,4.3819 0,4.3819 0,0 -0.3988,3.0674 -0.3988,3.0674 0,0 -1.4285,19.7186 -1.4285,19.7186 0,0 -2.5152,25.4151 -2.5152,25.4151 0,0 1.7484,16.2131 1.7484,16.2131 0,0 1.4942,11.393 1.4942,11.393 -0.5346,7.7999 -4.5002,9.4518 -6.5816,14.8986 -0.9553,2.4933 -0.6135,5.6526 -0.6442,8.3256 0,0 -0.3637,3.9437 -0.3637,3.9437 -0.6529,6.7964 -1.2357,10.6306 -3.8429,17.0895 -3.7948,9.3905 -7.9532,14.5524 -9.2547,24.977 -0.5696,4.5835 -0.7799,9.11 -2.0638,13.5839 -0.3988,1.3979 -1.1832,4.0314 -2.5854,4.6975 -1.9105,0.9114 -3.2338,-1.5819 -3.8911,-2.9447 -1.6345,-3.3653 -3.6764,-10.3063 -3.8517,-14.0221 -5.1093,3.5449 -13.9345,11.967 -17.37,17.0895 -4.5615,6.8007 -6.9322,14.2412 -13.7417,19.4864 -2.5897,1.9981 -5.7052,2.8833 -8.7638,3.8823 -9.3554,3.0499 -19.2103,2.9359 -28.9207,2.9228 -7.458,-0.013 -20.7878,-2.5284 -27.1679,-6.3319 -3.0235,-1.801 -6.8139,-4.8333 -7.2871,-8.5667 -1.0166,-7.9794 11.1344,-11.1169 16.051,-15.0343 0,0 9.6402,-6.3231 9.6402,-6.3231 0,0 10.9548,-8.4396 10.9548,-8.4396 6.551,-4.3162 9.6271,-5.083 15.2622,-11.393 3.2689,-3.6633 6.4371,-9.9075 8.4002,-14.4603 z M 131.53266,258.26513 c 0,0 7.011,-3.006 7.011,-3.006 0,0 6.5729,-3.2426 6.5729,-3.2426 8.352,-4.3074 16.0729,-11.428 20.021,-20.0429 3.1112,-6.7832 3.8561,-14.1361 4.5923,-21.4714 0,0 3.1769,-28.4825 3.1769,-28.4825 2.7518,-15.2228 13.9345,-35.6557 22.913,-48.20113 4.991,-6.97602 10.5824,-13.6935 17.6548,-18.64945 3.2251,-2.26107 6.919,-4.51776 10.9548,-4.57473 0,0 1.7527,0 1.7527,0 5.2759,0.0614 6.9147,2.37062 9.6403,1.43289 1.8535,-0.63538 4.0226,-2.96656 5.6965,-4.15406 2.7255,-1.94119 5.8717,-2.89207 9.202,-2.97094 5.0348,-0.11393 10.0083,1.60378 14.4603,3.8298 9.9514,4.97786 17.9221,12.506 24.2803,21.58095 9.3466,13.32977 14.4165,29.64367 17.0894,45.57197 0,0 2.0113,17.0895 2.0113,17.0895 0,0 0.4382,8.3257 0.4382,8.3257 0,0 0,10.0784 0,10.0784 0,0 -0.4382,8.7638 -0.4382,8.7638 0,0 -1.4986,15.7749 -1.4986,15.7749 0,0 -1.113,8.3257 -1.113,8.3257 -0.3681,8.7068 4.5353,16.4935 5.679,24.9769 -10.0258,-0.2497 -10.6656,-13.6146 -11.6472,-21.0332 -0.2673,-2.0507 -0.031,-2.7299 -0.6222,-4.8201 -0.2498,2.9928 -1.354,5.8367 -2.0069,8.7638 0,0 -2.4495,14.8986 -2.4495,14.8986 -0.1446,1.5161 -0.425,2.3005 -0.3243,3.9437 0.3944,6.4107 6.2662,14.9862 3.4661,21.0332 0,0 -1.3145,-0.8764 -1.3145,-0.8764 0.5214,4.899 4.7456,9.9075 8.3256,13.0187 8.5141,7.4055 15.1395,7.699 22.3259,18.9693 5.2408,8.2205 8.1591,17.5803 12.4052,26.2916 0,0 6.0427,10.5166 6.0427,10.5166 0,0 17.3217,25.8533 17.3217,25.8533 0,0 20.0867,35.0554 20.0867,35.0554 0,0 7.125,12.2693 7.125,12.2693 2.0201,3.2383 4.5485,6.7964 5.5037,10.5167 0.4601,1.7965 0.355,4.6536 0.3331,6.5728 0,0 -0.4382,5.6965 -0.4382,5.6965 0,0 0,9.2021 0,9.2021 -0.066,5.4555 -1.8141,10.5429 -3.1243,15.7749 0,0 -5.4555,23.2242 -5.4555,23.2242 -5.289,24.0874 -8.7463,48.8321 -16.5418,72.3016 -1.3496,4.0577 -3.041,10.3721 -5.6965,13.584 -2.5897,3.1375 -8.8646,6.976 -10.0477,10.0784 -0.355,0.9246 -0.3199,2.0858 -0.3243,3.0674 0,0 0,6.1347 0,6.1347 0,0 -0.4382,7.011 -0.4382,7.011 0,0 0,10.5166 0,10.5166 0,0 0.4382,7.4493 0.4382,7.4493 0,0 0,12.2694 0,12.2694 0,0 0.4382,6.5729 0.4382,6.5729 0,0 0,6.1346 0,6.1346 0,0 0.4557,7.0111 0.4557,7.0111 0,0 0,7.4493 0,7.4493 0,0 0.4207,4.8201 0.4207,4.8201 0,0 0,8.7638 0,8.7638 0,0 0.4382,7.4493 0.4382,7.4493 0,0 0,24.1006 0,24.1006 0,0 -0.4382,6.5728 -0.4382,6.5728 0,0 0,5.2583 0,5.2583 0,0 -0.4382,8.3257 -0.4382,8.3257 0,0 -0.837,11.393 -0.837,11.393 0,0 -1.7177,21.9096 -1.7177,21.9096 0,0 -5.8454,62.6615 -5.8454,62.6615 0,0 -2.1559,27.1679 -2.1559,27.1679 0,0 -0.837,12.7075 -0.837,12.7075 0,0 -0.4207,5.2583 -0.4207,5.2583 0,0 0,5.6965 0,5.6965 0,0 -0.4557,7.0111 -0.4557,7.0111 0,3.7115 -0.053,7.5281 -1.7133,10.9548 -1.8097,3.7246 -5.8148,6.196 -9.2415,8.238 -8.1942,4.8771 -18.163,6.7701 -27.6061,6.6605 0,0 -11.8312,-0.7975 -11.8312,-0.7975 -6.3056,0.482 -6.8577,4.3381 -8.1635,9.5614 0,0 -2.9534,12.2694 -2.9534,12.2694 0,0 -3.1024,9.6402 -3.1024,9.6402 -2.283,5.5913 -3.7378,6.494 -3.7465,13.1457 0,0 0,7.4493 0,7.4493 0,0 0.8763,13.1458 0.8763,13.1458 0,0 -0.4381,16.6513 -0.4381,16.6513 0,0 -0.4382,8.32557 -0.4382,8.32557 0,0 -0.3988,4.3819 -0.3988,4.3819 0,0 -1.7177,20.1569 -1.7177,20.1569 -1.4241,14.2368 -3.4179,28.4167 -5.955,42.5046 -3.6064,19.9859 -7.8042,39.8886 -10.4553,60.0323 0,0 -2.1077,21.0332 -2.1077,21.0332 0,0 -0.3988,5.2583 -0.3988,5.2583 0,0 0,5.2583 0,5.2583 0,0 -0.3593,5.2583 -0.3593,5.2583 0,0 0.3593,4.382 0.3593,4.382 0.057,12.5542 3.8079,25.9453 9.1539,37.2463 4.9515,10.4684 12.6374,18.908 21.9578,25.6693 7.3879,5.3547 20.3189,13.1107 25.4852,19.9026 4.1804,5.3328 6.3056,15.3587 0,19.8721 -2.7913,1.928 -8.1635,2.4714 -11.4631,2.4757 0,0 -10.9548,0 -10.9548,0 -10.7138,-0.127 -25.0821,-4.9822 -34.6172,-9.7497 -4.7719,-2.3838 -11.2308,-7.1031 -15.7749,-8.3213 -3.3828,-0.9114 -7.4536,-0.8983 -10.9548,-1.3365 -4.5221,-0.5609 -8.1898,-1.7046 -12.2693,-3.7115 -1.6082,-0.7887 -5.6308,-2.5152 -6.2268,-4.1409 -0.4776,-0.9465 0.1227,-4.9253 0,-6.4808 0,0 -0.3242,-3.9438 -0.3242,-3.9438 0,0 0,-7.011 0,-7.011 0.039,-5.2321 1.6125,-11.8444 3.672,-16.6513 3.3434,-7.8174 4.6755,-6.6211 6.5554,-16.6513 0,0 1.1831,-11.8312 1.1831,-11.8312 0,0 0.837,-12.2694 0.837,-12.2694 0,0 0,-24.5388 0,-24.5388 0,0 -0.4382,-6.5728 -0.4382,-6.5728 0,0 0,-1.7528 0,-1.7528 0,0 -0.3988,-4.3819 -0.3988,-4.3819 0,0 -3.041,-31.1117 -3.041,-31.1117 -0.4382,-3.6983 -1.3628,-13.7767 -2.6949,-16.6513 0,0 -3.396,17.0895 -3.396,17.0895 0,0 -5.1137,36.8082 -5.1137,36.8082 -1.7835,11.4806 -5.2057,27.755 -5.0743,38.9991 0,0 3.0674,23.6623 3.0674,23.6623 0,0 0,3.5056 0,3.5056 -0.083,6.6123 -4.6186,9.8812 -4.3644,16.2131 0,0 2.5371,15.3367 2.5371,15.3367 0,0 0.5127,13.5839 0.5127,13.5839 0,0 -0.4382,6.5729 -0.4382,6.5729 0,0 -0.8457,11.393 -0.8457,11.393 -0.1096,1.2138 -0.3681,4.6405 -0.9158,5.5651 -0.9728,1.6388 -4.3513,3.1243 -6.126,3.7728 -5.0436,1.8316 -12.598,2.9052 -17.9658,2.9315 -10.5605,0.048 -19.6705,-0.5171 -29.7971,-3.9437 -4.6887,-1.5907 -9.1801,-3.4442 -9.1889,-9.2021 -0.01,-5.1487 3.6896,-9.9645 6.9979,-13.5839 0,0 7.8875,-7.813 7.8875,-7.813 5.0348,-4.5572 7.1075,-5.6483 11.3229,-11.4675 3.4047,-4.693 5.8323,-10.3764 5.7666,-16.2131 0,0 -1.7528,-15.3367 -1.7528,-15.3367 0.079,-6.4195 5.5826,-16.2438 5.6965,-25.8533 0.092,-8.1197 -2.2961,-18.6188 -3.7597,-26.7297 0,0 -4.8201,-30.2353 -4.8201,-30.2353 -3.4661,-22.3346 -6.8445,-44.551 -9.0224,-67.0434 0,0 -1.24,-17.9659 -1.24,-17.9659 0,0 -0.4382,-7.4492 -0.4382,-7.4492 0,0 0,-20.595 0,-20.595 0,0 0.4382,-4.382 0.4382,-4.382 0,0 0,-3.9437 0,-3.9437 0.7843,-10.89777 2.3793,-24.10047 5.2626,-34.61717 2.8527,-10.4026 9.075,-24.4861 9.1977,-35.0553 0.035,-2.9666 -0.631,-10.7313 -2.559,-12.9223 -1.0999,-1.2488 -8.1197,-2.4758 -10.1486,-3.0367 0,0 -26.2915,-7.8261 -26.2915,-7.8261 -2.4232,-0.7274 -10.1923,-2.4977 -11.6428,-4.0051 -1.0954,-1.1305 -1.1173,-2.7167 -1.0253,-4.1978 0,0 0.8369,-9.6403 0.8369,-9.6403 0,0 0.4382,-6.5728 0.4382,-6.5728 0,0 0.4557,-8.7639 0.4557,-8.7639 0,0 0,-5.2583 0,-5.2583 0,0 0.4207,-4.3819 0.4207,-4.3819 0,0 0,-6.5729 0,-6.5729 0,0 0.4382,-7.4493 0.4382,-7.4493 0,0 0,-10.9548 0,-10.9548 0,0 0.4382,-7.4492 0.4382,-7.4492 0,0 0,-21.0332 0,-21.0332 0,0 0.4382,-7.4493 0.4382,-7.4493 0,0 0,-25.8533 0,-25.8533 0,0 0.4382,-6.5729 0.4382,-6.5729 0,0 0,-14.4604 0,-14.4604 0,0 0.4382,-6.5728 0.4382,-6.5728 0,0 0,-8.3257 0,-8.3257 0,0 0.4381,-7.0111 0.4381,-7.0111 0,0 0.4382,-13.1457 0.4382,-13.1457 0,0 0.4382,-8.7639 0.4382,-8.7639 0,0 0.837,-11.393 0.837,-11.393 0,0 1.8667,-23.2241 1.8667,-23.2241 0,0 1.6783,-15.3368 1.6783,-15.3368 -1.8405,1.9106 -4.6361,5.7535 -7.0812,2.1647 -1.7616,-2.5809 -1.4724,-6.643 -1.7572,-9.6139 -0.6397,-6.735 -0.4075,-13.5358 -2.0682,-20.1569 -1.319,-5.2495 -4.6317,-10.2098 -7.3135,-14.8985 0,0 -10.8102,-20.1568 -10.8102,-20.1568 -2.4013,-4.807 -4.9165,-13.1458 -8.6937,-16.5067 -2.4101,-2.1472 -5.8893,-2.971 -8.7244,-4.4783 -3.7947,-2.0157 -5.7622,-3.992 -8.1723,-7.4975 -20.7002,-30.095 -37.4961,-70.3736 -52.8722,-103.8515 0,0 -14.7364003,-30.2353 -14.7364003,-30.2353 -1.8229,-4.7675 -3.47049997,-12.4315 -3.53189997,-17.5276 -0.1007,-8.9173 0.2892,-18.2201 4.59669997,-26.2916 2.8175,-5.2846 5.8542003,-7.0461 9.8637003,-10.9592 0,0 15.7354,-16.2087 15.7354,-16.2087 0,0 18.0448,-20.1568 18.0448,-20.1568 0,0 4.303,-4.3819 4.303,-4.3819 0,0 3.5494,-3.9262 3.5494,-3.9262 0,0 4.7982,-4.3995 4.7982,-4.3995 0,0 11.7742,-12.7076 11.7742,-12.7076 11.244,-12.449 25.9629,-30.3448 39.95,-39.2444 7.6026,-4.8421 16.0729,-6.6167 24.9769,-6.9454 4.5967,-0.1665 10.2187,1.5337 14.4604,-0.5083 5.2276,-2.5152 7.9663,-10.6086 11.393,-15.0869 -9.5176,2.1734 -17.8038,10.9416 -26.7297,13.0406 -4.1322,0.9727 -10.1179,0.8457 -13.1458,-2.524 16.6381,-3.7553 37.1762,-12.7821 44.8533,-28.9207 2.0026,-4.211 4.6492,-12.0722 3.3478,-16.6513 -0.5872,3.1199 -2.616,6.1654 -4.395,8.7638 -4.9429,7.2346 -10.4071,11.8312 -17.5146,16.774 -2.3837,1.6564 -7.6903,5.3022 -10.5166,5.3635 -2.41,0.053 -6.1741,-2.8745 -8.3256,-4.1716 z M 1725.6753,111.909 c -1.6958,4.28113 1.6827,6.30996 -1.3145,12.26938 1.7966,0 4.9647,0.28482 6.3844,-0.88077 0.8414,-0.68796 1.0166,-1.59064 1.0298,-2.62477 0.053,-3.97878 -2.9009,-6.89276 -6.0997,-8.76384 z m 4.382,14.46034 c -3.0367,-0.39876 -4.3557,-0.75369 -7.4493,0 0,0 2.191,4.82011 2.191,4.82011 4.1759,-0.19281 5.2144,-0.58718 5.2583,-4.82011 z M 726.59746,357.29653 c -0.8238,2.0771 -0.4119,7.9707 -0.4382,10.5166 0,0 -0.4207,4.382 -0.4207,4.382 0,0 0,4.3819 0,4.3819 0,0 -0.4557,6.1347 -0.4557,6.1347 0,0 -0.3988,5.6965 -0.3988,5.6965 -0.723,10.5604 -1.2401,21.0551 -2.9271,31.5498 0,0 -3.063,16.2131 -3.063,16.2131 -0.4513,2.042 -1.6914,5.5475 -1.0604,7.4493 0,0 4.2724,-8.3257 4.2724,-8.3257 4.4564,-8.9084 8.7989,-18.3865 15.5208,-25.8533 3.9437,-4.3819 9.018,-7.6947 12.2518,-12.7076 1.0166,-1.5687 2.4276,-4.2373 2.4451,-6.1347 0.044,-4.3994 -6.0164,-4.3556 -7.3134,-6.3143 -0.6704,-1.0166 -0.3769,-3.729 -0.5215,-5.0787 -0.241,-2.2348 -1.1568,-4.6273 -2.2654,-6.5729 -2.9008,-5.0917 -11.06,-10.7707 -15.6259,-15.3367 z m -598.5704,20.595 c 0,0 -0.8764,0 -0.8764,0 -6.6517,14.9161 -21.4845,26.629 -33.7407,36.8432 0,0 -11.8312,10.0609 -11.8312,10.0609 -1.1963,1.1437 -3.4968,3.12 -3.6765,4.8026 -0.1752,1.6608 3.0499,9.7542 3.8167,11.8312 4.1409,11.2089 9.7585,21.7694 15.0869,32.4262 0,0 9.6403,18.4041 9.6403,18.4041 0,0 18.4172,36.8081 18.4172,36.8081 0,0 7.9882,14.4603 7.9882,14.4603 1.9368,3.2996 4.3337,6.5773 4.6711,10.5167 0.5303,6.104 -6.2749,11.4455 -6.8664,17.9658 1.7396,0 4.0883,0.1622 5.6789,-0.5389 3.9262,-1.7265 3.7904,-9.2152 4.4345,-13.045 1.1393,-6.7613 3.1813,-14.158 3.028,-21.0332 0,0 -0.4163,-3.9438 -0.4163,-3.9438 0,0 0,-5.2583 0,-5.2583 0,0 -0.8194,-9.6402 -0.8194,-9.6402 0,0 -3.9438,-37.2463 -3.9438,-37.2463 0,0 -0.5521,-9.6403 -0.5521,-9.6403 0,0 -0.3988,-4.8201 -0.3988,-4.8201 0,0 -0.4381,-7.011 -0.4381,-7.011 0,0 -0.837,-13.1458 -0.837,-13.1458 0,0 -1.3146,-18.8423 -1.3146,-18.8423 0,0 -3.3609,-34.1789 -3.3609,-34.1789 -0.7668,-5.1707 -1.2883,-11.0907 -3.6896,-15.775 z m 2043.28964,16.2132 c -1.7353,3.3916 -1.5381,8.1109 -1.7922,11.8311 0,0 -0.3988,4.382 -0.3988,4.382 0,0 -2.1165,21.0332 -2.1165,21.0332 0,0 -1.8272,30.6734 -1.8272,30.6734 0,0 -0.4382,6.5729 -0.4382,6.5729 0,0 0,38.5609 0,38.5609 0,0 0.4382,10.0784 0.4382,10.0784 0,0 0.8764,26.7297 0.8764,26.7297 0,0 0.4381,8.3257 0.4381,8.3257 0,0 0.4382,7.4492 0.4382,7.4492 0,0 0.8764,18.4041 0.8764,18.4041 0,0 0.4382,6.5729 0.4382,6.5729 0,0 0.4382,9.6402 0.4382,9.6402 2.7869,-0.026 8.2249,-0.5214 10.5166,-2.0595 2.8921,-1.9456 3.9657,-4.934 5.1707,-8.0189 0,0 5.9682,-21.4714 5.9682,-21.4714 0,0 5.3284,-25.8533 5.3284,-25.8533 0,0 3.8736,-20.5951 3.8736,-20.5951 0,0 8.6324,-34.1789 8.6324,-34.1789 0,0 2.7737,-14.8986 2.7737,-14.8986 1.7835,-8.8777 8.4878,-22.0279 8.5667,-28.9206 0.083,-7.4537 -3.3522,-9.9251 -8.3257,-14.8986 0,0 -9.0793,-9.6402 -9.0793,-9.6402 0,0 -4.4959,-5.6965 -4.4959,-5.6965 -0.6572,-0.9509 -1.8228,-2.9447 -2.7781,-3.488 -2.7694,-1.5775 -6.4809,3.1199 -9.5,1.4329 0,0 -3.9437,-3.4574 -3.9437,-3.4574 0,0 -10.0784,-8.5096 -10.0784,-8.5096 z m -204.1975,11.8311 c -1.5994,1.4329 -4.658,5.9375 -6.5729,6.1216 -1.9719,0.1928 -3.7772,-3.4705 -6.4809,-1.4767 -1.3803,1.0166 -2.1778,3.4836 -2.9446,4.9954 -0.8238,1.6169 -2.226,3.3521 -3.3391,4.8201 0,0 -10.1923,12.2694 -10.1923,12.2694 -1.595,1.9499 -3.9832,4.6842 -4.842,7.011 -0.8633,2.3312 -0.7099,4.991 -0.6836,7.4493 0.057,4.5922 1.9412,10.6875 2.8702,15.3367 0.8982,4.4783 1.9411,15.1746 1.9499,19.7187 0,0 0,9.202 0,9.202 0,0 -0.4382,9.6402 -0.4382,9.6402 0,0 -0.4382,7.0111 -0.4382,7.0111 0,0 -0.4382,12.7076 -0.4382,12.7076 0,0 -0.4557,6.1346 -0.4557,6.1346 0,0 0,6.1347 0,6.1347 0,0 -0.4207,5.2583 -0.4207,5.2583 0,0 0,5.6965 0,5.6965 0,0 -0.4381,6.5729 -0.4381,6.5729 0,0 0,32.4262 0,32.4262 0.031,2.4758 0.5915,7.7473 2.3136,9.5439 2.2085,2.3092 10.2406,2.7211 13.4613,2.7255 0,0 2.1909,0 2.1909,0 0,0 10.5166,0.8676 10.5166,0.8676 4.5485,-0.1314 5.0743,-3.6151 5.2408,-7.4405 0.5434,-12.4183 4.8289,-22.8429 8.2161,-34.6171 4.8902,-17.0107 8.5711,-34.477 9.8068,-52.1449 0,0 0.3987,-5.2583 0.3987,-5.2583 0,0 0,-16.2131 0,-16.2131 0,0 -0.3987,-5.2583 -0.3987,-5.2583 -1.2445,-16.9975 -5.8236,-28.5351 -11.2835,-44.2574 0,0 -4.785,-14.4604 -4.785,-14.4604 0,0 -2.8132,-10.5166 -2.8132,-10.5166 z m -1647.60224,36.8082 c -3.5887,3.0454 -6.0601,9.9601 -7.3221,14.4603 -3.5801,12.7777 -2.9491,30.1169 0.2541,42.9428 1.0122,4.0489 3.4135,13.4043 6.1917,16.2131 0.6879,-8.4921 7.4361,-30.6121 9.5526,-41.19 0.5784,-2.8833 2.6247,-12.9661 2.1559,-15.3367 -0.3068,-1.5688 -1.9675,-3.8211 -2.8614,-5.2583 0,0 -7.9708,-11.8312 -7.9708,-11.8312 z m -191.0517,219.096 c 0.6836,-4.8639 3.3127,-13.3035 3.0279,-17.9659 -0.2103,-3.3784 -1.2488,-5.8235 -4.7807,-6.5729 -1.24,9.3905 0.8764,15.7399 0.8764,24.5388 0,0 0.8764,0 0.8764,0 z m 96.4023,263.7916 c -1.1393,1.5468 -1.1919,4.2067 -1.5775,6.1347 0,0 -2.7519,11.8312 -2.7519,11.8312 -0.4294,1.893 -1.1699,4.2724 -0.4907,6.1347 3.4792,-8.0321 9.8417,-15.0256 4.8201,-24.1006 z m 288.7685,268.61167 c 0,0 -0.4382,0 -0.4382,0 0,0 0.4382,0.4382 0.4382,0.4382 0,0 0,-0.4382 0,-0.4382 z m 6.5729,3.0674 c -0.9991,-3.0455 -3.4047,-1.4242 -3.0673,1.3145 0,0 3.0673,-1.3145 3.0673,-1.3145 z m -7.4493,3.0673 c -1.5774,0.8107 -1.6782,0.9334 -2.1909,2.6292 0,0 2.6291,-0.8764 2.6291,-0.8764 0,0 -0.4382,-1.7528 -0.4382,-1.7528 z m 1290.03744,8.7639 c 0,0 -1.7527,0.8763 -1.7527,0.8763 0,0 1.7527,-0.8763 1.7527,-0.8763 z m 0,6.5728 c -1.0078,-1.6651 -1.1787,-2.0463 -3.0673,-2.6291 0.872,1.779 1.1656,2.0639 3.0673,2.6291 z"
     style="opacity:0.5;fill:#ffffff;fill-opacity:1" />
</svg>
