<?xml version="1.0" encoding="UTF-8" standalone="no"?>
<!-- Uploaded to: SVG Repo, www.svgrepo.com, Transformed by: SVG Repo Mixer Tools -->

<svg
   width="800px"
   height="800px"
   viewBox="0 0 32 32"
   version="1.1"
   fill="#ffffff"
   stroke="#ffffff"
   id="svg14"
   sodipodi:docname="save.svg"
   inkscape:version="1.2.2 (b0a8486541, 2022-12-01)"
   xmlns:inkscape="http://www.inkscape.org/namespaces/inkscape"
   xmlns:sodipodi="http://sodipodi.sourceforge.net/DTD/sodipodi-0.dtd"
   xmlns="http://www.w3.org/2000/svg"
   xmlns:svg="http://www.w3.org/2000/svg"
   xmlns:sketch="http://www.bohemiancoding.com/sketch/ns">
  <defs
     id="defs18" />
  <sodipodi:namedview
     id="namedview16"
     pagecolor="#505050"
     bordercolor="#eeeeee"
     borderopacity="1"
     inkscape:showpageshadow="0"
     inkscape:pageopacity="0"
     inkscape:pagecheckerboard="0"
     inkscape:deskcolor="#505050"
     showgrid="false"
     inkscape:zoom="1.0975"
     inkscape:cx="330.29613"
     inkscape:cy="400"
     inkscape:window-width="1920"
     inkscape:window-height="1028"
     inkscape:window-x="0"
     inkscape:window-y="0"
     inkscape:window-maximized="1"
     inkscape:current-layer="Page-1" />
  <g
     id="SVGRepo_bgCarrier"
     stroke-width="0" />
  <g
     id="SVGRepo_tracerCarrier"
     stroke-linecap="round"
     stroke-linejoin="round" />
  <g
     id="SVGRepo_iconCarrier">
    <title
       id="title4">save-floppy</title>
    <desc
       id="desc6">Created with Sketch Beta.</desc>
    <defs
       id="defs8" />
    <g
       id="Page-1"
       stroke="none"
       stroke-width="1"
       fill="none"
       fill-rule="evenodd"
       sketch:type="MSPage">
      <g
         id="Icon-Set"
         sketch:type="MSLayerGroup"
         transform="translate(-152.000000, -515.000000)"
         fill="#ffffff"
         style="fill:#ffffff;fill-opacity:0.5">
        <path
           d="M171,525 C171.552,525 172,524.553 172,524 L172,520 C172,519.447 171.552,519 171,519 C170.448,519 170,519.447 170,520 L170,524 C170,524.553 170.448,525 171,525 L171,525 Z M182,543 C182,544.104 181.104,545 180,545 L156,545 C154.896,545 154,544.104 154,543 L154,519 C154,517.896 154.896,517 156,517 L158,517 L158,527 C158,528.104 158.896,529 160,529 L176,529 C177.104,529 178,528.104 178,527 L178,517 L180,517 C181.104,517 182,517.896 182,519 L182,543 L182,543 Z M160,517 L176,517 L176,526 C176,526.553 175.552,527 175,527 L161,527 C160.448,527 160,526.553 160,526 L160,517 L160,517 Z M180,515 L156,515 C153.791,515 152,516.791 152,519 L152,543 C152,545.209 153.791,547 156,547 L180,547 C182.209,547 184,545.209 184,543 L184,519 C184,516.791 182.209,515 180,515 L180,515 Z"
           id="save-floppy"
           sketch:type="MSShapeGroup"
           style="fill:#ffffff;fill-opacity:0.5" />
      </g>
    </g>
  </g>
</svg>
