<?xml version="1.0" standalone="no"?>
<!DOCTYPE svg PUBLIC "-//W3C//DTD SVG 20010904//EN"
 "http://www.w3.org/TR/2001/REC-SVG-20010904/DTD/svg10.dtd">
<svg version="1.0" xmlns="http://www.w3.org/2000/svg"
 width="256.000000pt" height="256.000000pt" viewBox="0 0 256.000000 256.000000"
 preserveAspectRatio="xMidYMid meet">
<metadata>
Created by potrace 1.14, written by Peter Selinger 2001-2017
</metadata>
<g transform="translate(0.000000,256.000000) scale(0.100000,-0.100000)"
fill="#000000" stroke="none">
<path d="M1109 2549 c-560 -81 -998 -508 -1093 -1064 -20 -116 -14 -346 12
-465 110 -507 502 -895 1003 -995 94 -19 340 -28 409 -15 25 4 63 11 85 14 22
4 58 12 80 18 22 6 45 12 50 14 6 1 39 13 75 27 412 156 709 503 802 937 26
121 32 350 12 465 -31 172 -105 363 -195 498 -75 111 -139 183 -250 278 -147
125 -362 232 -539 268 -30 6 -68 13 -85 16 -50 10 -306 13 -366 4z"/>
</g>
</svg>
