<?xml version="1.0" encoding="UTF-8" standalone="no"?>
<!-- Created with Inkscape (http://www.inkscape.org/) -->

<svg
   width="200"
   height="200"
   viewBox="0 0 52.916666 52.916666"
   version="1.1"
   id="svg1"
   inkscape:version="1.3 (0e150ed6c4, 2023-07-21)"
   sodipodi:docname="add.svg"
   xml:space="preserve"
   xmlns:inkscape="http://www.inkscape.org/namespaces/inkscape"
   xmlns:sodipodi="http://sodipodi.sourceforge.net/DTD/sodipodi-0.dtd"
   xmlns="http://www.w3.org/2000/svg"
   xmlns:svg="http://www.w3.org/2000/svg"><sodipodi:namedview
     id="namedview1"
     pagecolor="#ffffff"
     bordercolor="#000000"
     borderopacity="0.29019608"
     inkscape:showpageshadow="2"
     inkscape:pageopacity="0.0"
     inkscape:pagecheckerboard="false"
     inkscape:deskcolor="#d1d1d1"
     inkscape:document-units="mm"
     inkscape:zoom="1.0406414"
     inkscape:cx="219.57613"
     inkscape:cy="151.34897"
     inkscape:window-width="1920"
     inkscape:window-height="1048"
     inkscape:window-x="1920"
     inkscape:window-y="0"
     inkscape:window-maximized="1"
     inkscape:current-layer="layer1" /><defs
     id="defs1" /><g
     inkscape:label="Layer 1"
     inkscape:groupmode="layer"
     id="layer1"><g
       style="fill:#ffffff"
       id="g1"
       transform="matrix(2.362125,0,0,2.362125,-1.8871667,-1.7834572)"><g
         id="SVGRepo_bgCarrier"
         stroke-width="0" /><g
         id="SVGRepo_tracerCarrier"
         stroke-linecap="round"
         stroke-linejoin="round" /><g
         id="SVGRepo_iconCarrier"
         style="opacity:0.5"><path
           d="m 2,21 h 8 a 1,1 0 0 0 0,-2 H 3.071 A 7.011,7.011 0 0 1 10,13 5.044,5.044 0 1 0 6.623,11.663 9.01,9.01 0 0 0 1,20 1,1 0 0 0 2,21 Z M 10,5 A 3,3 0 1 1 7,8 3,3 0 0 1 10,5 Z m 13,11 a 1,1 0 0 1 -1,1 h -3 v 3 a 1,1 0 0 1 -2,0 v -3 h -3 a 1,1 0 0 1 0,-2 h 3 v -3 a 1,1 0 0 1 2,0 v 3 h 3 a 1,1 0 0 1 1,1 z"
           id="path4" /></g></g></g></svg>
