<?xml version="1.0" encoding="UTF-8" standalone="no"?>
<!-- Created with Inkscape (http://www.inkscape.org/) -->

<svg
   width="200"
   height="200"
   viewBox="0 0 52.916666 52.916666"
   version="1.1"
   id="svg1"
   inkscape:version="1.3 (0e150ed6c4, 2023-07-21)"
   sodipodi:docname="channel.svg"
   xml:space="preserve"
   xmlns:inkscape="http://www.inkscape.org/namespaces/inkscape"
   xmlns:sodipodi="http://sodipodi.sourceforge.net/DTD/sodipodi-0.dtd"
   xmlns="http://www.w3.org/2000/svg"
   xmlns:svg="http://www.w3.org/2000/svg"><sodipodi:namedview
     id="namedview1"
     pagecolor="#ffffff"
     bordercolor="#000000"
     borderopacity="0.29019608"
     inkscape:showpageshadow="2"
     inkscape:pageopacity="0.0"
     inkscape:pagecheckerboard="false"
     inkscape:deskcolor="#d1d1d1"
     inkscape:document-units="mm"
     inkscape:zoom="1.0406414"
     inkscape:cx="301.25653"
     inkscape:cy="381.97598"
     inkscape:window-width="1920"
     inkscape:window-height="1048"
     inkscape:window-x="1920"
     inkscape:window-y="0"
     inkscape:window-maximized="1"
     inkscape:current-layer="svg1" /><defs
     id="defs1"><style
       id="style188">.cls-1{fill:none;stroke:#ffffff;stroke-miterlimit:10;stroke-width:1.91px;}</style></defs><g
     style="color:#ffffff"
     id="g1"
     transform="matrix(0.11570279,0,0,0.11570279,0.54090837,-3.1093792)"><path
       d="m 416,127.1 h -58.23 l 9.789,-58.74 c 2.906,-17.44 -8.875,-33.92 -26.3,-36.83 -17.53,-2.875 -33.92,8.891 -36.83,26.3 L 292.9,127.1 h -95.1 l 9.789,-58.74 c 2.906,-17.44 -8.875,-33.92 -26.3,-36.83 -17.53,-2.875 -33.92,8.891 -36.83,26.3 L 132.9,127.1 H 64 c -17.67,0 -32,14.33 -32,32 0,18.6 14.33,32 32,32 h 58.23 l -21.33,128 H 32 c -17.67,0 -32,14.33 -32,32 0,17.67 14.33,31.1 32,31.1 h 58.23 l -9.789,58.74 c -2.906,17.44 8.875,33.92 26.3,36.83 1.759,2.13 3.559,2.23 5.259,2.23 15.36,0 28.92,-11.09 31.53,-26.73 L 155.07,384 h 95.12 l -9.789,58.74 c -2.906,17.44 8.875,33.92 26.3,36.83 1.799,0.33 3.599,0.43 5.299,0.43 15.36,0 28.92,-11.09 31.53,-26.73 L 315.07,384 H 384 c 17.67,0 32,-14.33 32,-31.1 0,-17.67 -14.33,-32 -32,-32 h -58.23 l 21.33,-128 H 416 c 17.67,0 32,-14.32 32,-31.1 0,-19.5 -14.3,-34.7 -32,-34.7 z m -155.1,192 h -95.1 l 21.3,-128 h 95.12 z"
       fill="#ffffff"
       id="path2"
       style="opacity:0.5" /></g></svg>
