<?xml version="1.0" encoding="UTF-8" standalone="no"?>
<!-- Created with Inkscape (http://www.inkscape.org/) -->

<svg
   width="200"
   height="200"
   viewBox="0 0 52.916666 52.916666"
   version="1.1"
   id="svg1"
   inkscape:version="1.3 (0e150ed6c4, 2023-07-21)"
   sodipodi:docname="docs.svg"
   xml:space="preserve"
   xmlns:inkscape="http://www.inkscape.org/namespaces/inkscape"
   xmlns:sodipodi="http://sodipodi.sourceforge.net/DTD/sodipodi-0.dtd"
   xmlns="http://www.w3.org/2000/svg"
   xmlns:svg="http://www.w3.org/2000/svg"><sodipodi:namedview
     id="namedview1"
     pagecolor="#ffffff"
     bordercolor="#000000"
     borderopacity="0.29019608"
     inkscape:showpageshadow="2"
     inkscape:pageopacity="0.0"
     inkscape:pagecheckerboard="false"
     inkscape:deskcolor="#d1d1d1"
     inkscape:document-units="mm"
     inkscape:zoom="1.0406414"
     inkscape:cx="301.25653"
     inkscape:cy="381.97598"
     inkscape:window-width="1920"
     inkscape:window-height="1048"
     inkscape:window-x="1920"
     inkscape:window-y="0"
     inkscape:window-maximized="1"
     inkscape:current-layer="svg1" /><defs
     id="defs1"><style
       id="style188">.cls-1{fill:none;stroke:#ffffff;stroke-miterlimit:10;stroke-width:1.91px;}</style></defs><g
     style="fill:#ffffff;stroke:#ffffff"
     id="g1"
     transform="matrix(0.11156156,0,0,0.11156156,-2.1014197,-2.1042585)"><g
       id="SVGRepo_bgCarrier"
       stroke-width="0" /><g
       id="SVGRepo_tracerCarrier"
       stroke-linecap="round"
       stroke-linejoin="round"
       stroke="#cccccc"
       stroke-width="8.192" /><g
       id="SVGRepo_iconCarrier"
       style="opacity:0.5"><path
         fill="#ffffff"
         d="m 204.055,213.905 q -18.12,-5.28 -34.61,-9 a 145.92,145.92 0 0 1 -6.78,-44.33 c 0,-65.61 42.17,-118.8 94.19,-118.8 52.02,0 94.15,53.14 94.15,118.76 a 146.3,146.3 0 0 1 -6.16,42.32 q -20.52,4.3 -43.72,11.05 c -22,6.42 -39.79,12.78 -48.56,16.05 -8.72,-3.27 -26.51,-9.63 -48.51,-16.05 z m -127.95,84.94 a 55.16,55.16 0 1 0 55.16,55.15 55.16,55.16 0 0 0 -55.16,-55.15 z m 359.79,0 a 55.16,55.16 0 1 0 55.16,55.15 55.16,55.16 0 0 0 -55.15,-55.15 z m -71.15,55.15 a 71.24,71.24 0 0 1 42.26,-65 v -77.55 c -64.49,0 -154.44,35.64 -154.44,35.64 0,0 -89.95,-35.64 -154.44,-35.64 v 74.92 a 71.14,71.14 0 0 1 0,135.28 v 7 c 64.49,0 154.44,41.58 154.44,41.58 0,0 89.99,-41.55 154.44,-41.55 v -9.68 a 71.24,71.24 0 0 1 -42.26,-65 z"
         id="path462" /></g></g></svg>
