<?xml version="1.0" encoding="UTF-8" standalone="no"?>
<!-- Created with Inkscape (http://www.inkscape.org/) -->

<svg
   width="200"
   height="200"
   viewBox="0 0 52.916666 52.916666"
   version="1.1"
   id="svg1"
   inkscape:version="1.3 (0e150ed6c4, 2023-07-21)"
   sodipodi:docname="js.svg"
   xml:space="preserve"
   xmlns:inkscape="http://www.inkscape.org/namespaces/inkscape"
   xmlns:sodipodi="http://sodipodi.sourceforge.net/DTD/sodipodi-0.dtd"
   xmlns="http://www.w3.org/2000/svg"
   xmlns:svg="http://www.w3.org/2000/svg"><sodipodi:namedview
     id="namedview1"
     pagecolor="#ffffff"
     bordercolor="#000000"
     borderopacity="0.29019608"
     inkscape:showpageshadow="2"
     inkscape:pageopacity="0.0"
     inkscape:pagecheckerboard="false"
     inkscape:deskcolor="#d1d1d1"
     inkscape:document-units="mm"
     inkscape:zoom="1.0406414"
     inkscape:cx="301.25653"
     inkscape:cy="228.22464"
     inkscape:window-width="1920"
     inkscape:window-height="1048"
     inkscape:window-x="1920"
     inkscape:window-y="0"
     inkscape:window-maximized="1"
     inkscape:current-layer="svg1" /><defs
     id="defs1"><style
       id="style188">.cls-1{fill:none;stroke:#ffffff;stroke-miterlimit:10;stroke-width:1.91px;}</style></defs><g
     style="fill:none"
     id="g1"
     transform="matrix(3.3072865,0,0,3.3072865,0.11811146,-4.9089003e-8)"><g
       id="SVGRepo_bgCarrier"
       stroke-width="0" /><g
       id="SVGRepo_tracerCarrier"
       stroke-linecap="round"
       stroke-linejoin="round" /><g
       id="SVGRepo_iconCarrier"
       style="opacity:0.5"><path
         fill-rule="nonzero"
         clip-rule="nonzero"
         d="m 7.58638,0.102166 c 0.23352,-0.1362213 0.52229,-0.1362213 0.75581,0 L 14.5565,3.72717 c 0.2304,0.1344 0.3721,0.38108 0.3721,0.64783 v 7.25 c 0,0.2668 -0.1417,0.5134 -0.3721,0.6478 l -6.21431,3.625 c -0.23352,0.1363 -0.52229,0.1363 -0.75581,0 L 6.03281,14.9916 C 5.67502,14.7829 5.55417,14.3236 5.76288,13.9658 5.97159,13.6081 6.43083,13.4872 6.78862,13.6959 l 1.17567,0.6858 5.46431,-3.1875 V 4.80578 L 7.96429,1.61828 2.5,4.80578 v 6.38842 l 1.1168,0.6515 c 0.34418,0.1104 0.76931,0.1374 1.06896,0.005 0.13901,-0.0614 0.26455,-0.1614 0.36392,-0.34 C 5.15426,11.3227 5.25,11.0098 5.25,10.5 V 5.25 C 5.25,4.83579 5.58579,4.5 6,4.5 c 0.41421,0 0.75,0.33579 0.75,0.75 v 5.25 c 0,0.6902 -0.12896,1.2716 -0.38953,1.7399 C 6.09471,12.7176 5.71466,13.036 5.29192,13.2228 4.48562,13.579 3.59523,13.433 3.04999,13.2371 3.00686,13.2216 2.96525,13.2022 2.92567,13.1791 L 1.3721,12.2728 C 1.14168,12.1384 1,11.8918 1,11.625 V 4.375 C 1,4.10825 1.14168,3.86157 1.3721,3.72717 Z M 8.24655,5.28323 C 8.64339,4.81081 9.26318,4.5 10.1042,4.5 c 0.7805,0 1.375,0.26756 1.7773,0.69314 0.2845,0.30103 0.2712,0.77571 -0.0299,1.06024 C 11.5506,6.53792 11.0759,6.52455 10.7914,6.22352 10.7038,6.13087 10.5202,6 10.1042,6 9.66182,6 9.47952,6.14753 9.39511,6.24802 9.28615,6.37774 9.25,6.54184 9.25,6.625 9.25,6.70816 9.28615,6.87226 9.39511,7.00198 9.47952,7.10247 9.66182,7.25 10.1042,7.25 c 0.074,0 0.1455,0.01073 0.2131,0.03072 0.6195,0.08929 1.0916,0.36712 1.4153,0.75251 0.3723,0.4432 0.4966,0.9666 0.4966,1.34177 0,0.37517 -0.1243,0.8986 -0.4966,1.3418 C 11.3358,11.1892 10.716,11.5 9.87501,11.5 9.0945,11.5 8.49996,11.2324 8.09768,10.8069 7.81315,10.5058 7.82652,10.0311 8.12755,9.74662 8.42857,9.46208 8.90325,9.47546 9.18779,9.77648 9.27536,9.86913 9.459,10 9.87501,10 10.3174,10 10.4997,9.85247 10.5841,9.75198 10.693,9.62226 10.7292,9.45816 10.7292,9.375 10.7292,9.29184 10.693,9.12774 10.5841,8.99802 10.4997,8.89753 10.3174,8.75 9.87501,8.75 9.80097,8.75 9.72943,8.73927 9.66188,8.71928 9.04237,8.62999 8.57028,8.35216 8.24655,7.96677 7.87427,7.52357 7.75,7.00017 7.75,6.625 7.75,6.24983 7.87427,5.72643 8.24655,5.28323 Z"
         fill="#ffffff"
         id="path974" /></g></g></svg>
