<?xml version="1.0" encoding="UTF-8" standalone="no"?>
<!-- Created with Inkscape (http://www.inkscape.org/) -->

<svg
   width="200"
   height="200"
   viewBox="0 0 52.916666 52.916666"
   version="1.1"
   id="svg1"
   inkscape:version="1.3 (0e150ed6c4, 2023-07-21)"
   sodipodi:docname="light.svg"
   xml:space="preserve"
   xmlns:inkscape="http://www.inkscape.org/namespaces/inkscape"
   xmlns:sodipodi="http://sodipodi.sourceforge.net/DTD/sodipodi-0.dtd"
   xmlns="http://www.w3.org/2000/svg"
   xmlns:svg="http://www.w3.org/2000/svg"><sodipodi:namedview
     id="namedview1"
     pagecolor="#ffffff"
     bordercolor="#000000"
     borderopacity="0.29019608"
     inkscape:showpageshadow="2"
     inkscape:pageopacity="0.0"
     inkscape:pagecheckerboard="false"
     inkscape:deskcolor="#d1d1d1"
     inkscape:document-units="mm"
     inkscape:zoom="1.4716891"
     inkscape:cx="58.776"
     inkscape:cy="66.250405"
     inkscape:window-width="1920"
     inkscape:window-height="1048"
     inkscape:window-x="1920"
     inkscape:window-y="0"
     inkscape:window-maximized="1"
     inkscape:current-layer="svg1" /><defs
     id="defs1" /><g
     style="fill:#fbfbfb;stroke:none;fill-opacity:0.5"
     id="g9"
     transform="matrix(1.7329273,0,0,1.7329273,-1.2685035,-1.2373108)"><path
       d="m 20,24.75 h -8 c -0.69,0 -1.25,0.56 -1.25,1.25 v 2 c 0,0 0,0 0,0 0,0.345 0.14,0.658 0.366,0.885 l 2,2 c 0.226,0.226 0.538,0.365 0.883,0.365 0,0 10e-4,0 10e-4,0 h 4 c 0,0 0.001,0 0.002,0 0.345,0 0.657,-0.14 0.883,-0.365 l 2,-2 c 0.226,-0.226 0.365,-0.538 0.365,-0.883 0,-10e-4 0,-10e-4 0,-0.002 v 0 -2 C 21.249,25.31 20.69,24.751 20,24.75 Z m -1.25,2.732 -1.268,1.268 H 14.517 L 13.249,27.482 V 27.25 h 5.5 z m 8.375,-14.924 c 0.003,-0.098 0.005,-0.214 0.005,-0.329 0,-2.184 -0.654,-4.216 -1.778,-5.91 l 0.025,0.04 C 23.458,3.107 20.049,0.912 16.114,0.715 L 16.087,0.714 H 16.016 C 12.082,0.879 8.678,3.006 6.742,6.137 L 6.714,6.186 c -1.17,1.687 -1.869,3.777 -1.869,6.031 0,0.012 0,0.025 0,0.037 v -0.002 c 0.184,2.294 0.923,4.383 2.081,6.176 L 6.894,18.376 c 0.322,0.555 0.664,1.102 1.006,1.646 0.671,0.991 1.314,2.13 1.862,3.322 l 0.062,0.151 c 0.194,0.455 0.637,0.768 1.153,0.768 0,0 10e-4,0 10e-4,0 v 0 c 0.173,0 0.338,-0.035 0.489,-0.099 l -0.008,0.003 c 0.455,-0.194 0.768,-0.638 0.768,-1.155 0,-0.174 -0.036,-0.34 -0.1,-0.49 L 12.13,22.53 C 11.461,21.049 10.756,19.791 9.957,18.601 l 0.06,0.095 C 9.69,18.173 9.363,17.652 9.055,17.121 8.116,15.724 7.498,14.038 7.345,12.22 L 7.342,12.182 C 7.361,10.447 7.907,8.844 8.827,7.52 L 8.809,7.547 c 1.512,-2.491 4.147,-4.17 7.185,-4.332 l 0.022,-10e-4 h 0.052 c 3.071,0.212 5.697,1.934 7.162,4.423 l 0.023,0.042 c 0.864,1.293 1.378,2.883 1.378,4.593 0,0.053 0,0.107 -0.002,0.16 v -0.008 c -0.22,1.839 -0.854,3.496 -1.807,4.922 l 0.026,-0.041 c -0.287,0.487 -0.588,0.968 -0.889,1.446 -0.716,1.066 -1.414,2.298 -2.02,3.581 l -0.074,0.175 c -0.067,0.148 -0.106,0.321 -0.106,0.503 0,0.69 0.56,1.25 1.25,1.25 0.512,0 0.952,-0.308 1.146,-0.749 l 0.003,-0.008 c 0.625,-1.33 1.264,-2.452 1.978,-3.52 l -0.06,0.096 c 0.313,-0.498 0.625,-0.998 0.924,-1.502 1.131,-1.708 1.891,-3.756 2.12,-5.961 z M 15.139,5.687 C 14.94,5.249 14.506,4.95 14.003,4.95 c -0.188,0 -0.365,0.041 -0.525,0.116 L 13.486,5.063 C 11.023,6.478 9.271,8.892 8.775,11.738 l -0.008,0.057 c -0.011,0.061 -0.017,0.132 -0.017,0.204 0,0.617 0.447,1.129 1.035,1.231 l 0.007,10e-4 c 0.063,0.011 0.135,0.018 0.209,0.018 v 0 c 0.615,-0.001 1.126,-0.446 1.23,-1.031 l 10e-4,-0.008 c 0.366,-2.067 1.575,-3.797 3.252,-4.852 l 0.03,-0.017 c 0.437,-0.2 0.735,-0.634 0.735,-1.138 0,-0.187 -0.041,-0.364 -0.115,-0.523 l 0.003,0.008 z M 1.441,3.118 l 4,2 c 0.16,0.079 0.348,0.126 0.546,0.126 0.69,0 1.25,-0.56 1.25,-1.25 0,-0.482 -0.273,-0.9 -0.672,-1.109 l -0.007,-0.003 -4,-2 C 2.398,0.803 2.21,0.756 2.012,0.756 c -0.69,0 -1.25,0.56 -1.25,1.25 0,0.482 0.273,0.9 0.672,1.109 z M 26,5.25 c 0.001,0 0.001,0 0.002,0 0.203,0 0.395,-0.049 0.564,-0.135 l -0.007,0.003 4,-2 c 0.407,-0.212 0.679,-0.63 0.679,-1.112 0,-0.69 -0.56,-1.25 -1.25,-1.25 -0.199,0 -0.387,0.046 -0.554,0.129 l 0.007,-0.003 -4,2 c -0.413,0.21 -0.69,0.631 -0.69,1.118 0,0.69 0.559,1.25 1.249,1.25 z m 4.559,15.633 -4,-2 C 26.396,18.8 26.204,18.751 26,18.751 c -0.69,0 -1.249,0.559 -1.249,1.249 0,0.486 0.278,0.908 0.683,1.114 l 0.007,0.003 4,2 c 0.163,0.083 0.355,0.132 0.559,0.132 0.69,0 1.249,-0.559 1.249,-1.249 0,-0.486 -0.278,-0.908 -0.683,-1.114 z M 5.561,18.867 1.648,20.697 C 1.22,20.902 0.93,21.331 0.93,21.828 c 0,0.691 0.56,1.25 1.25,1.25 0.191,0 0.372,-0.043 0.534,-0.119 l -0.008,0.003 3.913,-1.83 c 0.428,-0.205 0.718,-0.634 0.718,-1.131 0,-0.691 -0.56,-1.25 -1.25,-1.25 -0.191,0 -0.372,0.043 -0.534,0.119 z M 2,13.25 H 3 C 3.69,13.25 4.25,12.69 4.25,12 4.25,11.31 3.69,10.75 3,10.75 v 0 H 2 c -0.69,0 -1.25,0.56 -1.25,1.25 0,0.69 0.56,1.25 1.25,1.25 z m 28,-2.5 h -1 c -0.69,0 -1.25,0.56 -1.25,1.25 0,0.69 0.56,1.25 1.25,1.25 v 0 h 1 c 0.69,0 1.25,-0.56 1.25,-1.25 0,-0.69 -0.56,-1.25 -1.25,-1.25 z"
       id="path1"
       style="stroke:none;fill:#fbfbfb;fill-opacity:0.5" /></g></svg>
