<?xml version="1.0" encoding="UTF-8" standalone="no"?>
<!-- Created with Inkscape (http://www.inkscape.org/) -->

<svg
   width="200"
   height="200"
   viewBox="0 0 52.916666 52.916666"
   version="1.1"
   id="svg1"
   inkscape:version="1.3 (0e150ed6c4, 2023-07-21)"
   sodipodi:docname="mail.svg"
   xml:space="preserve"
   xmlns:inkscape="http://www.inkscape.org/namespaces/inkscape"
   xmlns:sodipodi="http://sodipodi.sourceforge.net/DTD/sodipodi-0.dtd"
   xmlns="http://www.w3.org/2000/svg"
   xmlns:svg="http://www.w3.org/2000/svg"
   xmlns:sketch="http://www.bohemiancoding.com/sketch/ns"><sodipodi:namedview
     id="namedview1"
     pagecolor="#ffffff"
     bordercolor="#000000"
     borderopacity="0.29019608"
     inkscape:showpageshadow="2"
     inkscape:pageopacity="0.0"
     inkscape:pagecheckerboard="false"
     inkscape:deskcolor="#d1d1d1"
     inkscape:document-units="mm"
     inkscape:zoom="1.0406414"
     inkscape:cx="301.25653"
     inkscape:cy="228.22464"
     inkscape:window-width="1920"
     inkscape:window-height="1048"
     inkscape:window-x="1920"
     inkscape:window-y="0"
     inkscape:window-maximized="1"
     inkscape:current-layer="svg1" /><defs
     id="defs1"><style
       id="style188">.cls-1{fill:none;stroke:#ffffff;stroke-miterlimit:10;stroke-width:1.91px;}</style></defs><g
     style="fill:#ffffff"
     id="g1"
     transform="matrix(1.6536458,0,0,1.6536458,5.3333335e-7,6.6145837)"><g
       id="SVGRepo_bgCarrier"
       stroke-width="0" /><g
       id="SVGRepo_tracerCarrier"
       stroke-linecap="round"
       stroke-linejoin="round" /><g
       id="SVGRepo_iconCarrier"
       style="opacity:0.5"><title
         id="title1102">mail</title><desc
         id="desc1104">Created with Sketch Beta.</desc><defs
         id="defs1106" /><g
         id="Page-1"
         stroke="none"
         stroke-width="1"
         fill="none"
         fill-rule="evenodd"
         sketch:type="MSPage"><g
           id="Icon-Set"
           sketch:type="MSLayerGroup"
           transform="translate(-412,-259)"
           fill="#ffffff"><path
             d="m 442,279 c 0,0.203 -0.039,0.395 -0.095,0.578 L 433,270 l 9,-7 z m -26.444,1.946 9.024,-9.616 3.42,2.585 3.272,-2.601 9.172,9.632 c -0.143,0.033 -24.745,0.033 -24.888,0 z M 414,279 v -16 l 9,7 -8.905,9.578 C 414.039,279.395 414,279.203 414,279 Z m 27,-18 -13,10 -13,-10 z m -1,-2 h -24 c -2.209,0 -4,1.791 -4,4 v 16 c 0,2.209 1.791,4 4,4 h 24 c 2.209,0 4,-1.791 4,-4 v -16 c 0,-2.209 -1.791,-4 -4,-4 z"
             id="mail"
             sketch:type="MSShapeGroup" /></g></g></g></g></svg>
