<?xml version="1.0" encoding="UTF-8" standalone="no"?>
<!-- Created with Inkscape (http://www.inkscape.org/) -->

<svg
   width="200"
   height="200"
   viewBox="0 0 52.916666 52.916666"
   version="1.1"
   id="svg1"
   inkscape:version="1.3 (0e150ed6c4, 2023-07-21)"
   sodipodi:docname="pay.svg"
   xml:space="preserve"
   xmlns:inkscape="http://www.inkscape.org/namespaces/inkscape"
   xmlns:sodipodi="http://sodipodi.sourceforge.net/DTD/sodipodi-0.dtd"
   xmlns="http://www.w3.org/2000/svg"
   xmlns:svg="http://www.w3.org/2000/svg"><sodipodi:namedview
     id="namedview1"
     pagecolor="#ffffff"
     bordercolor="#000000"
     borderopacity="0.29019608"
     inkscape:showpageshadow="2"
     inkscape:pageopacity="0.0"
     inkscape:pagecheckerboard="false"
     inkscape:deskcolor="#d1d1d1"
     inkscape:document-units="mm"
     inkscape:zoom="1.0406414"
     inkscape:cx="301.25653"
     inkscape:cy="228.22464"
     inkscape:window-width="1920"
     inkscape:window-height="1048"
     inkscape:window-x="1920"
     inkscape:window-y="0"
     inkscape:window-maximized="1"
     inkscape:current-layer="svg1" /><defs
     id="defs1"><style
       id="style188">.cls-1{fill:none;stroke:#ffffff;stroke-miterlimit:10;stroke-width:1.91px;}</style></defs><g
     style="fill:#ffffff"
     id="g1"
     transform="matrix(0.06033827,0,0,0.06033827,-4.435766,-4.4565827)"><g
       id="SVGRepo_bgCarrier"
       stroke-width="0" /><g
       id="SVGRepo_tracerCarrier"
       stroke-linecap="round"
       stroke-linejoin="round" /><g
       id="SVGRepo_iconCarrier"
       style="opacity:0.5"><path
         d="m 865.01,599.07 c -30.39,-16.39 -67.2,-14.82 -96.07,4.18 l -194.73,128 h -38.49 c 8.11,-16.83 13.04,-35.45 13.04,-55.34 V 621.32 H 292.57 V 548.39 H 109.72 v 402.47 h 182.86 v -36.57 h 339.9 L 871.27,760.52 c 26.95,-17.36 43.04,-46.84 43.04,-78.88 a 93.778,93.778 0 0 0 -49.3,-82.57 z M 219.43,877.71 H 182.86 V 621.53 h 36.57 z M 831.65,699.04 610.97,841.14 H 292.57 V 694.46 h 179.85 c -7.64,21.39 -28.12,36.75 -52.11,36.75 h -54.2 v 0.04 h -0.71 v 73.14 H 596.1 L 809.12,664.35 c 9.34,-6.11 17.89,-2.64 21.18,-0.91 3.27,1.77 10.86,7.07 10.86,18.2 a 20.652,20.652 0 0 1 -9.51,17.4 z M 378.87,502.62 C 358.42,466.92 347.62,426.14 347.62,384.71 347.62,253.64 454.22,147 585.28,147 c 131.04,0 237.64,106.64 237.64,237.71 0,41.46 -10.8,82.25 -31.27,117.95 l 63.46,36.36 c 26.79,-46.75 40.95,-100.11 40.95,-154.3 0,-171.41 -139.41,-310.86 -310.79,-310.86 -171.38,0 -310.8,139.45 -310.8,310.86 0,54.16 14.14,107.5 40.93,154.27 z"
         fill="#ffffff"
         id="path1237" /><path
         d="m 668.79,244.79 -83.51,83.53 -83.54,-83.53 -38.79,38.78 64.67,64.66 h -54.67 v 54.86 h 84.9 v 35.45 h -82.38 v 54.85 h 82.38 v 79.59 h 54.85 v -79.59 h 82.36 V 438.54 H 612.7 v -35.45 h 84.88 v -54.86 h -54.65 l 64.65,-64.66 z"
         fill="#ffffff"
         id="path1239" /></g></g></svg>
