<?xml version="1.0" encoding="UTF-8" standalone="no"?>
<!-- Created with Inkscape (http://www.inkscape.org/) -->

<svg
   width="200"
   height="200"
   viewBox="0 0 52.916666 52.916666"
   version="1.1"
   id="svg1"
   inkscape:version="1.3 (0e150ed6c4, 2023-07-21)"
   sodipodi:docname="people.svg"
   xml:space="preserve"
   xmlns:inkscape="http://www.inkscape.org/namespaces/inkscape"
   xmlns:sodipodi="http://sodipodi.sourceforge.net/DTD/sodipodi-0.dtd"
   xmlns="http://www.w3.org/2000/svg"
   xmlns:svg="http://www.w3.org/2000/svg"><sodipodi:namedview
     id="namedview1"
     pagecolor="#ffffff"
     bordercolor="#000000"
     borderopacity="0.29019608"
     inkscape:showpageshadow="2"
     inkscape:pageopacity="0.0"
     inkscape:pagecheckerboard="false"
     inkscape:deskcolor="#d1d1d1"
     inkscape:document-units="mm"
     inkscape:zoom="1.0406414"
     inkscape:cx="301.25653"
     inkscape:cy="228.22464"
     inkscape:window-width="1920"
     inkscape:window-height="1048"
     inkscape:window-x="1920"
     inkscape:window-y="0"
     inkscape:window-maximized="1"
     inkscape:current-layer="svg1" /><defs
     id="defs1"><style
       id="style188">.cls-1{fill:none;stroke:#ffffff;stroke-miterlimit:10;stroke-width:1.91px;}</style><style
       id="style188-5">.cls-1{fill:none;stroke:#ffffff;stroke-miterlimit:10;stroke-width:1.91px;}</style></defs><g
     style="fill:none"
     id="g1"
     transform="matrix(2.3496067,0,0,2.3496067,-2.9370087,-1.7369471)"><g
       id="SVGRepo_bgCarrier"
       stroke-width="0" /><g
       id="SVGRepo_tracerCarrier"
       stroke-linecap="round"
       stroke-linejoin="round" /><g
       id="SVGRepo_iconCarrier"
       style="opacity:0.5"><path
         fill-rule="evenodd"
         clip-rule="evenodd"
         d="M 14.9238,7.281 C 14.9227,8.5394 13.9018,9.55874 12.6435,9.558 11.3851,9.55726 10.3654,8.53673 10.3658,7.27833 10.3662,6.01994 11.3864,5 12.6448,5 c 0.6047,2.7e-4 1.1845,0.24073 1.6119,0.6685 0.4274,0.42777 0.6673,1.00781 0.6671,1.6125 z"
         stroke="#ffffff"
         stroke-width="1.5"
         stroke-linecap="round"
         stroke-linejoin="round"
         id="path4" /><path
         fill-rule="evenodd"
         clip-rule="evenodd"
         d="m 14.9968,12.919 h -4.7 c -1.64209,0.0516 -2.94652,1.3976 -2.94652,3.0405 0,1.6429 1.30443,2.9889 2.94652,3.0405 h 4.7 c 1.642,-0.0516 2.9464,-1.3976 2.9464,-3.0405 0,-1.6429 -1.3044,-2.9889 -2.9464,-3.0405 z"
         stroke="#ffffff"
         stroke-width="1.5"
         stroke-linecap="round"
         stroke-linejoin="round"
         id="path6" /><path
         fill-rule="evenodd"
         clip-rule="evenodd"
         d="m 20.6878,9.02403 c -6e-4,0.9625 -0.7812,1.74237 -1.7437,1.74197 -0.9625,-3e-4 -1.7425,-0.7808 -1.7423,-1.7433 2e-4,-0.96251 0.7805,-1.74267 1.743,-1.74267 0.4624,0 0.9059,0.18377 1.2328,0.51087 0.3269,0.32709 0.5104,0.77068 0.5102,1.23313 z"
         stroke="#ffffff"
         stroke-width="1.5"
         stroke-linecap="round"
         stroke-linejoin="round"
         id="path8" /><path
         fill-rule="evenodd"
         clip-rule="evenodd"
         d="m 4.3338,9.02401 c 0,0.96263 0.78037,1.74299 1.743,1.74299 0.96263,0 1.743,-0.78036 1.743,-1.74299 0,-0.96264 -0.78037,-1.743 -1.743,-1.743 -0.96263,0 -1.743,0.78036 -1.743,1.743 z"
         stroke="#ffffff"
         stroke-width="1.5"
         stroke-linecap="round"
         stroke-linejoin="round"
         id="path10" /><path
         d="m 19.4368,12.839 c -0.4142,0 -0.75,0.3358 -0.75,0.75 0,0.4142 0.3358,0.75 0.75,0.75 z m 1.307,0.75 0.0155,-0.7498 c -0.0052,-2e-4 -0.0103,-2e-4 -0.0155,-2e-4 z m 0,4.651 v 0.75 c 0.0052,0 0.0103,-10e-5 0.0155,-2e-4 z m -1.307,-0.75 c -0.4142,0 -0.75,0.3358 -0.75,0.75 0,0.4142 0.3358,0.75 0.75,0.75 z M 5.58477,14.339 c 0.41422,0 0.75,-0.3358 0.75,-0.75 0,-0.4142 -0.33578,-0.75 -0.75,-0.75 z m -1.307,-0.75 v -0.75 c -0.00518,0 -0.01036,0 -0.01555,2e-4 z m 0,4.651 -0.01555,0.7498 c 0.00519,10e-5 0.01037,2e-4 0.01555,2e-4 z m 1.307,0.75 c 0.41422,0 0.75,-0.3358 0.75,-0.75 0,-0.4142 -0.33578,-0.75 -0.75,-0.75 z M 19.4368,14.339 h 1.307 v -1.5 h -1.307 z m 1.2914,-2e-4 c 0.8575,0.0178 1.5433,0.718 1.5433,1.5757 h 1.5 c 0,-1.674 -1.3386,-3.0406 -3.0122,-3.0753 z m 1.5433,1.5757 c 0,0.8577 -0.6858,1.5579 -1.5433,1.5757 l 0.0311,1.4996 c 1.6736,-0.0347 3.0122,-1.4013 3.0122,-3.0753 z M 20.7438,17.49 h -1.307 v 1.5 h 1.307 z M 5.58477,12.839 h -1.307 v 1.5 h 1.307 z m -1.32255,2e-4 C 2.58861,12.8739 1.25,14.2405 1.25,15.9145 h 1.5 c 0,-0.8577 0.68584,-1.5579 1.54332,-1.5757 z M 1.25,15.9145 c 0,1.674 1.33861,3.0406 3.01222,3.0753 l 0.0311,-1.4996 C 3.43584,17.4724 2.75,16.7722 2.75,15.9145 Z M 4.27777,18.99 h 1.307 v -1.5 h -1.307 z"
         fill="#ffffff"
         id="path12" /></g></g></svg>
