<?xml version="1.0" encoding="UTF-8" standalone="no"?>
<!-- Created with Inkscape (http://www.inkscape.org/) -->

<svg
   width="200"
   height="200"
   viewBox="0 0 52.916666 52.916666"
   version="1.1"
   id="svg1"
   inkscape:version="1.3 (0e150ed6c4, 2023-07-21)"
   sodipodi:docname="pulse.svg"
   xml:space="preserve"
   xmlns:inkscape="http://www.inkscape.org/namespaces/inkscape"
   xmlns:sodipodi="http://sodipodi.sourceforge.net/DTD/sodipodi-0.dtd"
   xmlns="http://www.w3.org/2000/svg"
   xmlns:svg="http://www.w3.org/2000/svg"><sodipodi:namedview
     id="namedview1"
     pagecolor="#ffffff"
     bordercolor="#000000"
     borderopacity="0.29019608"
     inkscape:showpageshadow="2"
     inkscape:pageopacity="0.0"
     inkscape:pagecheckerboard="false"
     inkscape:deskcolor="#d1d1d1"
     inkscape:document-units="mm"
     inkscape:zoom="1.0406414"
     inkscape:cx="301.25653"
     inkscape:cy="228.22464"
     inkscape:window-width="1920"
     inkscape:window-height="1048"
     inkscape:window-x="1920"
     inkscape:window-y="0"
     inkscape:window-maximized="1"
     inkscape:current-layer="svg1" /><defs
     id="defs1"><style
       id="style188">.cls-1{fill:none;stroke:#ffffff;stroke-miterlimit:10;stroke-width:1.91px;}</style><style
       id="style188-5">.cls-1{fill:none;stroke:#ffffff;stroke-miterlimit:10;stroke-width:1.91px;}</style></defs><g
     style="fill:#ffffff"
     id="g1"
     transform="matrix(2.4053102,0,0,2.4053102,-2.4053099,-3.2279521)"><g
       id="SVGRepo_bgCarrier"
       stroke-width="0" /><g
       id="SVGRepo_tracerCarrier"
       stroke-linecap="round"
       stroke-linejoin="round" /><g
       id="SVGRepo_iconCarrier"
       style="opacity:0.5"><path
         d="m 23,12 a 1,1 0 0 1 -1,1 h -5 a 1,1 0 0 1 -0.832,-0.445 l -0.866,-1.3 -2.354,7.06 A 1,1 0 0 1 12,19 H 11.962 A 1,1 0 0 1 11.03,18.243 L 8.862,9.574 7.948,12.316 A 1,1 0 0 1 7,13 H 2 A 1,1 0 0 1 2,11 H 6.279 L 8.052,5.684 A 1,1 0 0 1 9.97,5.758 l 2.168,8.668 1.914,-5.742 a 1,1 0 0 1 1.78,-0.239 L 17.535,11 H 22 a 1,1 0 0 1 1,1 z"
         id="path1497" /></g></g></svg>
