<?xml version="1.0" encoding="UTF-8" standalone="no"?>
<!-- Created with Inkscape (http://www.inkscape.org/) -->

<svg
   width="200"
   height="200"
   viewBox="0 0 52.916666 52.916666"
   version="1.1"
   id="svg1"
   inkscape:version="1.3 (0e150ed6c4, 2023-07-21)"
   sodipodi:docname="reload.svg"
   xml:space="preserve"
   xmlns:inkscape="http://www.inkscape.org/namespaces/inkscape"
   xmlns:sodipodi="http://sodipodi.sourceforge.net/DTD/sodipodi-0.dtd"
   xmlns="http://www.w3.org/2000/svg"
   xmlns:svg="http://www.w3.org/2000/svg"><sodipodi:namedview
     id="namedview1"
     pagecolor="#ffffff"
     bordercolor="#000000"
     borderopacity="0.29019608"
     inkscape:showpageshadow="2"
     inkscape:pageopacity="0.0"
     inkscape:pagecheckerboard="false"
     inkscape:deskcolor="#d1d1d1"
     inkscape:document-units="mm"
     inkscape:zoom="1.0406414"
     inkscape:cx="301.25653"
     inkscape:cy="228.22464"
     inkscape:window-width="1920"
     inkscape:window-height="1048"
     inkscape:window-x="1920"
     inkscape:window-y="0"
     inkscape:window-maximized="1"
     inkscape:current-layer="svg1" /><defs
     id="defs1"><style
       id="style188">.cls-1{fill:none;stroke:#ffffff;stroke-miterlimit:10;stroke-width:1.91px;}</style><style
       id="style188-5">.cls-1{fill:none;stroke:#ffffff;stroke-miterlimit:10;stroke-width:1.91px;}</style></defs><g
     style="fill:#ffffff"
     id="g1"
     transform="matrix(0.10335286,0,0,0.10335286,1.1733333e-6,5.2849763e-5)"><g
       id="SVGRepo_bgCarrier"
       stroke-width="0" /><g
       id="SVGRepo_tracerCarrier"
       stroke-linecap="round"
       stroke-linejoin="round" /><g
       id="SVGRepo_iconCarrier"
       style="opacity:0.5"> <style
   type="text/css"
   id="style1625"> .st0{fill:#ffffff;} </style> <g
   id="g1635"> <path
   class="st0"
   d="m 268.149,12.153 c -7.179,0 -14.309,0.309 -21.374,0.926 l 4.905,56.561 h 0.016 c 5.392,-0.462 10.882,-0.698 16.453,-0.698 51.745,0.016 98.326,20.886 132.272,54.782 33.896,33.954 54.783,80.534 54.783,132.28 0,51.745 -20.887,98.326 -54.783,132.271 -33.945,33.896 -80.526,54.767 -132.272,54.783 C 216.403,443.042 169.823,422.172 135.877,388.275 117.638,370.011 103.345,347.996 93.86,323.576 L 124.962,319.2 44.729,201.952 26.799,256.004 h -2.485 c 0,2.192 0.26,4.32 0.325,6.505 L 0,336.765 36.414,331.649 C 68.264,429.26 159.899,499.838 268.149,499.846 402.84,499.839 511.984,390.688 512,256.004 511.984,121.313 402.84,12.161 268.149,12.153 Z"
   id="path1627" /> <path
   class="st0"
   d="m 113.041,151.425 c 3.054,-4.532 6.335,-8.941 9.794,-13.237 L 78.691,102.481 c -4.466,5.522 -8.722,11.23 -12.717,17.167 l 47.052,31.777 z"
   id="path1629" /> <path
   class="st0"
   d="m 193.762,84.314 c 9.079,-3.938 18.532,-7.17 28.292,-9.648 L 208.12,19.607 c -12.766,3.232 -25.11,7.472 -36.966,12.62 l 22.609,52.078 v 0.009 z"
   id="path1631" /> <path
   class="st0"
   d="M 167.353,98.412 136.689,50.605 c -10.996,7.041 -21.374,14.95 -31.054,23.615 l 37.86,42.318 c 7.438,-6.651 15.413,-12.726 23.858,-18.126 z"
   id="path1633" /> </g> </g></g></svg>
