<?xml version="1.0" encoding="UTF-8" standalone="no"?>
<!-- Created with Inkscape (http://www.inkscape.org/) -->

<svg
   width="200"
   height="200"
   viewBox="0 0 52.916666 52.916666"
   version="1.1"
   id="svg1"
   inkscape:version="1.3 (0e150ed6c4, 2023-07-21)"
   sodipodi:docname="save.svg"
   xml:space="preserve"
   xmlns:inkscape="http://www.inkscape.org/namespaces/inkscape"
   xmlns:sodipodi="http://sodipodi.sourceforge.net/DTD/sodipodi-0.dtd"
   xmlns="http://www.w3.org/2000/svg"
   xmlns:svg="http://www.w3.org/2000/svg"><sodipodi:namedview
     id="namedview1"
     pagecolor="#ffffff"
     bordercolor="#000000"
     borderopacity="0.29019608"
     inkscape:showpageshadow="2"
     inkscape:pageopacity="0.0"
     inkscape:pagecheckerboard="false"
     inkscape:deskcolor="#d1d1d1"
     inkscape:document-units="mm"
     inkscape:zoom="1.0406414"
     inkscape:cx="301.25653"
     inkscape:cy="228.22464"
     inkscape:window-width="1920"
     inkscape:window-height="1048"
     inkscape:window-x="1920"
     inkscape:window-y="0"
     inkscape:window-maximized="1"
     inkscape:current-layer="svg1" /><defs
     id="defs1"><style
       id="style188">.cls-1{fill:none;stroke:#ffffff;stroke-miterlimit:10;stroke-width:1.91px;}</style><style
       id="style188-5">.cls-1{fill:none;stroke:#ffffff;stroke-miterlimit:10;stroke-width:1.91px;}</style></defs><g
     style="fill:none"
     id="g1"
     transform="matrix(2.9398148,0,0,2.9398148,-8.8194443,-8.8194443)"><g
       id="SVGRepo_bgCarrier"
       stroke-width="0"
       style="opacity:0.5" /><g
       id="SVGRepo_tracerCarrier"
       stroke-linecap="round"
       stroke-linejoin="round"
       style="opacity:0.5" /><g
       id="SVGRepo_iconCarrier"
       style="opacity:0.5"><path
         stroke="#ffffff"
         stroke-linecap="round"
         stroke-linejoin="round"
         stroke-width="2"
         d="M 8,4 H 6 A 2,2 0 0 0 4,6 v 12 a 2,2 0 0 0 2,2 h 12 a 2,2 0 0 0 2,-2 V 7.828 A 2,2 0 0 0 19.414,6.414 L 17.586,4.586 A 2,2 0 0 0 16.172,4 H 15 M 8,4 v 4 a 1,1 0 0 0 1,1 h 5 A 1,1 0 0 0 15,8 V 4 M 8,4 h 7 M 7,17 v -3 a 1,1 0 0 1 1,-1 h 8 a 1,1 0 0 1 1,1 v 3"
         id="path1762" /></g></g></svg>
