<?xml version="1.0" encoding="UTF-8" standalone="no"?>
<!-- Created with Inkscape (http://www.inkscape.org/) -->

<svg
   width="200"
   height="200"
   viewBox="0 0 52.916666 52.916666"
   version="1.1"
   id="svg1"
   inkscape:version="1.3 (0e150ed6c4, 2023-07-21)"
   sodipodi:docname="zoomIn.svg"
   xml:space="preserve"
   xmlns:inkscape="http://www.inkscape.org/namespaces/inkscape"
   xmlns:sodipodi="http://sodipodi.sourceforge.net/DTD/sodipodi-0.dtd"
   xmlns="http://www.w3.org/2000/svg"
   xmlns:svg="http://www.w3.org/2000/svg"><sodipodi:namedview
     id="namedview1"
     pagecolor="#ffffff"
     bordercolor="#000000"
     borderopacity="0.29019608"
     inkscape:showpageshadow="2"
     inkscape:pageopacity="0.0"
     inkscape:pagecheckerboard="false"
     inkscape:deskcolor="#d1d1d1"
     inkscape:document-units="mm"
     inkscape:zoom="1.0406414"
     inkscape:cx="301.25653"
     inkscape:cy="228.22464"
     inkscape:window-width="1920"
     inkscape:window-height="1048"
     inkscape:window-x="1920"
     inkscape:window-y="0"
     inkscape:window-maximized="1"
     inkscape:current-layer="svg1" /><defs
     id="defs1"><style
       id="style188">.cls-1{fill:none;stroke:#ffffff;stroke-miterlimit:10;stroke-width:1.91px;}</style><style
       id="style188-5">.cls-1{fill:none;stroke:#ffffff;stroke-miterlimit:10;stroke-width:1.91px;}</style></defs><g
     style="fill:none"
     id="g1"
     transform="matrix(2.9398189,0,0,2.9398189,-8.8194567,-8.8194567)"><g
       id="SVGRepo_bgCarrier"
       stroke-width="0" /><g
       id="SVGRepo_tracerCarrier"
       stroke-linecap="round"
       stroke-linejoin="round" /><g
       id="SVGRepo_iconCarrier"><path
         fill-rule="evenodd"
         clip-rule="evenodd"
         d="m 11,5 c -3.31371,0 -6,2.68629 -6,6 0,3.3137 2.68629,6 6,6 3.3137,0 6,-2.6863 6,-6 0,-3.31371 -2.6863,-6 -6,-6 z m -8,6 c 0,-4.41828 3.58172,-8 8,-8 4.4183,0 8,3.58172 8,8 0,1.8487 -0.6271,3.551 -1.6801,4.9056 l 3.3872,3.3873 c 0.3905,0.3905 0.3905,1.0237 0,1.4142 -0.3905,0.3905 -1.0237,0.3905 -1.4142,0 L 15.9056,17.3199 C 14.551,18.3729 12.8487,19 11,19 6.58172,19 3,15.4183 3,11 Z m 8,-4 c 0.5523,0 1,0.44772 1,1 v 2 h 2 c 0.5523,0 1,0.4477 1,1 0,0.5523 -0.4477,1 -1,1 h -2 v 2 c 0,0.5523 -0.4477,1 -1,1 -0.5523,0 -1,-0.4477 -1,-1 V 12 H 8 C 7.44772,12 7,11.5523 7,11 7,10.4477 7.44772,10 8,10 h 2 V 8 c 0,-0.55228 0.4477,-1 1,-1 z"
         fill="#ffffff"
         id="path1890"
         style="opacity:0.5" /></g></g></svg>
