<?xml version="1.0" encoding="UTF-8" standalone="no"?>
<svg
   width="677.249mm"
   height="77.2487mm"
   viewBox="0 0 1920 219"
   version="1.1"
   id="svg3"
   sodipodi:docname="wave_bot.svg"
   inkscape:version="1.1.2 (0a00cf5339, 2022-02-04)"
   xmlns:inkscape="http://www.inkscape.org/namespaces/inkscape"
   xmlns:sodipodi="http://sodipodi.sourceforge.net/DTD/sodipodi-0.dtd"
   xmlns="http://www.w3.org/2000/svg"
   xmlns:svg="http://www.w3.org/2000/svg">
  <defs
     id="defs7">
    <filter
       style="color-interpolation-filters:sRGB;"
       inkscape:label="Drop Shadow"
       id="filter1670"
       x="-0.00125"
       y="-0.037"
       width="1.0025"
       height="1.049">
      <feFlood
         flood-opacity="1"
         flood-color="rgb(0,0,0)"
         result="flood"
         id="feFlood1660" />
      <feComposite
         in="flood"
         in2="SourceGraphic"
         operator="in"
         result="composite1"
         id="feComposite1662" />
      <feGaussianBlur
         in="composite1"
         stdDeviation="1"
         result="blur"
         id="feGaussianBlur1664" />
      <feOffset
         dx="0"
         dy="-5"
         result="offset"
         id="feOffset1666" />
      <feComposite
         in="SourceGraphic"
         in2="offset"
         operator="over"
         result="composite2"
         id="feComposite1668" />
    </filter>
  </defs>
  <sodipodi:namedview
     id="namedview5"
     pagecolor="#ffffff"
     bordercolor="#666666"
     borderopacity="1.0"
     inkscape:pageshadow="2"
     inkscape:pageopacity="0.0"
     inkscape:pagecheckerboard="0"
     inkscape:document-units="mm"
     showgrid="false"
     inkscape:zoom="0.4621669"
     inkscape:cx="1246.303"
     inkscape:cy="148.21485"
     inkscape:window-width="1920"
     inkscape:window-height="1080"
     inkscape:window-x="1920"
     inkscape:window-y="0"
     inkscape:window-maximized="1"
     inkscape:current-layer="svg3" />
  <path
     id="Selection"
     fill="none"
     stroke="black"
     stroke-width="1"
     d="M 0.00,19.00            C 0.00,19.00 13.00,20.00 13.00,20.00              28.07,20.07 43.15,21.75 58.00,24.42              90.54,30.29 122.29,41.88 152.00,56.26              152.00,56.26 266.00,117.74 266.00,117.74              298.47,133.46 332.92,145.39 369.00,148.96              369.00,148.96 377.00,148.96 377.00,148.96              377.00,148.96 389.00,150.00 389.00,150.00              389.00,150.00 395.00,150.00 395.00,150.00              395.00,150.00 405.00,149.09 405.00,149.09              480.90,143.87 547.37,104.36 615.00,73.31              662.62,51.44 710.88,31.52 763.00,23.42              775.59,21.47 788.27,20.02 801.00,20.00              801.00,20.00 816.00,19.09 816.00,19.09              816.00,19.09 823.00,19.96 823.00,19.96              823.00,19.96 837.00,19.96 837.00,19.96              837.00,19.96 847.00,20.91 847.00,20.91              876.06,22.94 904.73,28.06 933.00,35.13              985.60,48.28 1036.42,66.17 1088.00,82.66              1149.84,102.42 1213.19,119.56 1278.00,125.83              1301.31,128.09 1324.56,128.27 1348.00,128.00              1348.00,128.00 1358.00,127.00 1358.00,127.00              1358.00,127.00 1366.00,127.00 1366.00,127.00              1366.00,127.00 1402.00,123.16 1402.00,123.16              1448.46,118.19 1507.18,105.75 1553.00,94.88              1553.00,94.88 1677.00,64.12 1677.00,64.12              1732.88,49.43 1795.02,33.66 1852.00,25.27              1852.00,25.27 1902.00,20.00 1902.00,20.00              1902.00,20.00 1920.00,19.00 1920.00,19.00              1920.00,19.00 1920.00,219.00 1920.00,219.00              1920.00,219.00 0.00,219.00 0.00,219.00              0.00,219.00 0.00,19.00 0.00,19.00 Z"
     style="fill:#008000;stroke:none;stroke-opacity:1;filter:url(#filter1670)" />
</svg>
