<?xml version="1.0" encoding="UTF-8" standalone="no"?>
<svg
   width="677.249mm"
   height="41.9753mm"
   viewBox="0 0 1920 119"
   version="1.1"
   id="svg3"
   sodipodi:docname="wave_top.svg"
   inkscape:version="1.1.2 (0a00cf5339, 2022-02-04)"
   xmlns:inkscape="http://www.inkscape.org/namespaces/inkscape"
   xmlns:sodipodi="http://sodipodi.sourceforge.net/DTD/sodipodi-0.dtd"
   xmlns="http://www.w3.org/2000/svg"
   xmlns:svg="http://www.w3.org/2000/svg">
  <defs
     id="defs7">
    <filter
       style="color-interpolation-filters:sRGB;"
       inkscape:label="Drop Shadow"
       id="filter870"
       x="-0.00125"
       y="-0.074"
       width="1.0025"
       height="1.098">
      <feFlood
         flood-opacity="1"
         flood-color="rgb(0,0,0)"
         result="flood"
         id="feFlood860" />
      <feComposite
         in="flood"
         in2="SourceGraphic"
         operator="in"
         result="composite1"
         id="feComposite862" />
      <feGaussianBlur
         in="composite1"
         stdDeviation="1"
         result="blur"
         id="feGaussianBlur864" />
      <feOffset
         dx="0"
         dy="-5"
         result="offset"
         id="feOffset866" />
      <feComposite
         in="SourceGraphic"
         in2="offset"
         operator="over"
         result="composite2"
         id="feComposite868" />
    </filter>
  </defs>
  <sodipodi:namedview
     id="namedview5"
     pagecolor="#ffffff"
     bordercolor="#666666"
     borderopacity="1.0"
     inkscape:pageshadow="2"
     inkscape:pageopacity="0.0"
     inkscape:pagecheckerboard="0"
     inkscape:document-units="mm"
     showgrid="false"
     inkscape:zoom="0.4621669"
     inkscape:cx="1267.9402"
     inkscape:cy="78.975798"
     inkscape:window-width="1920"
     inkscape:window-height="1080"
     inkscape:window-x="1920"
     inkscape:window-y="0"
     inkscape:window-maximized="1"
     inkscape:current-layer="svg3" />
  <path
     id="Selection"
     fill="none"
     stroke="black"
     stroke-width="1"
     d="M 0.00,19.00            C 0.00,19.00 18.00,20.00 18.00,20.00              61.66,20.07 105.54,26.81 148.00,36.88              201.97,49.68 254.30,67.71 309.00,77.58              328.00,81.00 353.80,83.97 373.00,84.00              373.00,84.00 393.00,85.00 393.00,85.00              393.00,85.00 403.00,84.04 403.00,84.04              403.00,84.04 416.00,84.04 416.00,84.04              416.00,84.04 426.00,83.09 426.00,83.09              447.90,81.56 469.39,78.32 491.00,74.42              491.00,74.42 661.00,36.21 661.00,36.21              695.30,28.96 731.04,23.48 766.00,21.00              766.00,21.00 774.00,21.00 774.00,21.00              774.00,21.00 786.00,20.00 786.00,20.00              786.00,20.00 802.00,20.00 802.00,20.00              802.00,20.00 816.00,19.09 816.00,19.09              816.00,19.09 828.00,20.00 828.00,20.00              828.00,20.00 847.00,20.00 847.00,20.00              847.00,20.00 867.00,21.00 867.00,21.00              867.00,21.00 877.00,21.91 877.00,21.91              877.00,21.91 952.00,29.72 952.00,29.72              952.00,29.72 1118.00,55.73 1118.00,55.73              1158.85,61.75 1199.83,67.26 1241.00,70.09              1241.00,70.09 1269.00,72.00 1269.00,72.00              1269.00,72.00 1285.00,73.04 1285.00,73.04              1285.00,73.04 1298.00,73.04 1298.00,73.04              1298.00,73.04 1310.00,74.00 1310.00,74.00              1310.00,74.00 1345.00,74.00 1345.00,74.00              1345.00,74.00 1361.00,73.00 1361.00,73.00              1361.00,73.00 1393.00,72.00 1393.00,72.00              1393.00,72.00 1419.00,70.09 1419.00,70.09              1419.00,70.09 1517.00,61.17 1517.00,61.17              1517.00,61.17 1758.00,31.84 1758.00,31.84              1806.52,26.64 1855.17,20.08 1904.00,20.00              1904.00,20.00 1920.00,19.00 1920.00,19.00              1920.00,19.00 1920.00,119.00 1920.00,119.00              1920.00,119.00 0.00,119.00 0.00,119.00              0.00,119.00 0.00,19.00 0.00,19.00 Z"
     style="fill:#008000;stroke:none;filter:url(#filter870)" />
</svg>
