<?xml version="1.0" encoding="UTF-8" standalone="no"?>
<!-- Uploaded to: SVG Repo, www.svgrepo.com, Transformed by: SVG Repo Mixer Tools -->

<svg
   width="800px"
   height="800px"
   viewBox="0 0 24 24"
   id="Layer_1"
   data-name="Layer 1"
   fill="#ffffff"
   version="1.1"
   sodipodi:docname="board.svg"
   inkscape:version="1.2.2 (b0a8486541, 2022-12-01)"
   xmlns:inkscape="http://www.inkscape.org/namespaces/inkscape"
   xmlns:sodipodi="http://sodipodi.sourceforge.net/DTD/sodipodi-0.dtd"
   xmlns="http://www.w3.org/2000/svg"
   xmlns:svg="http://www.w3.org/2000/svg">
  <defs
     id="defs210" />
  <sodipodi:namedview
     id="namedview208"
     pagecolor="#505050"
     bordercolor="#eeeeee"
     borderopacity="1"
     inkscape:showpageshadow="0"
     inkscape:pageopacity="0"
     inkscape:pagecheckerboard="0"
     inkscape:deskcolor="#505050"
     showgrid="false"
     inkscape:zoom="1.0975"
     inkscape:cx="332.57403"
     inkscape:cy="400"
     inkscape:window-width="1920"
     inkscape:window-height="1048"
     inkscape:window-x="1920"
     inkscape:window-y="0"
     inkscape:window-maximized="1"
     inkscape:current-layer="Layer_1" />
  <g
     id="SVGRepo_bgCarrier"
     stroke-width="0" />
  <g
     id="SVGRepo_tracerCarrier"
     stroke-linecap="round"
     stroke-linejoin="round" />
  <g
     id="SVGRepo_iconCarrier"
     style="opacity:0.5">
    <defs
       id="defs190">
      <style
         id="style188">.cls-1{fill:none;stroke:#ffffff;stroke-miterlimit:10;stroke-width:1.91px;}</style>
    </defs>
    <line
       class="cls-1"
       x1="17.73"
       y1="6.25"
       x2="10.09"
       y2="6.25"
       id="line192" />
    <line
       class="cls-1"
       x1="17.73"
       y1="10.07"
       x2="10.09"
       y2="10.07"
       id="line194" />
    <line
       class="cls-1"
       x1="17.73"
       y1="13.89"
       x2="10.09"
       y2="13.89"
       id="line196" />
    <line
       class="cls-1"
       x1="6.27"
       y1="6.25"
       x2="8.18"
       y2="6.25"
       id="line198" />
    <line
       class="cls-1"
       x1="6.27"
       y1="10.07"
       x2="8.18"
       y2="10.07"
       id="line200" />
    <line
       class="cls-1"
       x1="6.27"
       y1="13.89"
       x2="8.18"
       y2="13.89"
       id="line202" />
    <path
       class="cls-1"
       d="M1.5,5.3v9.54a3.82,3.82,0,0,0,3.82,3.82H7.23v2.86L13,18.66h5.73a3.82,3.82,0,0,0,3.82-3.82V5.3a3.82,3.82,0,0,0-3.82-3.82H5.32A3.82,3.82,0,0,0,1.5,5.3Z"
       id="path204" />
  </g>
</svg>
