<?xml version="1.0" encoding="UTF-8" standalone="no"?>
<!-- Uploaded to: SVG Repo, www.svgrepo.com, Transformed by: SVG Repo Mixer Tools -->

<svg
   width="800px"
   height="800px"
   viewBox="0 -4 32 32"
   version="1.1"
   fill="#ffffff"
   id="svg1112"
   sodipodi:docname="mail.svg"
   inkscape:version="1.2.2 (b0a8486541, 2022-12-01)"
   xmlns:inkscape="http://www.inkscape.org/namespaces/inkscape"
   xmlns:sodipodi="http://sodipodi.sourceforge.net/DTD/sodipodi-0.dtd"
   xmlns="http://www.w3.org/2000/svg"
   xmlns:svg="http://www.w3.org/2000/svg"
   xmlns:sketch="http://www.bohemiancoding.com/sketch/ns">
  <defs
     id="defs1116" />
  <sodipodi:namedview
     id="namedview1114"
     pagecolor="#505050"
     bordercolor="#eeeeee"
     borderopacity="1"
     inkscape:showpageshadow="0"
     inkscape:pageopacity="0"
     inkscape:pagecheckerboard="0"
     inkscape:deskcolor="#505050"
     showgrid="false"
     inkscape:zoom="1.0975"
     inkscape:cx="330.29613"
     inkscape:cy="400"
     inkscape:window-width="1920"
     inkscape:window-height="1048"
     inkscape:window-x="1920"
     inkscape:window-y="0"
     inkscape:window-maximized="1"
     inkscape:current-layer="svg1112" />
  <g
     id="SVGRepo_bgCarrier"
     stroke-width="0" />
  <g
     id="SVGRepo_tracerCarrier"
     stroke-linecap="round"
     stroke-linejoin="round" />
  <g
     id="SVGRepo_iconCarrier"
     style="opacity:0.5">
    <title
       id="title1102">mail</title>
    <desc
       id="desc1104">Created with Sketch Beta.</desc>
    <defs
       id="defs1106" />
    <g
       id="Page-1"
       stroke="none"
       stroke-width="1"
       fill="none"
       fill-rule="evenodd"
       sketch:type="MSPage">
      <g
         id="Icon-Set"
         sketch:type="MSLayerGroup"
         transform="translate(-412.000000, -259.000000)"
         fill="#ffffff">
        <path
           d="M442,279 C442,279.203 441.961,279.395 441.905,279.578 L433,270 L442,263 L442,279 L442,279 Z M415.556,280.946 L424.58,271.33 L428,273.915 L431.272,271.314 L440.444,280.946 C440.301,280.979 415.699,280.979 415.556,280.946 L415.556,280.946 Z M414,279 L414,263 L423,270 L414.095,279.578 C414.039,279.395 414,279.203 414,279 L414,279 Z M441,261 L428,271 L415,261 L441,261 L441,261 Z M440,259 L416,259 C413.791,259 412,260.791 412,263 L412,279 C412,281.209 413.791,283 416,283 L440,283 C442.209,283 444,281.209 444,279 L444,263 C444,260.791 442.209,259 440,259 L440,259 Z"
           id="mail"
           sketch:type="MSShapeGroup" />
      </g>
    </g>
  </g>
</svg>
