<?xml version="1.0" encoding="UTF-8" standalone="no"?>
<!-- Uploaded to: SVG Repo, www.svgrepo.com, Transformed by: SVG Repo Mixer Tools -->

<svg
   fill="#ffffff"
   width="800px"
   height="800px"
   viewBox="0 0 24 24"
   version="1.1"
   id="svg1500"
   sodipodi:docname="pulse.svg"
   inkscape:version="1.2.2 (b0a8486541, 2022-12-01)"
   xmlns:inkscape="http://www.inkscape.org/namespaces/inkscape"
   xmlns:sodipodi="http://sodipodi.sourceforge.net/DTD/sodipodi-0.dtd"
   xmlns="http://www.w3.org/2000/svg"
   xmlns:svg="http://www.w3.org/2000/svg">
  <defs
     id="defs1504" />
  <sodipodi:namedview
     id="namedview1502"
     pagecolor="#505050"
     bordercolor="#eeeeee"
     borderopacity="1"
     inkscape:showpageshadow="0"
     inkscape:pageopacity="0"
     inkscape:pagecheckerboard="0"
     inkscape:deskcolor="#505050"
     showgrid="false"
     inkscape:zoom="1.0975"
     inkscape:cx="315.26196"
     inkscape:cy="400"
     inkscape:window-width="1920"
     inkscape:window-height="1048"
     inkscape:window-x="1920"
     inkscape:window-y="0"
     inkscape:window-maximized="1"
     inkscape:current-layer="svg1500" />
  <g
     id="SVGRepo_bgCarrier"
     stroke-width="0" />
  <g
     id="SVGRepo_tracerCarrier"
     stroke-linecap="round"
     stroke-linejoin="round" />
  <g
     id="SVGRepo_iconCarrier"
     style="opacity:0.5">
    <path
       d="M23,12a1,1,0,0,1-1,1H17a1,1,0,0,1-.832-.445l-.866-1.3-2.354,7.06A1,1,0,0,1,12,19h-.038a1,1,0,0,1-.932-.757L8.862,9.574l-.914,2.742A1,1,0,0,1,7,13H2a1,1,0,0,1,0-2H6.279L8.052,5.684a1,1,0,0,1,1.918.074l2.168,8.668,1.914-5.742a1,1,0,0,1,1.78-.239L17.535,11H22A1,1,0,0,1,23,12Z"
       id="path1497" />
  </g>
</svg>
