<?xml version="1.0" encoding="UTF-8" standalone="no"?>
<!-- Uploaded to: SVG Repo, www.svgrepo.com, Transformed by: SVG Repo Mixer Tools -->

<svg
   width="800px"
   height="800px"
   viewBox="0 0 1024 1024"
   class="icon"
   version="1.1"
   fill="#ffffff"
   id="svg1242"
   sodipodi:docname="pay.svg"
   inkscape:version="1.2.2 (b0a8486541, 2022-12-01)"
   xmlns:inkscape="http://www.inkscape.org/namespaces/inkscape"
   xmlns:sodipodi="http://sodipodi.sourceforge.net/DTD/sodipodi-0.dtd"
   xmlns="http://www.w3.org/2000/svg"
   xmlns:svg="http://www.w3.org/2000/svg">
  <defs
     id="defs1246" />
  <sodipodi:namedview
     id="namedview1244"
     pagecolor="#505050"
     bordercolor="#eeeeee"
     borderopacity="1"
     inkscape:showpageshadow="0"
     inkscape:pageopacity="0"
     inkscape:pagecheckerboard="0"
     inkscape:deskcolor="#505050"
     showgrid="false"
     inkscape:zoom="1.0975"
     inkscape:cx="330.29613"
     inkscape:cy="400"
     inkscape:window-width="1920"
     inkscape:window-height="1048"
     inkscape:window-x="1920"
     inkscape:window-y="0"
     inkscape:window-maximized="1"
     inkscape:current-layer="svg1242" />
  <g
     id="SVGRepo_bgCarrier"
     stroke-width="0" />
  <g
     id="SVGRepo_tracerCarrier"
     stroke-linecap="round"
     stroke-linejoin="round" />
  <g
     id="SVGRepo_iconCarrier"
     style="opacity:0.5">
    <path
       d="M865.01 599.07c-30.39-16.39-67.2-14.82-96.07 4.18l-194.73 128h-38.49c8.11-16.83 13.04-35.45 13.04-55.34v-54.59H292.57v-72.93H109.72v402.47h182.86v-36.57h339.9l238.79-153.77c26.95-17.36 43.04-46.84 43.04-78.88a93.778 93.778 0 0 0-49.3-82.57zM219.43 877.71h-36.57V621.53h36.57v256.18z m612.22-178.67l-220.68 142.1h-318.4V694.46h179.85c-7.64 21.39-28.12 36.75-52.11 36.75h-54.2v0.04h-0.71v73.14h230.7l213.02-140.04c9.34-6.11 17.89-2.64 21.18-0.91 3.27 1.77 10.86 7.07 10.86 18.2a20.652 20.652 0 0 1-9.51 17.4zM378.87 502.62c-20.45-35.7-31.25-76.48-31.25-117.91 0-131.07 106.6-237.71 237.66-237.71 131.04 0 237.64 106.64 237.64 237.71 0 41.46-10.8 82.25-31.27 117.95l63.46 36.36c26.79-46.75 40.95-100.11 40.95-154.3 0-171.41-139.41-310.86-310.79-310.86s-310.8 139.45-310.8 310.86c0 54.16 14.14 107.5 40.93 154.27l63.47-36.37z"
       fill="#ffffff"
       id="path1237" />
    <path
       d="M668.79 244.79l-83.51 83.53-83.54-83.53-38.79 38.78 64.67 64.66h-54.67v54.86h84.9v35.45h-82.38v54.85h82.38v79.59h54.85v-79.59h82.36v-54.85H612.7v-35.45h84.88v-54.86h-54.65l64.65-64.66z"
       fill="#ffffff"
       id="path1239" />
  </g>
</svg>
