<?xml version="1.0" encoding="UTF-8" standalone="no"?>
<!-- Uploaded to: SVG Repo, www.svgrepo.com, Transformed by: SVG Repo Mixer Tools -->

<svg
   width="800px"
   height="800px"
   viewBox="0 -0.5 25 25"
   fill="none"
   version="1.1"
   id="svg15"
   sodipodi:docname="people.svg"
   inkscape:version="1.2.2 (b0a8486541, 2022-12-01)"
   xmlns:inkscape="http://www.inkscape.org/namespaces/inkscape"
   xmlns:sodipodi="http://sodipodi.sourceforge.net/DTD/sodipodi-0.dtd"
   xmlns="http://www.w3.org/2000/svg"
   xmlns:svg="http://www.w3.org/2000/svg">
  <defs
     id="defs19" />
  <sodipodi:namedview
     id="namedview17"
     pagecolor="#505050"
     bordercolor="#eeeeee"
     borderopacity="1"
     inkscape:showpageshadow="0"
     inkscape:pageopacity="0"
     inkscape:pagecheckerboard="0"
     inkscape:deskcolor="#505050"
     showgrid="false"
     inkscape:zoom="1.0975"
     inkscape:cx="332.57403"
     inkscape:cy="400"
     inkscape:window-width="1920"
     inkscape:window-height="1028"
     inkscape:window-x="0"
     inkscape:window-y="0"
     inkscape:window-maximized="1"
     inkscape:current-layer="svg15" />
  <g
     id="SVGRepo_bgCarrier"
     stroke-width="0" />
  <g
     id="SVGRepo_tracerCarrier"
     stroke-linecap="round"
     stroke-linejoin="round" />
  <g
     id="SVGRepo_iconCarrier"
     style="opacity:0.5">
    <path
       fill-rule="evenodd"
       clip-rule="evenodd"
       d="M14.9238 7.281C14.9227 8.5394 13.9018 9.55874 12.6435 9.558C11.3851 9.55726 10.3654 8.53673 10.3658 7.27833C10.3662 6.01994 11.3864 5 12.6448 5C13.2495 5.00027 13.8293 5.24073 14.2567 5.6685C14.6841 6.09627 14.924 6.67631 14.9238 7.281Z"
       stroke="#ffffff"
       stroke-width="1.5"
       stroke-linecap="round"
       stroke-linejoin="round"
       id="path4" />
    <path
       fill-rule="evenodd"
       clip-rule="evenodd"
       d="M14.9968 12.919H10.2968C8.65471 12.9706 7.35028 14.3166 7.35028 15.9595C7.35028 17.6024 8.65471 18.9484 10.2968 19H14.9968C16.6388 18.9484 17.9432 17.6024 17.9432 15.9595C17.9432 14.3166 16.6388 12.9706 14.9968 12.919V12.919Z"
       stroke="#ffffff"
       stroke-width="1.5"
       stroke-linecap="round"
       stroke-linejoin="round"
       id="path6" />
    <path
       fill-rule="evenodd"
       clip-rule="evenodd"
       d="M20.6878 9.02403C20.6872 9.98653 19.9066 10.7664 18.9441 10.766C17.9816 10.7657 17.2016 9.9852 17.2018 9.0227C17.202 8.06019 17.9823 7.28003 18.9448 7.28003C19.4072 7.28003 19.8507 7.4638 20.1776 7.7909C20.5045 8.11799 20.688 8.56158 20.6878 9.02403V9.02403Z"
       stroke="#ffffff"
       stroke-width="1.5"
       stroke-linecap="round"
       stroke-linejoin="round"
       id="path8" />
    <path
       fill-rule="evenodd"
       clip-rule="evenodd"
       d="M4.3338 9.02401C4.3338 9.98664 5.11417 10.767 6.0768 10.767C7.03943 10.767 7.8198 9.98664 7.8198 9.02401C7.8198 8.06137 7.03943 7.28101 6.0768 7.28101C5.11417 7.28101 4.3338 8.06137 4.3338 9.02401V9.02401Z"
       stroke="#ffffff"
       stroke-width="1.5"
       stroke-linecap="round"
       stroke-linejoin="round"
       id="path10" />
    <path
       d="M19.4368 12.839C19.0226 12.839 18.6868 13.1748 18.6868 13.589C18.6868 14.0032 19.0226 14.339 19.4368 14.339V12.839ZM20.7438 13.589L20.7593 12.8392C20.7541 12.839 20.749 12.839 20.7438 12.839V13.589ZM20.7438 18.24V18.99C20.749 18.99 20.7541 18.9899 20.7593 18.9898L20.7438 18.24ZM19.4368 17.49C19.0226 17.49 18.6868 17.8258 18.6868 18.24C18.6868 18.6542 19.0226 18.99 19.4368 18.99V17.49ZM5.58477 14.339C5.99899 14.339 6.33477 14.0032 6.33477 13.589C6.33477 13.1748 5.99899 12.839 5.58477 12.839V14.339ZM4.27777 13.589V12.839C4.27259 12.839 4.26741 12.839 4.26222 12.8392L4.27777 13.589ZM4.27777 18.24L4.26222 18.9898C4.26741 18.9899 4.27259 18.99 4.27777 18.99V18.24ZM5.58477 18.99C5.99899 18.99 6.33477 18.6542 6.33477 18.24C6.33477 17.8258 5.99899 17.49 5.58477 17.49V18.99ZM19.4368 14.339H20.7438V12.839H19.4368V14.339ZM20.7282 14.3388C21.5857 14.3566 22.2715 15.0568 22.2715 15.9145H23.7715C23.7715 14.2405 22.4329 12.8739 20.7593 12.8392L20.7282 14.3388ZM22.2715 15.9145C22.2715 16.7722 21.5857 17.4724 20.7282 17.4902L20.7593 18.9898C22.4329 18.9551 23.7715 17.5885 23.7715 15.9145H22.2715ZM20.7438 17.49H19.4368V18.99H20.7438V17.49ZM5.58477 12.839H4.27777V14.339H5.58477V12.839ZM4.26222 12.8392C2.58861 12.8739 1.25 14.2405 1.25 15.9145H2.75C2.75 15.0568 3.43584 14.3566 4.29332 14.3388L4.26222 12.8392ZM1.25 15.9145C1.25 17.5885 2.58861 18.9551 4.26222 18.9898L4.29332 17.4902C3.43584 17.4724 2.75 16.7722 2.75 15.9145H1.25ZM4.27777 18.99H5.58477V17.49H4.27777V18.99Z"
       fill="#ffffff"
       id="path12" />
  </g>
</svg>
