<?xml version="1.0" encoding="UTF-8" standalone="no"?>
<!-- Uploaded to: SVG Repo, www.svgrepo.com, Transformed by: SVG Repo Mixer Tools -->

<svg
   height="800px"
   width="800px"
   version="1.1"
   id="_x32_"
   viewBox="0 0 512 512"
   xml:space="preserve"
   fill="#ffffff"
   sodipodi:docname="reload.svg"
   inkscape:version="1.2.2 (b0a8486541, 2022-12-01)"
   xmlns:inkscape="http://www.inkscape.org/namespaces/inkscape"
   xmlns:sodipodi="http://sodipodi.sourceforge.net/DTD/sodipodi-0.dtd"
   xmlns="http://www.w3.org/2000/svg"
   xmlns:svg="http://www.w3.org/2000/svg"><defs
   id="defs1641" /><sodipodi:namedview
   id="namedview1639"
   pagecolor="#505050"
   bordercolor="#eeeeee"
   borderopacity="1"
   inkscape:showpageshadow="0"
   inkscape:pageopacity="0"
   inkscape:pagecheckerboard="0"
   inkscape:deskcolor="#505050"
   showgrid="false"
   inkscape:zoom="1.0975"
   inkscape:cx="330.29613"
   inkscape:cy="400"
   inkscape:window-width="1920"
   inkscape:window-height="1048"
   inkscape:window-x="1920"
   inkscape:window-y="0"
   inkscape:window-maximized="1"
   inkscape:current-layer="_x32_" />

<g
   id="SVGRepo_bgCarrier"
   stroke-width="0" />

<g
   id="SVGRepo_tracerCarrier"
   stroke-linecap="round"
   stroke-linejoin="round" />

<g
   id="SVGRepo_iconCarrier"
   style="opacity:0.5"> <style
   type="text/css"
   id="style1625"> .st0{fill:#ffffff;} </style> <g
   id="g1635"> <path
   class="st0"
   d="M268.149,12.153c-7.179,0-14.309,0.309-21.374,0.926l4.905,56.561h0.016 c5.392-0.462,10.882-0.698,16.453-0.698c51.745,0.016,98.326,20.886,132.272,54.782c33.896,33.954,54.783,80.534,54.783,132.28 c0,51.745-20.887,98.326-54.783,132.271c-33.945,33.896-80.526,54.767-132.272,54.783c-51.746-0.016-98.326-20.886-132.272-54.783 c-18.239-18.264-32.532-40.279-42.017-64.699l31.102-4.376L44.729,201.952l-17.93,54.052h-2.485c0,2.192,0.26,4.32,0.325,6.505 L0,336.765l36.414-5.116c31.85,97.611,123.485,168.189,231.735,168.197C402.84,499.839,511.984,390.688,512,256.004 C511.984,121.313,402.84,12.161,268.149,12.153z"
   id="path1627" /> <path
   class="st0"
   d="M113.041,151.425c3.054-4.532,6.335-8.941,9.794-13.237l-44.144-35.707 c-4.466,5.522-8.722,11.23-12.717,17.167l47.052,31.777H113.041z"
   id="path1629" /> <path
   class="st0"
   d="M193.762,84.314c9.079-3.938,18.532-7.17,28.292-9.648L208.12,19.607c-12.766,3.232-25.11,7.472-36.966,12.62 l22.609,52.078V84.314z"
   id="path1631" /> <path
   class="st0"
   d="M167.353,98.412l-30.664-47.807c-10.996,7.041-21.374,14.95-31.054,23.615l37.86,42.318 C150.933,109.887,158.908,103.812,167.353,98.412z"
   id="path1633" /> </g> </g>

</svg>
