<?xml version="1.0" encoding="UTF-8" standalone="no"?>
<!-- Uploaded to: SVG Repo, www.svgrepo.com, Transformed by: SVG Repo Mixer Tools -->

<svg
   width="800px"
   height="800px"
   viewBox="0 0 24 24"
   fill="none"
   version="1.1"
   id="svg1765"
   sodipodi:docname="save.svg"
   inkscape:version="1.2.2 (b0a8486541, 2022-12-01)"
   xmlns:inkscape="http://www.inkscape.org/namespaces/inkscape"
   xmlns:sodipodi="http://sodipodi.sourceforge.net/DTD/sodipodi-0.dtd"
   xmlns="http://www.w3.org/2000/svg"
   xmlns:svg="http://www.w3.org/2000/svg">
  <defs
     id="defs1769" />
  <sodipodi:namedview
     id="namedview1767"
     pagecolor="#505050"
     bordercolor="#eeeeee"
     borderopacity="1"
     inkscape:showpageshadow="0"
     inkscape:pageopacity="0"
     inkscape:pagecheckerboard="0"
     inkscape:deskcolor="#505050"
     showgrid="false"
     inkscape:zoom="1.0975"
     inkscape:cx="330.29613"
     inkscape:cy="400"
     inkscape:window-width="1920"
     inkscape:window-height="1048"
     inkscape:window-x="1920"
     inkscape:window-y="0"
     inkscape:window-maximized="1"
     inkscape:current-layer="svg1765" />
  <g
     id="SVGRepo_bgCarrier"
     stroke-width="0"
     style="opacity:0.5" />
  <g
     id="SVGRepo_tracerCarrier"
     stroke-linecap="round"
     stroke-linejoin="round"
     style="opacity:0.5" />
  <g
     id="SVGRepo_iconCarrier"
     style="opacity:0.5">
    <path
       stroke="#ffffff"
       stroke-linecap="round"
       stroke-linejoin="round"
       stroke-width="2"
       d="M8 4H6a2 2 0 0 0-2 2v12a2 2 0 0 0 2 2h12a2 2 0 0 0 2-2V7.828a2 2 0 0 0-.586-1.414l-1.828-1.828A2 2 0 0 0 16.172 4H15M8 4v4a1 1 0 0 0 1 1h5a1 1 0 0 0 1-1V4M8 4h7M7 17v-3a1 1 0 0 1 1-1h8a1 1 0 0 1 1 1v3"
       id="path1762" />
  </g>
</svg>
